<svg width="26" height="21" viewBox="0 0 26 21" fill="none" xmlns="http://www.w3.org/2000/svg">
<path d="M22.6369 20.873C22.4012 20.873 22.2244 20.873 22.0476 20.873C15.5058 20.873 8.96394 20.873 2.36318 20.873C1.00766 20.873 0.0646973 19.9788 0.0646973 18.548C0.0646973 12.6461 0.0646973 6.74417 0.0646973 0.842248C0.0646973 0.246094 0.0646973 0.246094 0.654051 0.246094C7.43162 0.365325 14.0913 0.365324 20.751 0.365324C21.3404 0.365324 21.3404 0.365324 21.3404 0.961478C21.3404 6.32686 21.3404 11.6922 21.3404 17.0576C21.3404 18.0115 21.3993 18.9653 21.8708 19.7999C22.1065 20.1576 22.3423 20.4557 22.6369 20.873ZM20.1617 19.1442C20.1027 18.3096 19.9848 17.5346 19.9848 16.7596C19.9848 11.9903 19.9848 7.22109 19.9848 2.39225C19.9848 2.03455 19.9259 1.85571 19.5134 1.85571C13.7966 1.85571 8.07991 1.85571 2.36318 1.85571C2.00956 1.85571 1.89169 1.97494 1.89169 2.33263C1.89169 3.64417 1.89169 4.95571 1.89169 6.20763C1.89169 9.9634 1.89169 13.6596 1.89169 17.4153C1.89169 18.6672 2.30424 19.1442 3.54188 19.1442C8.905 19.0846 14.2681 19.1442 19.6902 19.1442C19.867 19.1442 20.0438 19.1442 20.1617 19.1442Z" fill="#04AFBA"/>
<path d="M25.0534 12.3481C25.0534 14.5539 25.0534 16.7597 25.0534 18.9654C25.0534 19.8001 24.5819 20.5154 23.8157 20.8135C23.6389 20.8731 23.4032 20.8731 23.2264 20.7539C22.1655 20.0981 21.8119 18.9654 21.753 17.7731C21.6941 16.2231 21.753 14.6135 21.753 13.0635C21.753 10.6789 21.753 8.29429 21.753 5.90967C21.753 5.25391 21.753 5.25391 22.4013 5.25391C23.0496 5.25391 23.7568 5.25391 24.4051 5.25391C25.0534 5.25391 25.0534 5.25391 25.0534 5.90967C25.0534 7.99621 25.0534 10.1424 25.0534 12.3481Z" fill="#04AFBA"/>
<path d="M11.0266 13.5402C11.0266 14.7325 11.0266 15.9248 11.0266 17.0575C11.0266 17.4152 10.9677 17.5941 10.4962 17.5941C8.25667 17.5941 5.95819 17.5941 3.71865 17.5941C3.3061 17.5941 3.18823 17.4748 3.18823 17.0575C3.18823 14.6729 3.18823 12.3479 3.18823 9.9633C3.18823 9.54599 3.3061 9.42676 3.71865 9.42676C5.95819 9.42676 8.19774 9.42676 10.4373 9.42676C10.8498 9.42676 10.9677 9.54599 10.9677 9.9633C11.0266 11.2152 11.0266 12.4075 11.0266 13.5402Z" fill="#04AFBA"/>
<path d="M10.9678 3.40625C13.3252 3.40625 15.7415 3.40625 18.0989 3.40625C18.6883 3.40625 18.6883 3.40625 18.6883 4.0024C18.6883 4.30048 18.6883 4.53894 18.6883 4.83702C18.6883 4.95625 18.5115 5.07548 18.3936 5.1351C18.3347 5.19471 18.2168 5.1351 18.1579 5.1351C13.3841 5.1351 8.66927 5.1351 3.89551 5.1351C3.30615 5.1351 3.30615 5.1351 3.30615 4.53894C3.30615 3.40625 3.30615 3.40625 4.42592 3.40625C6.60653 3.40625 8.78714 3.40625 10.9678 3.40625Z" fill="#04AFBA"/>
<path d="M10.9678 8.23471C8.61043 8.23471 6.19408 8.23471 3.83667 8.23471C3.42412 8.23471 3.24731 8.11548 3.24731 7.69817C3.24731 6.50586 3.24731 6.50586 4.42602 6.50586C8.96404 6.50586 13.561 6.50586 18.099 6.50586C18.6884 6.50586 18.6884 6.50586 18.6884 7.10201C18.6884 8.23471 18.6884 8.23471 17.5686 8.23471C15.3291 8.23471 13.1485 8.23471 10.9678 8.23471Z" fill="#04AFBA"/>
<path d="M15.3877 11.3343C14.4448 11.3343 13.5018 11.3343 12.5588 11.3343C12.2642 11.3343 12.0874 11.2151 12.1463 10.917C12.1463 10.6189 12.1463 10.2612 12.1463 9.96316C12.1463 9.7247 12.2052 9.60547 12.4999 9.60547C14.4448 9.60547 16.3896 9.60547 18.3935 9.60547C18.6292 9.60547 18.7471 9.7247 18.7471 9.96316C18.806 11.3343 18.806 11.3343 17.4505 11.3343C16.7433 11.3343 16.036 11.3343 15.3877 11.3343Z" fill="#04AFBA"/>
<path d="M15.3878 14.4339C14.4449 14.4339 13.5019 14.4339 12.5589 14.4339C12.2642 14.4339 12.1464 14.3743 12.1464 14.0166C12.1464 12.7051 12.0874 12.7051 13.443 12.7051C15.0342 12.7051 16.6844 12.7051 18.2757 12.7051C18.6293 12.7051 18.7471 12.8243 18.7471 13.182C18.7471 13.4801 18.7471 13.7782 18.7471 14.0762C18.7471 14.3743 18.6293 14.4935 18.3346 14.4935C17.3327 14.4339 16.3308 14.4339 15.3878 14.4339Z" fill="#04AFBA"/>
<path d="M15.3879 17.6536C14.445 17.6536 13.502 17.6536 12.559 17.6536C12.2644 17.6536 12.1465 17.5344 12.1465 17.2363C12.1465 16.9383 12.1465 16.5806 12.1465 16.2825C12.1465 16.044 12.2054 15.9248 12.5001 15.9248C14.445 15.9248 16.3898 15.9248 18.3936 15.9248C18.6294 15.9248 18.7472 16.044 18.7472 16.2825C18.8062 17.6536 18.8062 17.6536 17.4507 17.6536C16.7434 17.6536 16.0362 17.6536 15.3879 17.6536Z" fill="#04AFBA"/>
</svg>
