<svg width="38" height="37" viewBox="0 0 38 37" fill="none" xmlns="http://www.w3.org/2000/svg">
<path d="M31.7871 13.6622C30.7035 13.6622 29.6198 13.6622 28.5362 13.6622C28.5362 11.0295 28.5362 8.32569 28.5362 5.693C20.9506 5.693 13.3651 5.693 5.77952 5.693C5.77952 13.1642 5.77952 20.6353 5.77952 28.1065C8.45252 28.1065 11.1255 28.1065 13.8708 28.1065C13.8708 29.1738 13.8708 30.2411 13.8708 31.3084C13.5096 31.3084 13.2206 31.3084 12.9316 31.3084C10.0419 31.3084 7.22438 31.3084 4.33465 31.3084C3.17875 31.3084 2.52856 30.668 2.52856 29.5295C2.52856 23.4103 2.52856 17.2911 2.52856 11.1007C2.52856 8.75261 2.52856 6.47569 2.52856 4.12761C2.52856 3.06031 3.17875 2.41992 4.2624 2.41992C12.8594 2.41992 21.3841 2.41992 29.981 2.41992C30.9924 2.41992 31.6426 2.918 31.7871 3.70069C31.7871 3.843 31.7871 3.98531 31.7871 4.12761C31.7871 7.18723 31.7871 10.318 31.7871 13.3776C31.7871 13.5199 31.7871 13.5911 31.7871 13.6622Z" fill="#0199A3"/>
<path d="M33.3764 30.5977C32.5817 31.3804 31.8593 32.092 31.0646 32.8747C30.7756 32.5901 30.4866 32.3054 30.1977 31.9497C29.7642 31.5227 29.2585 31.0247 28.825 30.5977C28.6806 30.4554 28.5361 30.4554 28.3916 30.5266C28.0304 30.7401 27.5969 30.8824 27.2357 31.0247C27.019 31.0958 26.9467 31.167 26.9467 31.3804C26.9467 32.3054 26.9467 33.2304 26.9467 34.1554C26.9467 34.2266 26.9467 34.3689 26.9467 34.4401C25.8631 34.4401 24.8517 34.4401 23.6958 34.4401C23.6958 34.2977 23.6958 34.2266 23.6958 34.0843C23.6958 33.1593 23.6958 32.2343 23.6958 31.3093C23.6958 31.0958 23.6235 31.0247 23.479 30.9535C23.0456 30.8112 22.6844 30.6689 22.2509 30.4554C22.0342 30.3843 21.9619 30.3843 21.8174 30.5266C21.1673 31.167 20.5171 31.8074 19.8669 32.5189C19.7946 32.5901 19.6501 32.6612 19.5779 32.7324C18.7832 31.9497 18.0608 31.2381 17.2661 30.4554C17.5551 30.1708 17.9163 29.8862 18.2053 29.6016C18.6387 29.1747 19.0722 28.7477 19.5779 28.3208C19.7224 28.1785 19.7946 28.0362 19.6501 27.8227C19.5057 27.467 19.3612 27.1112 19.2167 26.7554C19.1444 26.542 19.0722 26.4708 18.8555 26.4708C17.9163 26.4708 17.0494 26.4708 16.1102 26.4708C15.9657 26.4708 15.8935 26.4708 15.6768 26.4708C15.6768 25.4035 15.6768 24.3362 15.6768 23.2689C15.8212 23.2689 15.8935 23.2689 16.038 23.2689C16.9771 23.2689 17.9163 23.2689 18.7832 23.2689C19 23.2689 19.0722 23.1977 19.1444 22.9843C19.2889 22.5574 19.4334 22.2016 19.6501 21.8458C19.7946 21.6324 19.7224 21.4901 19.5779 21.3477C19 20.7785 18.422 20.2093 17.8441 19.6401C17.6996 19.4977 17.5551 19.4266 17.4106 19.2843C18.2053 18.5016 19 17.7901 19.7224 17.0074C19.7946 17.0785 19.8669 17.1497 19.9391 17.2208C20.5893 17.8612 21.2395 18.5016 21.8897 19.142C22.0342 19.2843 22.1064 19.2843 22.3231 19.2131C22.6844 18.9997 23.1178 18.8574 23.479 18.7151C23.6958 18.6439 23.6958 18.5727 23.6958 18.3593C23.6958 17.4343 23.6958 16.5093 23.6958 15.6554C23.6958 15.5131 23.6958 15.442 23.6958 15.2285C24.7794 15.2285 25.8631 15.2285 26.9467 15.2285C26.9467 15.442 26.9467 15.5843 26.9467 15.7977C26.9467 16.5804 26.9467 17.4343 26.9467 18.217C26.9467 18.5016 27.019 18.6439 27.3079 18.7151C27.6692 18.7862 28.0304 18.9997 28.3193 19.142C28.5361 19.2131 28.6083 19.2131 28.7528 19.0708C29.4752 18.3593 30.1977 17.6477 30.9201 16.9362C31.7148 17.7189 32.4372 18.4304 33.2319 19.2131C32.7262 19.7112 32.1482 20.2804 31.498 20.8497C31.2813 21.0631 30.9923 21.2054 30.9201 21.4901C30.8479 21.7035 31.1368 21.9881 31.2091 22.2016C31.2813 22.4151 31.4258 22.5574 31.4258 22.7708C31.4981 23.0554 31.6425 23.1266 31.9315 23.1266C32.9429 23.1266 33.8821 23.1266 34.9657 23.1266C34.9657 24.1939 34.9657 25.2612 34.9657 26.3285C34.8212 26.3285 34.6768 26.3285 34.6045 26.3285C33.6654 26.3285 32.7984 26.3285 31.8593 26.3285C31.6425 26.3285 31.4981 26.3997 31.4258 26.6131C31.2813 26.9689 31.1368 27.3958 30.9923 27.7516C30.9201 27.9651 30.9201 28.0362 31.0646 28.1785C31.7148 28.8189 32.4372 29.4593 33.0874 30.1708C33.1596 30.3843 33.3041 30.4554 33.3764 30.5977ZM25.2851 21.7035C23.6235 21.6324 22.0342 23.1977 22.0342 24.8343C22.0342 26.6131 23.479 28.1074 25.2851 28.1074C27.019 28.1074 28.5361 26.6843 28.5361 24.9054C28.5361 23.1977 27.019 21.7035 25.2851 21.7035Z" fill="#0199A3"/>
<path d="M13.9431 10.4599C13.9431 9.96184 13.9431 9.46376 13.9431 8.89453C17.6998 8.89453 21.4564 8.89453 25.2853 8.89453C25.2853 9.39261 25.2853 9.89068 25.2853 10.4599C21.4564 10.4599 17.6998 10.4599 13.9431 10.4599Z" fill="#0199A3"/>
<path d="M13.9431 12.0977C16.1104 12.0977 18.2777 12.0977 20.3728 12.0977C20.3728 12.5957 20.3728 13.165 20.3728 13.663C18.2055 13.663 16.1104 13.663 13.9431 13.663C13.9431 13.165 13.9431 12.6669 13.9431 12.0977Z" fill="#0199A3"/>
<path d="M9.03052 8.89453C10.1142 8.89453 11.1978 8.89453 12.2815 8.89453C12.2815 9.39261 12.2815 9.89068 12.2815 10.4599C11.1978 10.4599 10.1864 10.4599 9.03052 10.4599C9.03052 9.96184 9.03052 9.46376 9.03052 8.89453Z" fill="#0199A3"/>
<path d="M12.2815 13.663C11.1978 13.663 10.1142 13.663 9.03052 13.663C9.03052 13.165 9.03052 12.6669 9.03052 12.0977C10.1142 12.0977 11.1978 12.0977 12.2815 12.0977C12.2815 12.6669 12.2815 13.165 12.2815 13.663Z" fill="#0199A3"/>
<path d="M9.03052 16.8642C9.03052 16.3661 9.03052 15.8681 9.03052 15.2988C10.1142 15.2988 11.1978 15.2988 12.2815 15.2988C12.2815 15.7969 12.2815 16.295 12.2815 16.8642C11.1978 16.8642 10.1142 16.8642 9.03052 16.8642Z" fill="#0199A3"/>
</svg>
