<svg width="33" height="30" viewBox="0 0 33 30" fill="none" xmlns="http://www.w3.org/2000/svg">
<path d="M32.1098 13.5401L24.4381 20.4811C23.8554 21.0083 22.9329 21.0083 22.3502 20.4811L20.9421 19.2071C20.3595 18.68 20.3595 17.8453 20.9421 17.3181L21.282 17.0106L18.8543 14.8141L13.8531 19.3389L14.193 19.6464C14.9699 20.3493 14.9699 21.4696 14.193 22.1724L7.10397 28.5863C6.3271 29.2892 5.08894 29.2892 4.31207 28.5863L1.52016 26.0603C0.74328 25.3574 0.74328 24.2372 1.52016 23.5343L8.60918 17.1204C9.38605 16.4175 10.6242 16.4175 11.4011 17.1204L11.741 17.4279L16.7421 12.9031L14.3144 10.7066L13.9745 11.0141C13.3918 11.5412 12.4693 11.5412 11.8866 11.0141L10.4785 9.74008C9.89588 9.21291 9.89588 8.37823 10.4785 7.85106L18.1502 0.910024C18.7329 0.382857 19.6554 0.382857 20.2381 0.910024L21.6462 2.18401C22.2288 2.71118 22.2288 3.54586 21.6462 4.07303L21.3063 4.38054L28.2982 10.7066L28.6381 10.399C29.2207 9.87187 30.1433 9.87187 30.7259 10.399L32.134 11.673C32.6924 12.1782 32.6924 13.0129 32.1098 13.5401Z" fill="#E19E3A"/>
</svg>
