<svg width="59" height="27" viewBox="0 0 59 27" fill="none" xmlns="http://www.w3.org/2000/svg">
<path d="M58.2347 16.4382C58.2347 18.6028 58.2347 20.8948 58.2347 23.0595C58.2347 23.6962 58.2347 24.4602 57.8528 24.9695C57.4709 25.4789 56.707 25.8609 56.0704 26.2429C55.9431 25.6062 55.6885 25.0969 55.5612 24.4602C55.4339 23.8235 55.5612 23.0595 55.5612 22.4229C55.5612 21.2768 55.4339 20.2582 55.4339 19.1122C54.5427 19.4942 53.6515 19.8762 52.7603 20.1308C50.4687 20.7675 47.7952 19.7488 46.522 17.7115C44.9943 15.2922 45.1216 11.7268 47.0313 9.56213C48.6863 7.65212 51.2326 6.88812 53.5242 7.90679C54.5427 8.41613 55.3066 8.92546 56.4524 7.90679C57.2162 7.27012 58.4894 7.77946 58.362 9.18013C58.2347 11.7268 58.2347 14.0188 58.2347 16.4382ZM55.5612 13.8915C55.5612 11.8541 53.9061 10.1988 51.8691 10.0715C49.7048 10.0715 48.0498 11.8541 48.1771 14.0188C48.3044 16.1835 49.8321 17.7115 51.9964 17.5842C54.0334 17.5842 55.5612 15.9288 55.5612 13.8915Z" fill="#CDCDCD"/>
<path d="M0.816406 10.5805C0.816406 8.16116 0.816406 5.61448 0.816406 3.19514C0.816406 2.55847 1.19834 1.66713 1.58028 1.28513C2.47146 0.521127 3.36264 0.648462 3.36264 2.17647C3.36264 3.83181 3.36264 5.61448 3.36264 7.26982C3.36264 8.54316 3.48995 9.30716 5.0177 8.28849C7.05468 7.01515 9.3463 7.26982 11.256 8.79783C13.5476 10.4532 14.0568 12.9998 13.4203 15.5465C12.911 17.8385 11.3833 19.6212 8.96436 20.0032C7.81855 20.2579 6.41812 20.0032 5.27232 19.6212C4.38114 19.3665 3.87189 18.6025 2.72608 19.7485C1.96221 20.6399 0.816406 19.8759 0.816406 18.4752C0.816406 15.8012 0.816406 13.2545 0.816406 10.5805ZM7.182 17.5839C9.21898 17.5839 10.874 15.9285 10.874 13.8912C10.874 11.7265 9.3463 10.0712 7.30931 10.0712C5.14501 10.0712 3.48995 11.7265 3.48995 13.8912C3.48995 16.0559 5.14501 17.7112 7.182 17.5839Z" fill="#CDCDCD"/>
<path d="M28.3161 14.1463C28.3161 15.547 28.3161 17.075 28.3161 18.4757C28.1888 19.8763 26.9157 20.6404 26.1518 19.749C25.2606 18.603 24.8787 19.1123 23.9875 19.6217C21.4413 20.895 18.6404 20.3857 16.858 18.221C14.9484 15.8017 14.9484 12.109 16.858 9.68964C18.5131 7.65229 21.314 7.01563 23.7329 8.16163C24.6241 8.54363 25.1333 9.30764 26.1518 8.16163C27.043 7.27029 28.1888 8.0343 28.1888 9.5623C28.4434 10.963 28.3161 12.6183 28.3161 14.1463ZM18.2585 14.019C18.2585 16.0563 19.9135 17.7117 22.0778 17.7117C24.1148 17.7117 25.7699 16.0563 25.7699 14.019C25.7699 11.8543 23.9875 10.0716 21.8232 10.199C19.7862 10.199 18.2585 11.8543 18.2585 14.019Z" fill="#CDCDCD"/>
<path d="M31.4984 14.0182C31.4984 12.6175 31.4984 11.0895 31.4984 9.68881C31.6257 7.7788 32.3896 7.14214 33.79 8.16081C34.6812 8.79748 35.0631 8.41547 35.6997 8.16081C39.519 6.50547 42.8292 8.41547 43.0838 12.6175C43.2111 14.5275 43.0838 16.5648 43.0838 18.4748C43.0838 19.4935 42.7018 20.2575 41.556 20.0029C41.0468 19.8755 40.5375 19.1115 40.4102 18.4748C40.2829 16.8195 40.4102 15.0368 40.2829 13.3815C40.1556 11.3442 39.1371 10.1981 37.3547 10.1981C35.5724 10.0708 34.172 11.2168 34.0446 13.2542C33.9173 15.0368 34.0446 16.8195 33.9173 18.6022C33.9173 19.1115 33.1535 19.6209 32.6442 20.0029C32.135 19.4935 31.3711 19.1115 31.3711 18.6022C31.4984 17.0742 31.6257 15.5462 31.4984 14.0182Z" fill="#CDCDCD"/>
</svg>
