<svg width="18" height="20" viewBox="0 0 18 20" fill="none" xmlns="http://www.w3.org/2000/svg">
<path d="M4.20312 10.5371C5.87825 7.79081 7.55338 5.07439 9.25896 2.32812C10.9341 5.07439 12.6092 7.79081 14.3148 10.5371C14.2539 10.5669 14.193 10.6266 14.1321 10.6565C12.5788 11.552 10.995 12.4774 9.4417 13.3729C9.35033 13.4326 9.25896 13.4625 9.13714 13.4028C7.52292 12.4774 5.93917 11.552 4.32495 10.6266C4.26404 10.5968 4.23358 10.5669 4.20312 10.5371Z" fill="#04AFBA"/>
<path d="M9.26055 18.4776C7.58542 16.1492 5.94075 13.8805 4.26562 11.6119C4.26562 11.6119 4.26563 11.582 4.29608 11.582C4.357 11.6119 4.41791 11.6417 4.47882 11.6716C6.00167 12.5671 7.52451 13.4328 9.04735 14.3283C9.23009 14.4179 9.32146 14.4179 9.5042 14.3283C11.027 13.4328 12.5499 12.5671 14.0727 11.6716C14.1336 11.6417 14.1946 11.6119 14.2555 11.6119C12.5803 13.8805 10.9357 16.179 9.26055 18.4776Z" fill="#04AFBA"/>
</svg>
