<svg width="36" height="36" viewBox="0 0 36 36" fill="none" xmlns="http://www.w3.org/2000/svg">
<path d="M7.76692 26.0677C8.37909 26.76 8.9038 27.3657 9.42852 28.0581C9.51597 28.1446 9.42852 28.4042 9.34106 28.4907C8.64144 29.2696 8.46654 30.3081 8.99125 31.26C9.51597 32.1254 10.4779 32.5581 11.5274 32.385C12.4894 32.2119 13.2764 31.3465 13.3639 30.3946C13.4513 29.7023 13.189 29.0965 12.7517 28.5773C10.8278 26.2407 8.9038 23.9907 6.97985 21.6542C5.2308 19.5773 3.5692 17.5004 1.82015 15.4234C-0.453614 12.6542 0.158553 8.67344 3.65665 7.02921C7.50456 5.2119 11.1776 3.22152 14.938 1.31767C17.2118 0.106132 19.8354 0.79844 21.2346 2.52921C23.1586 4.77921 22.5464 8.41382 20.0103 9.88498C16.5122 11.8754 12.9266 13.8657 9.42852 15.8561C9.07871 16.0292 8.9038 16.0292 8.64144 15.6831C8.11673 15.0773 7.59201 14.385 7.0673 13.7792C7.67947 13.1734 8.11673 12.5677 8.02928 11.7888C7.94182 10.8369 7.50456 10.1446 6.71749 9.79844C5.84296 9.36575 4.96844 9.53882 4.26882 10.1446C3.5692 10.7504 3.21939 11.5292 3.48175 12.4811C3.65665 13.0004 4.00646 13.5196 4.35627 13.9523C6.89239 17.0677 9.51597 20.1831 12.0521 23.2984C13.0141 24.51 13.976 25.635 15.0255 26.76C15.7251 27.5388 16.0749 28.4907 16.3373 29.6157C17.0369 29.1831 17.5616 28.8369 18.1738 28.4907C20.535 27.0196 22.8962 25.5484 25.2574 24.0773C25.6072 23.9042 25.957 23.6446 26.1319 23.385C26.919 22.5196 26.919 21.5677 26.1319 20.6157C25.6072 20.01 25.8696 19.1446 26.6567 18.9715C26.919 18.885 27.1814 18.885 27.4437 18.7119C27.9684 18.4523 28.2308 18.5388 28.5806 19.0581C30.3297 21.2215 29.7175 24.6831 27.3563 26.1542C22.8087 29.01 18.1738 31.8657 13.6262 34.7215C11.3525 36.1061 8.37909 35.5004 6.71749 33.3369C5.14334 31.3465 5.4057 28.3177 7.2422 26.5869C7.41711 26.3273 7.59201 26.2407 7.76692 26.0677ZM11.0027 11.5292C11.1776 11.4427 11.265 11.4427 11.3525 11.4427C13.7137 10.1446 16.1624 8.75998 18.5236 7.4619C19.573 6.85613 19.8354 5.64459 19.3106 4.69267C18.7859 3.74075 17.5616 3.39459 16.5122 3.91382C14.151 5.12536 11.7897 6.25036 9.51597 7.4619C9.34106 7.54844 9.25361 7.63498 9.07871 7.72152C10.2156 8.75998 10.8278 9.97152 11.0027 11.5292Z" fill="#586C6D"/>
<path d="M28.4932 5.03839C28.6681 5.64416 28.7555 6.16339 28.843 6.59608C28.9304 6.59608 28.9304 6.59608 29.0179 6.59608C29.1053 6.16339 29.1928 5.81723 29.2802 5.38454C29.4551 4.69223 29.805 4.08646 30.5046 3.74031C31.8164 2.96146 33.3031 2.35569 34.7897 2.18262C34.9647 2.18262 35.1396 2.18262 35.4894 2.18262C35.3145 2.96146 35.227 3.65377 35.0521 4.43262C34.9647 4.95185 34.7023 5.47108 34.6148 5.99031C34.3525 7.20185 33.478 7.89416 32.3411 8.24031C32.1662 8.32685 31.9913 8.41339 31.7289 8.58646C32.2536 8.58646 32.8658 8.58646 33.5654 8.58646C33.3031 9.19223 33.0407 9.71146 32.8658 10.2307C32.4285 11.7884 31.2916 12.4807 29.805 12.8268C29.63 12.8268 29.4551 12.9134 29.2802 12.9999C29.2802 12.9999 29.1928 12.9999 29.1928 13.173C29.805 13.2595 30.5046 13.2595 31.1167 13.3461V13.4326C30.2422 14.9903 29.1053 16.2884 27.4437 17.0672C26.919 17.3268 26.3069 17.3268 25.7821 17.4999C25.5198 17.5865 25.2574 17.673 25.17 17.8461C24.6453 18.798 24.208 19.7499 23.7707 20.7018C23.5084 21.3076 23.246 21.6538 22.6339 21.8268C22.3715 21.9134 22.0217 22.0865 21.6719 22.173C22.8962 18.798 24.5578 15.6826 26.5692 12.7403C26.4818 12.6538 26.4818 12.6538 26.3943 12.5672C25.2574 13.7788 24.1205 14.9038 23.0711 16.1153C21.5844 14.1249 22.4589 10.923 24.3829 9.01916C24.6453 9.53839 24.8202 10.1442 25.0825 10.6634C25.17 10.6634 25.2574 10.6634 25.2574 10.6634C25.2574 10.4903 25.2574 10.3172 25.2574 10.1442C25.17 8.58646 25.5198 7.20185 27.0065 6.24992C27.5312 5.90377 27.9685 5.47108 28.4932 5.03839Z" fill="#586C6D"/>
<path d="M13.3633 21.3081C14.7625 20.4427 16.1618 19.6639 17.561 18.885C18.3481 18.4523 19.1351 18.0196 19.9222 17.5004C20.272 17.2408 20.5344 17.2408 20.7967 17.6735C20.9716 17.9331 21.1465 18.1062 21.4089 18.3658C21.234 18.4523 21.0591 18.6254 20.8842 18.712C18.9602 19.837 16.9488 20.962 15.0249 22.087C14.5876 22.3466 14.2378 22.4331 13.9754 21.9139C13.7131 21.6543 13.5382 21.4812 13.3633 21.3081Z" fill="#586C6D"/>
<path d="M18.0869 14.6445C18.4367 14.9907 18.6991 15.3368 19.0489 15.683C18.7865 15.8561 18.6116 16.0291 18.3493 16.1157C16.4253 17.2407 14.5014 18.2791 12.6649 19.4041C12.2276 19.6638 12.0527 19.6638 11.7903 19.2311C11.6154 18.9715 11.4405 18.7984 11.2656 18.5388C13.4519 17.3272 15.7257 16.0291 18.0869 14.6445Z" fill="#586C6D"/>
<path d="M15.4609 23.8181C17.1225 22.8661 18.6967 21.9142 20.2708 21.0488C19.921 22.0008 19.8336 23.1257 18.6967 23.645C18.0845 23.9046 17.4723 24.3373 16.8602 24.6834C16.5104 24.9431 16.248 24.9431 15.9857 24.5104C15.8982 24.3373 15.7233 24.1642 15.4609 23.8181Z" fill="#586C6D"/>
</svg>
