<svg width="18" height="16" viewBox="0 0 18 16" fill="none" xmlns="http://www.w3.org/2000/svg">
<path d="M14.6173 6.91379L11.3295 9.81485C11.0798 10.0352 10.6844 10.0352 10.4347 9.81485L9.83122 9.28237C9.58151 9.06204 9.58151 8.71318 9.83122 8.49285L9.97689 8.36432L8.93643 7.44626L6.79307 9.33746L6.93874 9.46598C7.27169 9.75976 7.27169 10.228 6.93874 10.5217L3.90059 13.2025C3.56764 13.4962 3.037 13.4962 2.70406 13.2025L1.50752 12.1467C1.17458 11.8529 1.17458 11.3847 1.50752 11.0909L4.54567 8.41022C4.87862 8.11644 5.40926 8.11644 5.74221 8.41022L5.88787 8.53875L8.03122 6.64756L6.99076 5.7295L6.8451 5.85803C6.59539 6.07836 6.20001 6.07836 5.9503 5.85803L5.34683 5.32556C5.09712 5.10522 5.09712 4.75636 5.34683 4.53603L8.63469 1.63498C8.8844 1.41464 9.27978 1.41464 9.52949 1.63498L10.133 2.16745C10.3827 2.38778 10.3827 2.73664 10.133 2.95698L9.98729 3.0855L12.9838 5.7295L13.1295 5.60097C13.3792 5.38064 13.7746 5.38064 14.0243 5.60097L14.6278 6.13345C14.8671 6.3446 14.8671 6.69346 14.6173 6.91379Z" fill="#0ABAB5"/>
<path d="M15.3974 14.0467H9.51881C9.17546 14.0467 8.89453 13.7988 8.89453 13.4959V12.128C8.89453 11.825 9.17546 11.5771 9.51881 11.5771H15.3974C15.7408 11.5771 16.0217 11.825 16.0217 12.128V13.4959C16.0217 13.7988 15.7408 14.0467 15.3974 14.0467Z" fill="#0ABAB5"/>
</svg>
