<svg width="16" height="17" viewBox="0 0 16 17" fill="none" xmlns="http://www.w3.org/2000/svg">
<path d="M14.0796 8.24601C14.0796 11.4177 11.3181 14.0057 7.90696 14.0057C4.4958 14.0057 1.73438 11.4177 1.73438 8.24601C1.73438 5.07437 4.4958 2.46094 7.90696 2.46094C11.3181 2.46094 14.0796 5.049 14.0796 8.24601ZM10.2894 9.51467C10.2894 9.3878 10.2352 9.28631 10.1269 9.23557L8.69207 8.24601V4.87139C8.69207 4.6684 8.50256 4.49079 8.28598 4.49079H7.50087C7.28429 4.49079 7.09478 4.6684 7.09478 4.87139V8.49974C7.09478 8.80422 7.23014 9.05795 7.4738 9.23557L9.15231 10.4027C9.23353 10.4535 9.31475 10.4788 9.39597 10.4788C9.53133 10.4788 9.63962 10.4281 9.69377 10.3266L10.1811 9.74303C10.2623 9.69228 10.2894 9.61616 10.2894 9.51467Z" fill="#04AFBA"/>
</svg>
