<svg width="32" height="32" viewBox="0 0 32 32" fill="none" xmlns="http://www.w3.org/2000/svg">
<path d="M10.1162 15.9763C7.14393 13.0021 4.17164 10.127 1.29842 7.15284C0.109507 5.96316 -0.286799 4.57521 0.208583 2.98897C0.703965 1.40274 1.79381 0.41134 3.37903 0.113921C4.96425 -0.183498 6.25224 0.41134 7.34208 1.50188C10.2153 4.37693 12.9894 7.15284 16.0608 10.2262C16.9525 9.23478 17.7451 8.34252 18.6368 7.45026C20.6183 5.46747 22.6989 3.38553 24.6804 1.40274C26.4638 -0.381777 29.0398 -0.480917 30.7241 1.20446C32.4084 2.88983 32.4084 5.36833 30.625 7.25198C27.7518 10.127 24.8786 13.0021 21.8072 16.0754C22.8971 17.0668 23.8878 17.9591 24.8786 18.9505C26.8601 20.9333 28.8417 22.8169 30.7241 24.7997C32.4084 26.5842 32.4084 29.0627 30.8232 30.7481C29.1389 32.4335 26.662 32.4335 24.8786 30.649C21.9063 27.7739 19.0331 24.7997 15.9617 21.7264C14.971 22.8169 13.9802 23.9075 12.9894 24.998C11.107 26.8816 9.22453 28.7653 7.34208 30.649C5.55871 32.3343 3.0818 32.3343 1.3975 30.7481C-0.286798 29.0627 -0.286798 26.5842 1.49658 24.7997C4.17164 21.8255 7.14393 18.9505 10.1162 15.9763Z" fill="white"/>
</svg>
