<svg width="28" height="29" viewBox="0 0 28 29" fill="none" xmlns="http://www.w3.org/2000/svg">
<g clip-path="url(#clip0_1459_17635)">
<path d="M10.6995 18.1192C10.6995 15.7291 10.7527 13.3946 10.6995 11.0046C10.6462 9.72616 11.498 8.78125 12.8287 8.78125C15.9162 8.83683 19.0037 8.83683 22.0911 8.78125C23.4219 8.78125 24.2736 9.55941 24.2736 11.0602C24.2204 14.5063 24.2736 18.008 24.2736 21.4542C24.2736 22.7326 24.2204 23.9554 24.2736 25.2339C24.3268 26.7902 23.3154 27.5128 22.0379 27.5128C19.0037 27.4572 15.9162 27.4572 12.882 27.5128C11.498 27.5683 10.6462 26.5679 10.6462 25.1783C10.7527 22.8438 10.6995 20.4537 10.6995 18.1192Z" fill="white"/>
<path d="M6.49426 20.8986C5.37639 20.9542 4.68437 20.3983 4.47144 19.3978C4.41821 19.1755 4.41821 18.8976 4.41821 18.6197C4.41821 13.8951 4.41821 9.17055 4.41821 4.44598C4.41821 2.94524 5.16346 2.22266 6.60072 2.22266C9.74141 2.22266 12.8821 2.22266 16.0228 2.22266C17.1406 2.22266 18.0988 3.22315 17.9391 4.3904C17.7262 4.3904 17.46 4.3904 17.2471 4.3904C14.692 4.3904 12.1901 4.3904 9.63494 4.3904C8.09122 4.3904 7.02658 5.22414 6.60072 6.61372C6.49426 7.0028 6.49426 7.44747 6.49426 7.83655C6.49426 11.9497 6.49426 16.0073 6.49426 20.1204C6.49426 20.3428 6.49426 20.6207 6.49426 20.8986Z" fill="white"/>
<path d="M21.0265 7.67075C20.7071 7.67075 20.3877 7.67075 20.1216 7.67075C17.6729 7.67075 15.2242 7.67075 12.7755 7.67075C11.9238 7.67075 11.1786 7.89309 10.5398 8.5045C9.84779 9.1715 9.58163 10.0052 9.58163 10.9502C9.58163 15.1189 9.58163 19.2876 9.58163 23.4564C9.58163 23.7343 9.58163 23.9566 9.58163 24.2345C8.41053 24.3457 7.55881 23.6231 7.55881 22.4559C7.50558 21.1219 7.55881 19.7879 7.55881 18.4539C7.55881 14.8966 7.61205 11.3948 7.55881 7.8375C7.55881 6.39234 8.46376 5.55859 9.74132 5.55859C12.7755 5.61418 15.8098 5.55859 18.844 5.55859C19.1101 5.55859 19.4295 5.55859 19.6957 5.66976C20.6006 5.78093 21.0797 6.55909 21.0265 7.67075Z" fill="white"/>
</g>
<defs>
<clipPath id="clip0_1459_17635">
<rect width="28" height="28.9032" fill="white"/>
</clipPath>
</defs>
</svg>
