<svg width="34" height="34" viewBox="0 0 34 34" fill="none" xmlns="http://www.w3.org/2000/svg">
<path d="M29.7278 16.4423C29.7278 15.67 29.6496 15.0521 29.7278 14.4343C29.806 14.2026 30.0405 13.8164 30.3532 13.7392C31.213 13.353 31.4475 12.8124 31.3694 11.9628C31.2912 10.2636 31.3694 8.48726 31.2912 6.78812C31.2912 6.47918 31.0567 6.09301 30.8222 5.93855C29.2588 5.01174 27.6953 4.08493 26.1319 3.23536C25.8974 3.15813 25.5847 3.08089 25.4284 3.15813C24.334 3.776 23.2396 4.54834 22.0671 5.24344C23.4741 6.09301 24.803 6.78812 26.2101 7.63769C23.6305 9.10513 21.129 10.4181 18.7057 11.9628C17.3768 12.8124 16.3606 12.8124 15.0317 11.9628C12.6866 10.4181 10.1851 9.10513 7.60547 7.71492C7.83998 7.56046 8.07449 7.40599 8.23083 7.32875C10.8886 5.78408 13.6246 4.2394 16.2824 2.69473C16.6733 2.46302 16.986 2.38579 17.3768 2.69473C17.455 2.77196 17.5332 2.77196 17.6113 2.84919C18.393 3.23536 19.1747 4.0077 19.9564 4.0077C20.7382 4.0077 21.4417 3.15813 22.2234 2.69473C23.0833 2.15409 23.9432 1.61345 24.803 0.995581C25.2721 0.686646 25.7411 0.609412 26.2883 0.918348C28.3989 2.15409 30.5095 3.38983 32.6983 4.54834C33.1673 4.85727 33.4018 5.24344 33.4018 5.78408C33.4018 8.33279 33.4018 10.9587 33.4018 13.5075C33.4018 13.8936 33.1673 14.357 32.8546 14.5887C31.9166 15.2066 30.9003 15.7472 29.7278 16.4423Z" fill="#04AFBA"/>
<path d="M12.1398 3.00392C11.5145 3.39009 10.9673 3.69902 10.4201 3.93072C10.1856 4.00796 9.79472 3.93072 9.63838 3.77626C8.62216 2.84945 7.68411 3.00392 6.58972 3.69902C5.49533 4.47136 4.2446 5.08923 3.07204 5.7071C2.68118 6.01604 2.44667 6.24774 2.44667 6.71114C2.44667 8.64199 2.44667 10.6501 2.44667 12.5809C2.44667 12.8126 2.52484 13.1215 2.75935 13.276C3.77557 13.8939 4.79179 14.4345 5.88618 15.1296C5.88618 13.585 5.88618 12.1175 5.88618 10.5728C7.37143 11.4224 8.70033 12.1175 9.95106 12.8898C11.5145 13.8167 13.0779 14.6662 14.6413 15.593C14.8758 15.7475 15.1103 16.0564 15.1103 16.2109C15.1103 19.532 15.1103 22.9302 15.1103 26.4058C14.7976 26.2513 14.5631 26.1741 14.4068 26.0196C11.749 24.4749 9.09118 23.0075 6.43338 21.4628C5.96435 21.2311 5.80801 20.9222 5.80801 20.3815C5.88618 19.6092 5.88618 18.7596 5.80801 17.9873C5.80801 17.6783 5.5735 17.2922 5.33899 17.2149C4.01008 16.3654 2.60301 15.593 1.19594 14.8207C0.648743 14.4345 0.33606 13.9711 0.414231 13.1988C0.414231 10.8045 0.414231 8.33305 0.414231 5.9388C0.414231 5.2437 0.648743 4.7803 1.27411 4.47136C3.30655 3.31285 5.33899 2.15435 7.29326 0.995839C7.91862 0.686903 8.38765 0.60967 9.01301 0.995839C10.0292 1.69094 11.0455 2.30881 12.1398 3.00392Z" fill="#04AFBA"/>
<path d="M9.08994 24.8605C9.55896 25.0922 9.87164 25.3239 10.1843 25.4012C10.8879 25.7101 11.3569 26.1735 11.2005 27.0231C11.2005 27.2548 11.4351 27.5637 11.5914 27.7182C13.233 28.645 14.8746 29.649 16.5162 30.4986C16.7507 30.6531 17.1415 30.5758 17.376 30.4986C19.0176 29.5718 20.6592 28.645 22.2226 27.7182C22.4571 27.5637 22.6916 27.332 22.6916 27.1003C22.7698 26.0963 22.6916 25.1695 22.6916 24.0109C21.2846 24.7833 20.0338 25.4784 18.6268 26.2507C18.6268 26.019 18.5486 25.8646 18.5486 25.7101C18.5486 22.5435 18.5486 19.3769 18.5486 16.2876C18.5486 16.0559 18.7049 15.6697 18.9394 15.5152C21.7536 13.8933 24.6459 12.2714 27.4601 10.6495C27.5382 10.6495 27.6164 10.5723 27.6946 10.5723C27.6946 10.804 27.7727 11.0357 27.7727 11.2674C27.7727 14.3567 27.7727 17.3688 27.7727 20.4582C27.7727 20.9988 27.6164 21.2305 27.1474 21.5395C26.3657 22.0029 25.1931 22.3118 24.8023 23.0069C24.4114 23.702 24.6459 24.8605 24.6459 25.7873C24.6459 26.4824 24.6459 27.2548 24.6459 27.9499C24.6459 28.4905 24.4114 28.8767 23.9424 29.1856C21.7536 30.4214 19.643 31.6571 17.5324 32.8928C16.9852 33.2018 16.5943 33.2018 16.0471 32.8928C13.9365 31.6571 11.7477 30.4214 9.63713 29.1856C9.32445 29.0311 9.01176 28.5677 8.93359 28.1816C9.01176 27.1003 9.08994 26.019 9.08994 24.8605Z" fill="#04AFBA"/>
</svg>
