<svg width="38" height="38" viewBox="0 0 38 38" fill="none" xmlns="http://www.w3.org/2000/svg">
<path d="M12.6666 20.5827C12.2467 20.5827 11.8439 20.4159 11.547 20.1189C11.2501 19.822 11.0833 19.4193 11.0833 18.9993C11.0833 18.5794 11.2501 18.1767 11.547 17.8798C11.8439 17.5828 12.2467 17.416 12.6666 17.416C13.0865 17.416 13.4892 17.5828 13.7862 17.8798C14.0831 18.1767 14.2499 18.5794 14.2499 18.9993C14.2499 19.4193 14.0831 19.822 13.7862 20.1189C13.4892 20.4159 13.0865 20.5827 12.6666 20.5827Z" fill="#0199A3"/>
<path d="M12.6666 26.9167C12.2467 26.9167 11.8439 26.7499 11.547 26.4529C11.2501 26.156 11.0833 25.7533 11.0833 25.3333C11.0833 24.9134 11.2501 24.5107 11.547 24.2137C11.8439 23.9168 12.2467 23.75 12.6666 23.75C13.0865 23.75 13.4892 23.9168 13.7862 24.2137C14.0831 24.5107 14.2499 24.9134 14.2499 25.3333C14.2499 25.7533 14.0831 26.156 13.7862 26.4529C13.4892 26.7499 13.0865 26.9167 12.6666 26.9167Z" fill="#0199A3"/>
<path d="M17.4167 25.3333C17.4167 25.7533 17.5836 26.156 17.8805 26.4529C18.1774 26.7499 18.5802 26.9167 19.0001 26.9167C19.42 26.9167 19.8227 26.7499 20.1197 26.4529C20.4166 26.156 20.5834 25.7533 20.5834 25.3333C20.5834 24.9134 20.4166 24.5107 20.1197 24.2137C19.8227 23.9168 19.42 23.75 19.0001 23.75C18.5802 23.75 18.1774 23.9168 17.8805 24.2137C17.5836 24.5107 17.4167 24.9134 17.4167 25.3333Z" fill="#0199A3"/>
<path d="M25.3333 26.9167C24.9134 26.9167 24.5107 26.7499 24.2137 26.4529C23.9168 26.156 23.75 25.7533 23.75 25.3333C23.75 24.9134 23.9168 24.5107 24.2137 24.2137C24.5107 23.9168 24.9134 23.75 25.3333 23.75C25.7533 23.75 26.156 23.9168 26.4529 24.2137C26.7499 24.5107 26.9167 24.9134 26.9167 25.3333C26.9167 25.7533 26.7499 26.156 26.4529 26.4529C26.156 26.7499 25.7533 26.9167 25.3333 26.9167Z" fill="#0199A3"/>
<path d="M17.4167 18.9993C17.4167 19.4193 17.5836 19.822 17.8805 20.1189C18.1774 20.4159 18.5802 20.5827 19.0001 20.5827C19.42 20.5827 19.8227 20.4159 20.1197 20.1189C20.4166 19.822 20.5834 19.4193 20.5834 18.9993C20.5834 18.5794 20.4166 18.1767 20.1197 17.8798C19.8227 17.5828 19.42 17.416 19.0001 17.416C18.5802 17.416 18.1774 17.5828 17.8805 17.8798C17.5836 18.1767 17.4167 18.5794 17.4167 18.9993Z" fill="#0199A3"/>
<path d="M25.3333 20.5827C24.9134 20.5827 24.5107 20.4159 24.2137 20.1189C23.9168 19.822 23.75 19.4193 23.75 18.9993C23.75 18.5794 23.9168 18.1767 24.2137 17.8798C24.5107 17.5828 24.9134 17.416 25.3333 17.416C25.7533 17.416 26.156 17.5828 26.4529 17.8798C26.7499 18.1767 26.9167 18.5794 26.9167 18.9993C26.9167 19.4193 26.7499 19.822 26.4529 20.1189C26.156 20.4159 25.7533 20.5827 25.3333 20.5827Z" fill="#0199A3"/>
<path d="M12.6666 11.084C12.2467 11.084 11.8439 11.2508 11.547 11.5477C11.2501 11.8447 11.0833 12.2474 11.0833 12.6673C11.0833 13.0872 11.2501 13.49 11.547 13.7869C11.8439 14.0838 12.2467 14.2507 12.6666 14.2507H25.3333C25.7532 14.2507 26.1559 14.0838 26.4528 13.7869C26.7498 13.49 26.9166 13.0872 26.9166 12.6673C26.9166 12.2474 26.7498 11.8447 26.4528 11.5477C26.1559 11.2508 25.7532 11.084 25.3333 11.084H12.6666Z" fill="#0199A3"/>
<path fill-rule="evenodd" clip-rule="evenodd" d="M9.5 4.75C8.24022 4.75 7.03204 5.25045 6.14124 6.14124C5.25045 7.03204 4.75 8.24022 4.75 9.5V28.5C4.75 29.7598 5.25045 30.968 6.14124 31.8588C7.03204 32.7496 8.24022 33.25 9.5 33.25H28.5C29.7598 33.25 30.968 32.7496 31.8588 31.8588C32.7496 30.968 33.25 29.7598 33.25 28.5V9.5C33.25 8.24022 32.7496 7.03204 31.8588 6.14124C30.968 5.25045 29.7598 4.75 28.5 4.75H9.5ZM28.5 7.91667H9.5C9.08007 7.91667 8.67735 8.08348 8.38041 8.38041C8.08348 8.67735 7.91667 9.08007 7.91667 9.5V28.5C7.91667 28.9199 8.08348 29.3227 8.38041 29.6196C8.67735 29.9165 9.08007 30.0833 9.5 30.0833H28.5C28.9199 30.0833 29.3227 29.9165 29.6196 29.6196C29.9165 29.3227 30.0833 28.9199 30.0833 28.5V9.5C30.0833 9.08007 29.9165 8.67735 29.6196 8.38041C29.3227 8.08348 28.9199 7.91667 28.5 7.91667Z" fill="#0199A3"/>
</svg>
