<svg width="30" height="33" viewBox="0 0 30 33" fill="none" xmlns="http://www.w3.org/2000/svg">
<path d="M29.1628 16.5349C29.1628 20.2326 29.1628 23.9302 29.1628 27.6279C29.1628 30.907 27.0698 33 23.7907 33C17.6512 33 11.5814 33 5.44186 33C2.16279 33 0 30.907 0 27.5581C0 20.1628 0 12.8372 0 5.44186C0 2.16279 2.09302 0 5.37209 0C11.5116 0 17.5814 0 23.7209 0C26.9302 0 29.093 2.16279 29.093 5.37209C29.2326 9.13954 29.1628 12.8372 29.1628 16.5349ZM2.93023 16.5349C2.93023 20.093 2.93023 23.7209 2.93023 27.2791C2.93023 29.3721 3.62791 30.0698 5.72093 30.0698C11.6512 30.0698 17.5814 30.0698 23.5116 30.0698C25.6047 30.0698 26.3721 29.3023 26.3721 27.2093C26.3721 20.0233 26.3721 12.8372 26.3721 5.65116C26.3721 3.76744 25.6047 3 23.6512 3C17.6512 3 11.6512 3 5.65116 3C3.69767 3 3 3.76744 3 5.65116C2.93023 9.2093 2.93023 12.907 2.93023 16.5349Z" fill="#0199A3"/>
<path d="M17.3024 8.16211C18.4885 8.16211 19.6048 8.16211 20.7908 8.16211C21.7676 8.16211 22.3955 8.79002 22.3955 9.62723C22.3955 10.3947 21.7676 11.0923 20.8606 11.0923C18.4885 11.0923 16.1164 11.0923 13.7443 11.0923C12.7676 11.0923 12.1396 10.4644 12.1396 9.62723C12.1396 8.72025 12.7676 8.23188 13.8141 8.16211C15.0001 8.16211 16.1862 8.16211 17.3024 8.16211Z" fill="#0199A3"/>
<path d="M17.3024 24.8365C16.1164 24.8365 15.0001 24.8365 13.8141 24.8365C12.7676 24.8365 12.1396 24.2783 12.1396 23.3714C12.1396 22.5342 12.7676 21.9062 13.7443 21.9062C16.1164 21.9062 18.4885 21.9062 20.8606 21.9062C21.7676 21.9062 22.3955 22.6039 22.3955 23.3714C22.3955 24.2086 21.6978 24.7667 20.7908 24.8365C19.6048 24.8365 18.4885 24.8365 17.3024 24.8365Z" fill="#0199A3"/>
<path d="M17.302 15.0703C18.4881 15.0703 19.6043 15.0703 20.7904 15.0703C21.7671 15.0703 22.395 15.6982 22.395 16.5354C22.395 17.3726 21.7671 18.0005 20.7904 18.0005C18.4881 18.0005 16.1857 18.0005 13.8834 18.0005C12.8369 18.0005 12.209 17.4424 12.209 16.5354C12.209 15.6982 12.8369 15.0703 13.8834 15.0703C14.9997 15.0703 16.1857 15.0703 17.302 15.0703Z" fill="#0199A3"/>
<path d="M8.51231 24.8365C7.53556 24.8365 6.83789 24.2086 6.83789 23.3714C6.83789 22.5342 7.53557 21.9062 8.58208 21.9062C9.55882 21.9062 10.2565 22.5342 10.2565 23.3714C10.2565 24.2783 9.55882 24.8365 8.51231 24.8365Z" fill="#0199A3"/>
<path d="M8.58067 8.16211C9.62718 8.16211 10.2551 8.72025 10.2551 9.62723C10.2551 10.4644 9.55741 11.0923 8.58067 11.0923C7.60392 11.0923 6.90625 10.4644 6.90625 9.62723C6.90625 8.72025 7.53416 8.16211 8.58067 8.16211Z" fill="#0199A3"/>
<path d="M8.58067 17.9302C7.60392 17.9302 6.90625 17.3721 6.90625 16.4651C6.90625 15.6279 7.60392 15 8.58067 15.0697C9.55741 15.0697 10.2551 15.6977 10.2551 16.5349C10.2551 17.3721 9.55741 17.9302 8.58067 17.9302Z" fill="#0199A3"/>
</svg>
