<svg width="28" height="32" viewBox="0 0 28 32" fill="none" xmlns="http://www.w3.org/2000/svg">
<path d="M27.7347 15.6831C27.7347 19.1903 27.7347 22.6975 27.7347 26.2047C27.7347 29.3148 25.7495 31.3 22.6393 31.3C16.8161 31.3 11.059 31.3 5.23574 31.3C2.12559 31.3 0.0742188 29.3148 0.0742188 26.1385C0.0742188 19.1241 0.0742188 12.1759 0.0742188 5.16152C0.0742188 2.05137 2.05942 0 5.16957 0C10.9928 0 16.7499 0 22.5732 0C25.6171 0 27.6685 2.05137 27.6685 5.09535C27.8009 8.66871 27.7347 12.1759 27.7347 15.6831ZM2.8535 15.6831C2.8535 19.0579 2.8535 22.4989 2.8535 25.8738C2.8535 27.859 3.51523 28.5207 5.50043 28.5207C11.1252 28.5207 16.7499 28.5207 22.3746 28.5207C24.3598 28.5207 25.0877 27.7928 25.0877 25.8076C25.0877 18.9918 25.0877 12.1759 25.0877 5.36004C25.0877 3.57336 24.3598 2.84545 22.507 2.84545C16.8161 2.84545 11.1252 2.84545 5.43426 2.84545C3.58141 2.84545 2.91967 3.57336 2.91967 5.36004C2.8535 8.73488 2.8535 12.2421 2.8535 15.6831Z" fill="#586C6D"/>
<path d="M16.4867 7.74219C17.6116 7.74219 18.6704 7.74219 19.7953 7.74219C20.7218 7.74219 21.3173 8.33773 21.3173 9.13178C21.3173 9.85965 20.7218 10.5214 19.8615 10.5214C17.6116 10.5214 15.3617 10.5214 13.1118 10.5214C12.1854 10.5214 11.5898 9.92583 11.5898 9.13178C11.5898 8.27155 12.1854 7.80836 13.178 7.74219C14.3029 7.74219 15.4279 7.74219 16.4867 7.74219Z" fill="#586C6D"/>
<path d="M16.4867 23.5576C15.3617 23.5576 14.303 23.5576 13.178 23.5576C12.1854 23.5576 11.5898 23.0282 11.5898 22.168C11.5898 21.3739 12.1854 20.7783 13.1118 20.7783C15.3617 20.7783 17.6116 20.7783 19.8615 20.7783C20.7218 20.7783 21.3173 21.4401 21.3173 22.168C21.3173 22.962 20.6556 23.4914 19.7953 23.5576C18.6704 23.5576 17.6116 23.5576 16.4867 23.5576Z" fill="#586C6D"/>
<path d="M16.4869 14.2939C17.6119 14.2939 18.6706 14.2939 19.7956 14.2939C20.722 14.2939 21.3176 14.8895 21.3176 15.6836C21.3176 16.4777 20.722 17.0732 19.7956 17.0732C17.6119 17.0732 15.4281 17.0732 13.2444 17.0732C12.2518 17.0732 11.6562 16.5438 11.6562 15.6836C11.6562 14.8895 12.2518 14.2939 13.2444 14.2939C14.3032 14.2939 15.4281 14.2939 16.4869 14.2939Z" fill="#586C6D"/>
<path d="M8.14675 23.5576C7.22033 23.5576 6.55859 22.962 6.55859 22.168C6.55859 21.3739 7.22033 20.7783 8.21293 20.7783C9.13935 20.7783 9.80109 21.3739 9.80109 22.168C9.80109 23.0282 9.13935 23.5576 8.14675 23.5576Z" fill="#586C6D"/>
<path d="M8.21317 7.74219C9.20577 7.74219 9.80133 8.27155 9.80133 9.13178C9.80133 9.92583 9.1396 10.5214 8.21317 10.5214C7.28674 10.5214 6.625 9.92583 6.625 9.13178C6.625 8.27155 7.22056 7.74219 8.21317 7.74219Z" fill="#586C6D"/>
<path d="M8.21316 17.0062C7.28673 17.0062 6.625 16.4768 6.625 15.6166C6.625 14.8225 7.28673 14.2269 8.21316 14.2931C9.13959 14.2931 9.80132 14.8887 9.80132 15.6827C9.80132 16.4768 9.13959 17.0062 8.21316 17.0062Z" fill="#586C6D"/>
</svg>
