<svg width="44" height="43" viewBox="0 0 44 43" fill="none" xmlns="http://www.w3.org/2000/svg">
<g clip-path="url(#clip0_952_5036)">
<path d="M12.7982 29.9346C13.5511 30.2654 14.3039 30.6788 15.0568 31.0096C15.5587 31.175 15.5587 31.4231 15.3077 31.8365C14.8895 32.4981 14.3876 33.2423 13.9693 33.9865C13.802 34.2346 13.6347 34.3173 13.3001 34.2346C10.3724 33.325 7.77922 32.0019 5.26972 30.1827C5.18607 29.9346 5.01877 29.6865 5.01877 29.4385C4.51686 22.6577 6.10622 16.5385 9.95413 10.9154C10.1214 10.75 10.2887 10.5019 10.5397 10.4192C12.5473 9.50962 14.5549 8.93077 16.6461 8.51731C17.0644 8.43462 17.3153 8.51731 17.4826 8.93077C17.5663 9.09616 17.6499 9.26154 17.7336 9.42693C18.0682 10.1712 18.1518 10.1712 18.9883 10.0885C21.1633 9.84039 23.2545 9.84039 25.4294 10.1712C25.764 10.2538 25.9313 10.1712 26.0986 9.84039C26.9351 8.18654 26.5169 8.26923 28.3572 8.76539C30.1138 9.17885 31.7868 9.84039 33.5435 10.4192C33.7944 10.5019 34.0454 10.75 34.2127 10.9981C37.726 16.2077 39.399 21.8308 39.148 28.1154C39.0644 30.2654 39.3153 29.7692 37.5587 30.9269C35.4674 32.3327 33.2089 33.325 30.8667 34.1519C30.4484 34.3173 30.1975 34.2346 30.0302 33.9038C29.6119 33.1596 29.1937 32.4981 28.7754 31.8365C28.5245 31.5058 28.6081 31.2577 29.0264 31.175C29.6119 30.9269 30.1975 30.5962 30.783 30.3481C30.9503 30.2654 31.1176 30.1827 31.2849 30.0173C30.9503 29.6038 30.6994 29.4385 30.1975 29.6865C27.3534 30.9269 24.2583 31.5058 21.1633 31.3404C18.6537 31.2577 16.2279 30.6788 13.8857 29.6865C13.4674 29.3558 13.1328 29.3558 12.7982 29.9346ZM30.783 22.575C30.783 22.3269 30.783 22.1615 30.783 21.9135C30.6157 20.6731 29.6119 19.5154 28.3572 19.2673C27.0188 19.0192 25.8477 19.5981 25.1785 20.8385C24.5093 22.1615 24.5929 23.4846 25.4294 24.725C26.6005 26.2962 28.7754 26.2962 30.0302 24.8077C30.5321 24.2288 30.783 23.4019 30.783 22.575ZM19.4066 22.575C19.4066 22.4096 19.4066 22.3269 19.4066 22.1615C19.3229 20.7558 18.1518 19.4327 16.8971 19.2673C15.3914 19.1019 14.053 19.8462 13.5511 21.4173C13.3838 21.9962 13.3001 22.575 13.3838 23.1538C13.6347 25.2212 15.726 26.5442 17.4826 25.7173C18.821 25.0558 19.3229 23.9808 19.4066 22.575Z" fill="white"/>
</g>
<defs>
<clipPath id="clip0_952_5036">
<rect width="44" height="43" fill="white"/>
</clipPath>
</defs>
</svg>
