<svg width="25" height="27" viewBox="0 0 25 27" fill="none" xmlns="http://www.w3.org/2000/svg">
<path d="M5.8374 14.2256C8.16397 10.5182 10.4905 6.85102 12.8594 3.14355C15.186 6.85102 17.5125 10.5182 19.8814 14.2256C19.7968 14.2659 19.7122 14.3465 19.6276 14.3868C17.4702 15.5958 15.2706 16.845 13.1132 18.054C12.9863 18.1346 12.8594 18.1749 12.6902 18.0943C10.4482 16.845 8.24857 15.5958 6.00661 14.3465C5.922 14.3062 5.8797 14.2659 5.8374 14.2256Z" fill="black"/>
<path d="M12.8598 24.9447C10.5332 21.8014 8.24893 18.7387 5.92236 15.676C5.92236 15.676 5.92236 15.6357 5.96466 15.6357C6.04927 15.676 6.13387 15.7163 6.21847 15.7566C8.33353 16.9656 10.4486 18.1342 12.5636 19.3432C12.8175 19.4641 12.9444 19.4641 13.1982 19.3432C15.3132 18.1342 17.4283 16.9656 19.5433 15.7566C19.6279 15.7163 19.7125 15.676 19.7971 15.676C17.4706 18.7387 15.1863 21.8417 12.8598 24.9447Z" fill="black"/>
</svg>
