<svg width="20" height="33" viewBox="0 0 20 33" fill="none" xmlns="http://www.w3.org/2000/svg">
<path d="M4.13477 17.3861C6.46422 12.8547 8.79368 8.37265 11.1655 3.84131C13.4949 8.37265 15.8244 12.8547 18.1962 17.3861C18.1115 17.4353 18.0268 17.5338 17.9421 17.5831C15.782 19.0607 13.5796 20.5876 11.4196 22.0652C11.2925 22.1637 11.1655 22.213 10.9961 22.1144C8.75132 20.5876 6.54893 19.0607 4.30418 17.5338C4.21947 17.4846 4.17712 17.4353 4.13477 17.3861Z" fill="#04AFBA"/>
<path d="M11.1667 30.488C8.83726 26.6462 6.55016 22.9029 4.2207 19.1596C4.2207 19.1596 4.2207 19.1104 4.26306 19.1104C4.34776 19.1596 4.43247 19.2089 4.51718 19.2581C6.63487 20.7357 8.75255 22.1641 10.8702 23.6417C11.1244 23.7895 11.2514 23.7895 11.5055 23.6417C13.6232 22.1641 15.7409 20.7357 17.8586 19.2581C17.9433 19.2089 18.028 19.1596 18.1127 19.1596C15.7833 22.9029 13.4962 26.6954 11.1667 30.488Z" fill="#04AFBA"/>
</svg>
