<svg width="14" height="24" viewBox="0 0 14 24" fill="none" xmlns="http://www.w3.org/2000/svg">
<path d="M2.66016 12.6447C4.29077 9.34917 5.92139 6.08947 7.58166 2.79395C9.21228 6.08947 10.8429 9.34917 12.5032 12.6447C12.4439 12.6805 12.3846 12.7522 12.3253 12.788C10.8132 13.8626 9.27157 14.9731 7.75955 16.0477C7.6706 16.1193 7.58166 16.1551 7.46307 16.0835C5.89175 14.9731 4.35007 13.8626 2.77875 12.7522C2.71945 12.7163 2.6898 12.6805 2.66016 12.6447Z" fill="black"/>
<path d="M7.58291 22.1731C5.95229 19.379 4.35132 16.6566 2.7207 13.9343C2.7207 13.9343 2.7207 13.8984 2.75035 13.8984C2.80965 13.9343 2.86894 13.9701 2.92824 14.0059C4.41062 15.0805 5.893 16.1193 7.37538 17.194C7.55326 17.3014 7.64221 17.3014 7.82009 17.194C9.30247 16.1193 10.7849 15.0805 12.2672 14.0059C12.3265 13.9701 12.3858 13.9343 12.4451 13.9343C10.8145 16.6566 9.21353 19.4149 7.58291 22.1731Z" fill="black"/>
</svg>
