<svg width="17" height="28" viewBox="0 0 17 28" fill="none" xmlns="http://www.w3.org/2000/svg">
<path d="M0.273438 14.2754C3.00433 9.62605 5.73522 5.02726 8.51576 0.37793C11.2467 5.02726 13.9775 9.62605 16.7581 14.2754C16.6588 14.3259 16.5595 14.427 16.4602 14.4775C13.9279 15.9936 11.346 17.5602 8.81368 19.0763C8.66472 19.1774 8.51576 19.2279 8.31715 19.1268C5.68557 17.5602 3.10363 15.9936 0.472048 14.427C0.372742 14.3764 0.32309 14.3259 0.273438 14.2754Z" fill="#CDCDCD"/>
<path d="M8.51411 27.7178C5.78322 23.776 3.10198 19.9352 0.371094 16.0945C0.371094 16.0945 0.371094 16.0439 0.420746 16.0439C0.520052 16.0945 0.619356 16.145 0.718661 16.1956C3.20129 17.7116 5.68392 19.1772 8.16654 20.6933C8.46446 20.8449 8.61342 20.8449 8.91133 20.6933C11.394 19.1772 13.8766 17.7116 16.3592 16.1956C16.4585 16.145 16.5578 16.0945 16.6571 16.0945C13.9262 19.9352 11.245 23.8265 8.51411 27.7178Z" fill="#CDCDCD"/>
</svg>
