<svg width="28" height="26" viewBox="0 0 28 26" fill="none" xmlns="http://www.w3.org/2000/svg">
<path d="M24.9772 15.4618C24.9772 16.2695 24.9772 17.0771 24.9772 17.8848C24.9772 18.4041 24.8631 18.8079 24.3498 19.0387C23.8365 19.2695 23.3803 19.1541 22.981 18.6925C22.0685 17.7695 21.1559 16.9041 20.3004 15.981C19.9582 15.6348 19.616 15.4618 19.1597 15.4618C16.1369 15.4618 13.0571 15.4618 10.0342 15.4618C9.40687 15.4618 8.7795 15.3464 8.20915 15.0002C7.35364 14.4233 6.84033 13.6156 6.84033 12.5771C6.84033 9.51946 6.84033 6.46176 6.84033 3.40407C6.84033 1.84638 8.09508 0.577148 9.69204 0.577148C14.597 0.577148 19.559 0.577148 24.4639 0.577148C25.8898 0.577148 27.0304 1.61561 27.2015 3.00023C27.2586 3.28869 27.2586 3.63484 27.2586 3.9233C27.2586 6.63484 27.2586 9.28869 27.2586 12.0002C27.3156 13.9041 26.7453 14.7695 24.9772 15.4618ZM16.7643 10.0387C16.8784 10.0387 16.9924 10.0387 17.1065 10.0387C17.5628 10.0964 17.7909 9.9233 17.962 9.46176C18.019 9.1733 18.3612 8.88484 18.5894 8.65407C18.8175 8.4233 19.1597 8.30792 19.3879 8.07715C20.6996 6.75023 20.3574 4.50023 18.6464 3.75023C17.5057 3.23099 16.308 3.28869 15.1673 3.80792C14.597 4.09638 14.1977 4.55792 14.0266 5.19253C13.8555 5.88484 13.9696 6.05792 14.654 6.05792C14.8822 6.05792 15.0533 6.05792 15.2814 6.05792C15.6236 6.05792 15.9088 5.94253 16.0799 5.59638C16.365 5.07715 16.7643 4.90407 17.3346 5.07715C17.7909 5.19253 18.0761 5.59638 18.0761 6.1733C18.0761 6.86561 17.7339 7.38484 17.2206 7.78869C16.8213 8.13484 16.365 8.48099 16.0799 8.88484C15.9088 9.11561 15.8517 9.57715 15.9088 9.86561C15.9088 9.98099 16.4221 10.0387 16.7073 10.0964C16.6502 10.0387 16.7073 10.0387 16.7643 10.0387ZM16.8213 11.0195C16.6502 11.0195 16.4791 11.0195 16.308 11.0195C15.9658 11.0195 15.7377 11.1925 15.7377 11.5387C15.7377 11.7695 15.7377 11.9425 15.7377 12.1733C15.7947 12.5771 16.0228 12.6925 16.365 12.6925C16.8784 12.6348 17.4487 12.981 17.7909 12.3464V12.2887C17.7909 12.0579 17.8479 11.7695 17.7909 11.5387C17.7339 11.3656 17.5628 11.1925 17.3346 11.0771C17.2206 10.9618 16.9924 11.0195 16.8213 11.0195Z" fill="#04AFBA"/>
<path d="M2.56282 21.923C2.33468 21.8076 2.16358 21.8076 2.04951 21.6922C0.908829 21.173 0.281452 20.3076 0.281452 19.0383C0.281452 16.0383 0.224418 12.9806 0.281452 9.92295C0.281452 8.36526 1.3651 7.21141 2.90503 7.03834C3.5324 6.98064 4.21681 7.03834 4.90122 7.03834C4.90122 7.73064 4.90122 8.36526 4.90122 9.11526C4.38792 9.11526 3.87461 9.11526 3.3613 9.11526C2.61986 9.11526 2.27765 9.40372 2.27765 10.2114C2.27765 13.0383 2.27765 15.8653 2.27765 18.7499C2.27765 19.5576 2.56282 19.846 3.3613 19.9037C3.76054 19.9037 4.15978 19.9037 4.61605 19.9037C4.61605 20.6537 4.61605 21.346 4.61605 21.9806C4.67309 21.9806 4.73012 22.0383 4.73012 22.0383C5.12936 21.6345 5.5286 21.2883 5.87081 20.8845C6.49818 20.0768 7.29666 19.846 8.26624 19.846C11.232 19.9037 14.1408 19.846 17.1065 19.846C17.3347 19.846 17.5058 19.846 17.7339 19.846C18.3043 19.7883 18.5894 19.4422 18.6465 18.8653C18.6465 18.4037 18.6465 17.9422 18.6465 17.3076C18.8746 17.4806 19.0457 17.5383 19.1598 17.6537C19.559 17.9999 19.9012 18.4614 20.3005 18.8076C20.5856 19.096 20.6427 19.3268 20.5286 19.673C20.1864 20.9999 19.0457 21.8653 17.6199 21.8653C14.597 21.8653 11.5172 21.8653 8.49438 21.8653C7.92404 21.8653 7.46776 22.0383 7.06852 22.4422C6.27005 23.3076 5.41453 24.1153 4.61605 24.9806C4.21681 25.4422 3.76054 25.7883 3.13316 25.4999C2.61986 25.2691 2.50579 24.6922 2.56282 24.1153C2.56282 23.423 2.56282 22.673 2.56282 21.923Z" fill="#04AFBA"/>
</svg>
