<svg width="20" height="17" viewBox="0 0 20 17" fill="none" xmlns="http://www.w3.org/2000/svg">
<path d="M10 16.9996C8.90001 15.8996 7.90001 14.8996 6.80001 13.7996C5.20001 12.1996 3.70001 10.6996 2.20001 9.19962C-0.199988 6.79962 0.500012 2.79962 3.60001 1.39962C5.40001 0.599617 7.10001 0.899616 8.60001 2.09962C9.10001 2.49962 9.50001 3.09962 10 3.59962C10.5 3.09962 10.8 2.69962 11.2 2.39962C12.6 1.09962 14.2 0.699617 16 1.19962C17.8 1.69962 18.9 2.89962 19.3 4.79962C19.7 6.39962 19.3 7.89962 18.1 9.09962C15.4 11.6996 12.7 14.2996 10 16.9996ZM9.90001 5.79962C9.80001 5.69962 9.70001 5.49962 9.60001 5.39962C9.00001 4.79962 8.30001 4.09962 7.60001 3.39962C6.60001 2.49962 5.50001 2.29962 4.30001 2.69962C4.00001 2.89962 3.80001 2.99962 3.70001 3.09962C3.70001 3.09962 3.30001 3.39962 3.00001 3.69962C2.50001 4.29962 2.10001 5.29962 2.30001 6.19962C2.40001 6.89962 2.70001 7.49962 3.20001 7.99962C5.40001 10.1996 7.60001 12.3996 9.80001 14.5996C9.80001 14.5996 9.90001 14.6996 10 14.6996C12.3 12.3996 14.7 10.1996 17 7.69962C18.3 6.39962 17.9 4.19962 16.4 3.09962C15.1 2.19962 13.5 2.29962 12.3 3.39962C11.5 4.19962 10.7 4.99962 9.90001 5.79962Z" fill="#06B3B7"/>
<path d="M5.7999 10.8996C8.22996 10.8996 10.1999 8.92966 10.1999 6.49961C10.1999 4.06956 8.22996 2.09961 5.7999 2.09961C3.36985 2.09961 1.3999 4.06956 1.3999 6.49961C1.3999 8.92966 3.36985 10.8996 5.7999 10.8996Z" fill="#06B3B7"/>
<path d="M14.1 10.8996C16.53 10.8996 18.5 8.92966 18.5 6.49961C18.5 4.06956 16.53 2.09961 14.1 2.09961C11.6699 2.09961 9.69995 4.06956 9.69995 6.49961C9.69995 8.92966 11.6699 10.8996 14.1 10.8996Z" fill="#06B3B7"/>
<path d="M9.9 14.9992C12.3301 14.9992 14.3 13.0293 14.3 10.5992C14.3 8.16917 12.3301 6.19922 9.9 6.19922C7.46995 6.19922 5.5 8.16917 5.5 10.5992C5.5 13.0293 7.46995 14.9992 9.9 14.9992Z" fill="#06B3B7"/>
</svg>
