<svg width="44" height="43" viewBox="0 0 44 43" fill="none" xmlns="http://www.w3.org/2000/svg">
<g clip-path="url(#clip0_333:5714)">
<path d="M12.7992 29.9344C13.5521 30.2651 14.3049 30.6786 15.0578 31.0094C15.5597 31.1748 15.5597 31.4228 15.3087 31.8363C14.8905 32.4978 14.3886 33.2421 13.9703 33.9863C13.803 34.2344 13.6357 34.3171 13.3011 34.2344C10.3734 33.3248 7.7802 32.0017 5.27069 30.1825C5.18704 29.9344 5.01974 29.6863 5.01974 29.4382C4.51784 22.6575 6.1072 16.5382 9.9551 10.9151C10.1224 10.7498 10.2897 10.5017 10.5407 10.419C12.5483 9.50938 14.5559 8.93053 16.6471 8.51707C17.0654 8.43438 17.3163 8.51707 17.4836 8.93053C17.5673 9.09591 17.6509 9.2613 17.7346 9.42668C18.0692 10.1709 18.1528 10.1709 18.9893 10.0882C21.1642 9.84014 23.2555 9.84014 25.4304 10.1709C25.765 10.2536 25.9323 10.1709 26.0996 9.84014C26.9361 8.1863 26.5178 8.26899 28.3582 8.76514C30.1148 9.17861 31.7878 9.84014 33.5445 10.419C33.7954 10.5017 34.0464 10.7498 34.2137 10.9978C37.727 16.2075 39.4 21.8305 39.149 28.1151C39.0654 30.2651 39.3163 29.769 37.5597 30.9267C35.4684 32.3325 33.2099 33.3248 30.8677 34.1517C30.4494 34.3171 30.1985 34.2344 30.0312 33.9036C29.6129 33.1594 29.1947 32.4978 28.7764 31.8363C28.5254 31.5055 28.6091 31.2575 29.0274 31.1748C29.6129 30.9267 30.1985 30.5959 30.784 30.3478C30.9513 30.2651 31.1186 30.1825 31.2859 30.0171C30.9513 29.6036 30.7004 29.4382 30.1985 29.6863C27.3543 30.9267 24.2593 31.5055 21.1642 31.3401C18.6547 31.2575 16.2289 30.6786 13.8867 29.6863C13.4684 29.3555 13.1338 29.3555 12.7992 29.9344ZM30.784 22.5748C30.784 22.3267 30.784 22.1613 30.784 21.9132C30.6167 20.6728 29.6129 19.5151 28.3582 19.2671C27.0197 19.019 25.8486 19.5978 25.1794 20.8382C24.5102 22.1613 24.5939 23.4844 25.4304 24.7248C26.6015 26.2959 28.7764 26.2959 30.0312 24.8075C30.5331 24.2286 30.784 23.4017 30.784 22.5748ZM19.4076 22.5748C19.4076 22.4094 19.4076 22.3267 19.4076 22.1613C19.3239 20.7555 18.1528 19.4325 16.8981 19.2671C15.3924 19.1017 14.054 19.8459 13.5521 21.4171C13.3848 21.9959 13.3011 22.5748 13.3848 23.1536C13.6357 25.2209 15.727 26.544 17.4836 25.7171C18.822 25.0555 19.3239 23.9805 19.4076 22.5748Z" fill="white"/>
</g>
<defs>
<clipPath id="clip0_333:5714">
<rect width="44" height="43" fill="white"/>
</clipPath>
</defs>
</svg>
