<svg width="28" height="28" viewBox="0 0 28 28" fill="none" xmlns="http://www.w3.org/2000/svg">
<path d="M25.8777 28C17.9364 28 10.0636 28 2.12225 28C1.43765 27.7951 0.821516 27.522 0.479217 26.9756C0.273838 26.6341 0.136919 26.2927 0 25.9512C0 18.0293 0 10.039 0 2.11707C0 2.11707 0.0684596 2.11707 0.0684596 2.04878C0.547677 0.614634 1.36919 0 2.87531 0C10.3374 0 17.7995 0 25.2616 0C26.9731 0 28 1.02439 28 2.73171C28 5.66829 28 8.53658 28 11.4732C28 16.0488 28 20.6927 28 25.2683C28 26.2927 27.5892 27.0439 26.6993 27.5902C26.4939 27.7951 26.22 27.8634 25.8777 28ZM17.868 7.64878C17.4572 7.64878 16.978 7.64878 16.5672 7.64878C15.8142 7.64878 15.335 8.19512 15.2665 8.87805C15.2665 9.69756 15.2665 10.5854 15.2665 11.4049C15.2665 12.1561 15.8142 12.7024 16.5672 12.7024C17.3888 12.7024 18.2103 12.7024 19.1002 12.7024C19.8533 12.7024 20.401 12.1561 20.401 11.4049C20.401 10.5854 20.401 9.69756 20.401 8.87805C20.401 8.19512 19.8533 7.64878 19.1002 7.64878C18.6895 7.64878 18.2787 7.64878 17.868 7.64878ZM10.2005 20.3512C10.6112 20.3512 11.022 20.3512 11.4328 20.3512C12.1858 20.3512 12.7335 19.8049 12.7335 19.0537C12.7335 18.2341 12.7335 17.4146 12.7335 16.5268C12.7335 15.7756 12.1858 15.2293 11.4328 15.2293C10.6112 15.2293 9.78973 15.2293 8.89975 15.2293C8.1467 15.2293 7.59902 15.7756 7.59902 16.5268C7.59902 17.3463 7.59902 18.2341 7.59902 19.0537C7.59902 19.7366 8.1467 20.2829 8.8313 20.3512C9.37897 20.3512 9.78973 20.3512 10.2005 20.3512ZM17.868 15.2976C17.4572 15.2976 17.0465 15.2976 16.6357 15.2976C15.8142 15.2976 15.335 15.8439 15.2665 16.5951C15.2665 17.4146 15.2665 18.2341 15.2665 19.0537C15.2665 19.8049 15.8142 20.3512 16.5672 20.3512C17.3888 20.3512 18.2103 20.3512 19.1002 20.3512C19.8533 20.3512 20.401 19.8049 20.401 19.0537C20.401 18.2341 20.401 17.4146 20.401 16.5268C20.401 15.7756 19.8533 15.2293 19.1002 15.2293C18.6895 15.2976 18.2787 15.2976 17.868 15.2976ZM10.2005 7.64878C9.78973 7.64878 9.37897 7.64878 8.89975 7.64878C8.1467 7.64878 7.59902 8.19512 7.59902 8.94634C7.59902 9.76585 7.59902 10.6537 7.59902 11.4732C7.59902 12.1561 8.1467 12.7024 8.8313 12.7024C9.65281 12.7024 10.5428 12.7024 11.3643 12.7024C12.1174 12.7024 12.5966 12.1561 12.665 11.4732C12.665 10.5854 12.665 9.76585 12.665 8.87805C12.665 8.19512 12.1174 7.64878 11.4328 7.64878C11.0905 7.64878 10.6797 7.64878 10.2005 7.64878Z" fill="#04AFBA"/>
</svg>
