<svg width="90" height="59" viewBox="0 0 90 59" fill="none" xmlns="http://www.w3.org/2000/svg">
<path d="M71.0966 21.1319C71.0966 16.1355 69.3163 11.8645 65.7559 8.31868C62.1954 4.77289 57.9067 3 52.8897 3H37.7172C32.7002 3 28.4115 4.77289 24.851 8.31868C21.2906 11.8645 19.5103 16.1355 19.5103 21.1319V36.4835C19.4497 41.3791 17.6694 45.5696 14.1697 49.055C10.6092 52.6007 6.32046 54.3736 1.30345 54.3736H1V58.0302H89.1517V54.3736C84.1954 54.3333 79.9572 52.5604 76.4372 49.055C72.9375 45.5696 71.1572 41.3791 71.0966 36.4835C71.0966 36.4029 71.0966 36.3223 71.0966 36.2418V21.1319Z" fill="#04AFBA"/>
<path d="M56.8777 38C48.9364 38 41.0636 38 33.1222 38C32.4377 37.7951 31.8215 37.522 31.4792 36.9756C31.2738 36.6341 31.1369 36.2927 31 35.9512C31 28.0293 31 20.039 31 12.1171C31 12.1171 31.0685 12.1171 31.0685 12.0488C31.5477 10.6146 32.3692 10 33.8753 10C41.3374 10 48.7995 10 56.2616 10C57.9731 10 59 11.0244 59 12.7317C59 15.6683 59 18.5366 59 21.4732C59 26.0488 59 30.6927 59 35.2683C59 36.2927 58.5892 37.0439 57.6993 37.5902C57.4939 37.7951 57.22 37.8634 56.8777 38ZM48.868 17.6488C48.4572 17.6488 47.978 17.6488 47.5672 17.6488C46.8142 17.6488 46.335 18.1951 46.2665 18.878C46.2665 19.6976 46.2665 20.5854 46.2665 21.4049C46.2665 22.1561 46.8142 22.7024 47.5672 22.7024C48.3888 22.7024 49.2103 22.7024 50.1002 22.7024C50.8533 22.7024 51.401 22.1561 51.401 21.4049C51.401 20.5854 51.401 19.6976 51.401 18.878C51.401 18.1951 50.8533 17.6488 50.1002 17.6488C49.6895 17.6488 49.2787 17.6488 48.868 17.6488ZM41.2005 30.3512C41.6112 30.3512 42.022 30.3512 42.4328 30.3512C43.1858 30.3512 43.7335 29.8049 43.7335 29.0537C43.7335 28.2341 43.7335 27.4146 43.7335 26.5268C43.7335 25.7756 43.1858 25.2293 42.4328 25.2293C41.6112 25.2293 40.7897 25.2293 39.8998 25.2293C39.1467 25.2293 38.599 25.7756 38.599 26.5268C38.599 27.3463 38.599 28.2341 38.599 29.0537C38.599 29.7366 39.1467 30.2829 39.8313 30.3512C40.379 30.3512 40.7897 30.3512 41.2005 30.3512ZM48.868 25.2976C48.4572 25.2976 48.0465 25.2976 47.6357 25.2976C46.8142 25.2976 46.335 25.8439 46.2665 26.5951C46.2665 27.4146 46.2665 28.2341 46.2665 29.0537C46.2665 29.8049 46.8142 30.3512 47.5672 30.3512C48.3888 30.3512 49.2103 30.3512 50.1002 30.3512C50.8533 30.3512 51.401 29.8049 51.401 29.0537C51.401 28.2341 51.401 27.4146 51.401 26.5268C51.401 25.7756 50.8533 25.2293 50.1002 25.2293C49.6895 25.2976 49.2787 25.2976 48.868 25.2976ZM41.2005 17.6488C40.7897 17.6488 40.379 17.6488 39.8998 17.6488C39.1467 17.6488 38.599 18.1951 38.599 18.9463C38.599 19.7659 38.599 20.6537 38.599 21.4732C38.599 22.1561 39.1467 22.7024 39.8313 22.7024C40.6528 22.7024 41.5428 22.7024 42.3643 22.7024C43.1174 22.7024 43.5966 22.1561 43.665 21.4732C43.665 20.5854 43.665 19.7659 43.665 18.878C43.665 18.1951 43.1174 17.6488 42.4328 17.6488C42.0905 17.6488 41.6797 17.6488 41.2005 17.6488Z" fill="white"/>
</svg>
