<svg width="25" height="25" viewBox="0 0 25 25" fill="none" xmlns="http://www.w3.org/2000/svg">
<g clip-path="url(#clip0_111:14893)">
<path d="M12.2136 21.923C11.0729 20.7692 9.97974 19.6634 8.83906 18.5095C7.22309 16.8749 5.65465 15.2884 4.03868 13.6538C1.5672 11.1057 2.28012 6.923 5.51206 5.4807C7.36568 4.66339 9.17176 4.90377 10.7402 6.24993C11.263 6.68262 11.6432 7.25954 12.1661 7.83646C12.6413 7.30762 12.974 6.923 13.4018 6.53839C14.8277 5.19223 16.4912 4.71147 18.3448 5.28839C20.1984 5.81723 21.3866 7.11531 21.8143 9.03839C22.1946 10.7211 21.7668 12.2595 20.5786 13.5095C17.8695 16.3461 15.0653 19.0865 12.3086 21.8749C12.2611 21.8749 12.2611 21.923 12.2136 21.923ZM12.1661 10.1442C12.0235 9.95185 11.9759 9.80762 11.8334 9.66339C11.168 8.99031 10.5026 8.26916 9.78963 7.59608C8.79153 6.68262 7.60332 6.39416 6.36758 6.87493C4.08621 7.74031 3.46834 10.6249 5.17936 12.4038C7.46073 14.7115 9.7421 17.0192 12.0235 19.3268C12.071 19.3749 12.1661 19.423 12.2136 19.4711C14.6375 17.0672 17.109 14.7115 19.4854 12.1634C20.8162 10.7692 20.436 8.46146 18.8676 7.30762C17.5368 6.34608 15.8258 6.49031 14.59 7.64416C13.782 8.46146 13.0216 9.27877 12.1661 10.1442Z" fill="#3E3E3E"/>
</g>
<defs>
<clipPath id="clip0_111:14893">
<rect width="25" height="25" fill="white"/>
</clipPath>
</defs>
</svg>
