<svg width="41" height="40" viewBox="0 0 41 40" fill="none" xmlns="http://www.w3.org/2000/svg">
<path d="M8.80799 12.3845C6.54754 12.3845 4.75476 10.6152 4.75476 8.38448C4.75476 6.15371 6.54754 4.38448 8.80799 4.4614C10.9905 4.4614 12.7833 6.23063 12.7833 8.38448C12.7833 10.6152 10.9905 12.3845 8.80799 12.3845Z" fill="#04AFBA"/>
<path d="M20.8118 12.3845C18.5514 12.3845 16.7586 10.6153 16.8365 8.3845C16.8365 6.15373 18.7072 4.46143 20.8898 4.46143C23.0723 4.46143 24.865 6.23066 24.865 8.3845C24.865 10.6153 22.9943 12.3845 20.8118 12.3845Z" fill="#04AFBA"/>
<path d="M32.8935 12.3845C30.6331 12.3845 28.8403 10.6153 28.9183 8.3845C28.9183 6.15373 30.789 4.46143 32.9715 4.46143C35.154 4.46143 36.9468 6.23066 36.9468 8.3845C36.8688 10.6153 35.076 12.3845 32.8935 12.3845Z" fill="#04AFBA"/>
<path d="M8.80799 24.3073C6.54754 24.3073 4.75476 22.5381 4.75476 20.3073C4.75476 18.0766 6.54754 16.3073 8.80799 16.3843C10.9905 16.3843 12.7833 18.1535 12.7833 20.3073C12.7833 22.4612 10.9905 24.3073 8.80799 24.3073Z" fill="#04AFBA"/>
<path d="M20.8118 24.3073C18.5514 24.3073 16.7586 22.5381 16.7586 20.3073C16.7586 18.0766 18.5514 16.3073 20.8118 16.3843C22.9943 16.3843 24.7871 18.1535 24.7871 20.3073C24.865 22.4612 23.0723 24.3073 20.8118 24.3073Z" fill="#04AFBA"/>
<path d="M32.8935 24.3073C30.6331 24.3073 28.8403 22.5381 28.8403 20.3073C28.8403 18.0766 30.6331 16.3073 32.8935 16.3843C35.076 16.3843 36.8688 18.1535 36.8688 20.3073C36.9468 22.4612 35.076 24.3073 32.8935 24.3073Z" fill="#04AFBA"/>
<path d="M12.7833 32.2307C12.7833 34.4614 10.9905 36.2307 8.73005 36.2307C6.54754 36.2307 4.75476 34.4614 4.75476 32.3076C4.75476 30.0768 6.46959 28.3076 8.73005 28.3076C10.9905 28.2307 12.7833 29.9999 12.7833 32.2307Z" fill="#04AFBA"/>
<path d="M24.865 32.2305C24.865 34.3843 22.9943 36.1535 20.7339 36.1535C18.4734 36.0766 16.7586 34.3074 16.7586 32.0766C16.8365 29.9228 18.6293 28.2305 20.8118 28.2305C23.0723 28.2305 24.865 30.0766 24.865 32.2305Z" fill="#04AFBA"/>
<path d="M32.8156 36.1535C30.5551 36.0766 28.8403 34.3074 28.9183 32.0766C28.9962 29.9228 30.8669 28.1535 33.0494 28.2304C35.232 28.3074 36.9468 30.0766 36.9468 32.2304C36.8688 34.4612 34.9981 36.2304 32.8156 36.1535Z" fill="#04AFBA"/>
</svg>
