<svg width="37" height="36" viewBox="0 0 37 36" fill="none" xmlns="http://www.w3.org/2000/svg">
<path d="M36.2073 17.923C36.2073 27.6153 28.1787 35.5384 18.4354 35.5384C8.38026 35.5384 0.429688 27.6922 0.429688 17.8461C0.429688 8.15377 8.45821 0.307617 18.3574 0.307617C28.1787 0.307617 36.2073 8.15377 36.2073 17.923ZM2.69014 17.923C2.69014 26.5384 9.62741 33.2307 18.0457 33.3845C26.7757 33.5384 33.9468 26.6922 34.0247 18.1538C34.1027 9.46146 27.1654 2.53839 18.4354 2.46146C9.70535 2.46146 2.69014 9.30762 2.69014 17.923Z" fill="#586C6D"/>
<path d="M20.9293 24.231C21.2411 23.9233 21.5529 23.6925 21.8647 23.3848C22.0985 23.1541 22.3324 23.0771 22.5662 23.231C22.8001 23.3848 22.878 23.6156 22.878 23.8464C22.5662 25.4618 20.7734 27.8464 18.7468 28.231C17.1879 28.5387 15.7069 27.3848 15.7069 25.7694C15.7069 23.3848 15.7069 21.0002 15.7069 18.6156C15.7069 18.4618 15.7069 18.3079 15.7069 18.0771C15.551 18.231 15.3951 18.3079 15.2392 18.3848C15.0054 18.5387 14.8495 18.6925 14.6936 18.9233C14.4597 19.1541 14.2259 19.231 13.9141 19.0771C13.6023 18.9233 13.5244 18.6925 13.6023 18.3848C13.6803 18.0771 13.7582 17.7694 13.9141 17.4618C14.5377 16.1541 15.3951 15.0771 16.7202 14.3848C18.2012 13.6156 19.7601 14.0002 20.4616 15.3079C20.6955 15.6925 20.7734 16.231 20.7734 16.6925C20.7734 19.0002 20.7734 21.3079 20.7734 23.6156C20.7734 23.7694 20.7734 23.9233 20.7734 24.0771C20.9293 24.1541 20.9293 24.1541 20.9293 24.231Z" fill="#586C6D"/>
<path d="M14.9297 10.1535C14.9297 8.69193 16.1768 7.53809 17.6578 7.53809C19.1388 7.53809 20.386 8.76886 20.386 10.2304C20.386 11.6919 19.1388 12.8458 17.6578 12.8458C16.0989 12.8458 14.9297 11.615 14.9297 10.1535Z" fill="#586C6D"/>
</svg>
