<svg width="34" height="34" viewBox="0 0 34 34" fill="none" xmlns="http://www.w3.org/2000/svg">
<path d="M16.8707 31.8424C14.8023 31.8424 12.7985 31.8424 10.7301 31.8424C6.1407 31.8424 2.65021 28.3116 2.58557 23.6693C2.58557 19.4847 2.58557 15.3001 2.58557 11.1808C2.58557 6.53854 6.07607 3.00777 10.6654 2.94238C14.8023 2.94238 18.9392 2.94238 23.0114 2.94238C27.6008 2.94238 31.0913 6.47315 31.1559 11.1155C31.1559 15.3001 31.1559 19.4847 31.1559 23.6039C31.1559 28.2462 27.6654 31.777 23.0761 31.8424C21.0723 31.8424 19.0038 31.8424 16.8707 31.8424ZM23.7871 17.327C23.7871 13.4693 20.6844 10.3962 16.9354 10.3962C13.1217 10.3962 10.0837 13.5347 10.0837 17.327C10.0837 21.1847 13.1863 24.2578 16.9354 24.2578C20.7491 24.2578 23.7871 21.1847 23.7871 17.327ZM26.0494 9.80777C26.0494 8.827 25.2091 8.10777 24.3042 8.10777C23.3993 8.10777 22.6236 8.89238 22.6236 9.80777C22.6236 10.7885 23.3993 11.5732 24.3688 11.5732C25.3384 11.5732 26.1141 10.7885 26.0494 9.80777Z" fill="white"/>
<path d="M21.5247 17.3271C21.5247 19.8771 19.5209 21.9694 16.9353 21.9694C14.4144 21.9694 12.3459 19.8771 12.3459 17.3271C12.3459 14.7771 14.3497 12.7502 16.8707 12.6848C19.3916 12.6848 21.46 14.7771 21.5247 17.3271Z" fill="white"/>
</svg>
