<svg width="22" height="22" viewBox="0 0 22 22" fill="none" xmlns="http://www.w3.org/2000/svg">
<path d="M10.7414 19.5772C10.7414 19.808 10.7414 20.0388 10.7414 20.2695C10.7414 21.0195 10.2281 21.4234 9.48667 21.308C6.97716 20.7888 4.41062 20.2695 1.90112 19.7503C1.55891 19.6926 1.21671 19.6349 0.874502 19.5195C0.418228 19.4618 0.133057 19.1157 0.133057 18.5965C0.133057 17.7311 0.133057 16.8657 0.133057 16.0003C0.133057 11.0388 0.133057 6.07722 0.133057 1.11569C0.133057 1.0003 0.133057 0.827223 0.190091 0.711839C0.361194 0.2503 0.703399 0.0195312 1.15967 0.0195312C2.47146 0.0195312 3.84028 0.0195312 5.15207 0.0195312C8.40302 0.0195312 11.654 0.0195312 14.9049 0.0195312C15.5893 0.0195312 15.9886 0.423378 15.9886 1.11569C15.9886 2.84645 15.9886 4.57722 15.9886 6.30799C15.9886 6.71184 15.8175 7.0003 15.4753 7.17338C15.1331 7.34645 14.7909 7.34645 14.5057 7.11568C14.2205 6.94261 14.1064 6.65415 14.1064 6.30799C14.1064 4.92338 14.1064 3.59645 14.1064 2.21184C14.1064 2.15415 14.1064 2.09645 14.1064 1.98107C11.9391 1.98107 9.82888 1.98107 7.66157 1.98107C7.71861 2.03876 7.77564 2.03876 7.77564 2.03876C8.51709 2.26953 9.25853 2.5003 9.99998 2.73107C10.5703 2.90415 10.7985 3.19261 10.7985 3.82722C10.7985 8.38492 10.7985 12.9426 10.7985 17.5003C10.7985 17.6157 10.7985 17.6734 10.7985 17.7888C11.9391 17.7888 13.0228 17.7888 14.1064 17.7888C14.1064 17.7311 14.1064 17.6734 14.1064 17.558C14.1064 16.1734 14.1064 14.8465 14.1064 13.4618C14.1064 12.7118 14.8479 12.2503 15.4753 12.5965C15.8175 12.7695 15.9886 13.058 15.9886 13.4041C15.9886 15.1926 15.9886 16.9811 15.9886 18.7695C15.9886 19.2888 15.5323 19.6926 15.019 19.6926C13.7072 19.6926 12.3384 19.6926 11.0266 19.6926C10.9125 19.5772 10.8555 19.5772 10.7414 19.5772Z" fill="#04AFBA"/>
<path d="M17.9278 10.7508C17.8708 10.7508 17.8137 10.7508 17.7567 10.7508C16.2738 10.7508 14.848 10.7508 13.3651 10.7508C12.9658 10.7508 12.6807 10.5778 12.4525 10.2316C12.2814 9.88544 12.2814 9.53929 12.5096 9.25083C12.7377 8.96237 13.0229 8.84698 13.3651 8.84698C14.848 8.84698 16.2738 8.84698 17.7567 8.84698C17.8137 8.84698 17.8708 8.84698 17.9278 8.84698C17.8708 8.78929 17.8708 8.7316 17.8137 8.7316C17.5286 8.44313 17.2434 8.15467 16.9582 7.86621C16.559 7.46236 16.559 6.88544 16.9582 6.4816C17.3575 6.07775 17.9278 6.07775 18.3271 6.4816C19.1826 7.34698 20.0381 8.21237 20.8936 9.07775C21.2928 9.4816 21.2928 10.0585 20.8936 10.5201C20.0381 11.3854 19.1826 12.2508 18.3271 13.1162C17.9278 13.5201 17.3575 13.5201 16.9582 13.1162C16.559 12.7124 16.616 12.1354 16.9582 11.7316C17.3004 11.4431 17.6426 11.097 17.9278 10.7508C17.9278 10.8085 17.9278 10.8085 17.9278 10.7508Z" fill="#04AFBA"/>
</svg>
