<svg width="30" height="30" viewBox="0 0 30 30" fill="none" xmlns="http://www.w3.org/2000/svg">
<g clip-path="url(#clip0_941_4416)">
<path d="M15.7417 24.5772C15.7417 24.808 15.7417 25.0388 15.7417 25.2695C15.7417 26.0195 15.2284 26.4234 14.4869 26.308C11.9774 25.7888 9.41087 25.2695 6.90136 24.7503C6.55916 24.6926 6.21695 24.6349 5.87475 24.5195C5.41847 24.4618 5.1333 24.1157 5.1333 23.5965C5.1333 22.7311 5.1333 21.8657 5.1333 21.0003C5.1333 16.0388 5.1333 11.0772 5.1333 6.11569C5.1333 6.0003 5.1333 5.82722 5.19034 5.71184C5.36144 5.2503 5.70364 5.01953 6.15992 5.01953C7.4717 5.01953 8.84052 5.01953 10.1523 5.01953C13.4033 5.01953 16.6542 5.01953 19.9052 5.01953C20.5896 5.01953 20.9888 5.42338 20.9888 6.11569C20.9888 7.84645 20.9888 9.57722 20.9888 11.308C20.9888 11.7118 20.8177 12.0003 20.4755 12.1734C20.1333 12.3465 19.7911 12.3465 19.5059 12.1157C19.2208 11.9426 19.1067 11.6541 19.1067 11.308C19.1067 9.92338 19.1067 8.59645 19.1067 7.21184C19.1067 7.15415 19.1067 7.09645 19.1067 6.98107C16.9394 6.98107 14.8291 6.98107 12.6618 6.98107C12.7189 7.03876 12.7759 7.03876 12.7759 7.03876C13.5173 7.26953 14.2588 7.5003 15.0002 7.73107C15.5706 7.90415 15.7987 8.19261 15.7987 8.82722C15.7987 13.3849 15.7987 17.9426 15.7987 22.5003C15.7987 22.6157 15.7987 22.6734 15.7987 22.7888C16.9394 22.7888 18.023 22.7888 19.1067 22.7888C19.1067 22.7311 19.1067 22.6734 19.1067 22.558C19.1067 21.1734 19.1067 19.8465 19.1067 18.4618C19.1067 17.7118 19.8481 17.2503 20.4755 17.5965C20.8177 17.7695 20.9888 18.058 20.9888 18.4041C20.9888 20.1926 20.9888 21.9811 20.9888 23.7695C20.9888 24.2888 20.5325 24.6926 20.0192 24.6926C18.7074 24.6926 17.3386 24.6926 16.0268 24.6926C15.9128 24.5772 15.8557 24.5772 15.7417 24.5772Z" fill="#04AFBA"/>
<path d="M22.9278 15.7499C22.8708 15.7499 22.8137 15.7499 22.7567 15.7499C21.2738 15.7499 19.848 15.7499 18.3651 15.7499C17.9658 15.7499 17.6807 15.5768 17.4525 15.2306C17.2814 14.8845 17.2814 14.5383 17.5096 14.2499C17.7377 13.9614 18.0229 13.846 18.3651 13.846C19.848 13.846 21.2738 13.846 22.7567 13.846C22.8137 13.846 22.8708 13.846 22.9278 13.846C22.8708 13.7883 22.8708 13.7306 22.8137 13.7306C22.5286 13.4422 22.2434 13.1537 21.9582 12.8652C21.559 12.4614 21.559 11.8845 21.9582 11.4806C22.3575 11.0768 22.9278 11.0768 23.3271 11.4806C24.1826 12.346 25.0381 13.2114 25.8936 14.0768C26.2928 14.4806 26.2928 15.0575 25.8936 15.5191C25.0381 16.3845 24.1826 17.2499 23.3271 18.1152C22.9278 18.5191 22.3575 18.5191 21.9582 18.1152C21.559 17.7114 21.616 17.1345 21.9582 16.7306C22.3004 16.4422 22.6426 16.096 22.9278 15.7499C22.9278 15.8075 22.9278 15.8075 22.9278 15.7499Z" fill="#04AFBA"/>
</g>
<defs>
<clipPath id="clip0_941_4416">
<rect width="30" height="30" fill="white"/>
</clipPath>
</defs>
</svg>
