<svg width="28" height="28" viewBox="0 0 28 28" fill="none" xmlns="http://www.w3.org/2000/svg">
<path d="M16.2187 19.5278C14.3251 20.5725 12.4968 21.0949 10.4727 21.0296C5.31434 20.9643 1.00484 16.9813 0.417179 11.8882C-0.17048 6.72989 3.22488 1.37566 9.16677 0.461528C15.8269 -0.5832 21.5729 4.83632 21.0505 11.5618C20.92 13.0636 20.5282 14.4348 19.7446 15.7407C19.5488 16.0671 19.614 16.263 19.8752 16.4589C21.9647 18.4831 24.0541 20.5072 26.1436 22.5314C26.3395 22.7273 26.4701 22.8579 26.666 23.0538C27.5801 24.0332 27.5801 25.535 26.666 26.5144C25.6865 27.4939 24.25 27.5591 23.2053 26.5797C21.0505 24.4903 18.8305 22.4008 16.6758 20.2461C16.5452 19.9849 16.3493 19.789 16.2187 19.5278ZM10.7992 4.44455C7.3385 4.44455 4.53079 7.25226 4.53079 10.7129C4.53079 14.1083 7.3385 16.916 10.7339 16.9813C14.1945 16.9813 17.0022 14.1736 17.0022 10.7129C17.0022 7.25226 14.1292 4.44455 10.7992 4.44455Z" fill="#DCDCDC"/>
</svg>
