<svg width="42" height="26" viewBox="0 0 42 26" fill="none" xmlns="http://www.w3.org/2000/svg">
<path d="M24.7506 16.8179C24.3988 16.8179 24.0973 16.8179 23.7622 16.8179C23.6785 17.0524 23.5947 17.3037 23.4942 17.5382C23.4104 17.7392 23.3434 17.9403 23.2429 18.1245C23.0084 18.5601 22.7739 19.0124 22.5226 19.4312C22.0368 20.2353 21.4337 20.9557 20.7803 21.6258C20.7133 21.6928 20.6128 21.743 20.5123 21.8268C19.0381 20.4029 18.0162 18.7276 17.3629 16.8179C17.0781 16.8179 16.81 16.8179 16.5587 16.8179C16.5085 16.8179 16.4582 16.8346 16.3745 16.8514C17.0446 19.0124 18.167 20.8719 19.8087 22.4466C19.5574 22.7314 19.2559 22.9157 18.9376 23.1167C18.7365 23.234 18.5523 23.3848 18.3512 23.502C17.9659 23.7366 17.5974 23.9544 17.1786 24.1219C16.8435 24.2559 16.5252 24.4234 16.1902 24.5742C16.0562 24.6244 15.9054 24.658 15.7714 24.7082C15.5536 24.7585 15.3191 24.8087 15.1013 24.859C14.8668 24.926 14.6322 24.9762 14.3977 25.0433C14.3474 25.06 14.2972 25.0768 14.2637 25.0768C13.6941 25.127 13.1078 25.194 12.5382 25.2275C12.0189 25.2443 11.4995 25.2275 10.9802 25.194C10.6452 25.1773 10.3101 25.1438 9.97508 25.0768C9.74055 25.0433 9.52277 24.9427 9.28823 24.8757C9.23798 24.859 9.18772 24.8422 9.13746 24.8422C8.86943 24.8255 8.61814 24.725 8.36686 24.6244C8.19933 24.5742 8.03181 24.5407 7.88104 24.4737C7.37847 24.2727 6.8759 24.0884 6.40683 23.8036C6.02153 23.5691 5.63623 23.3345 5.25092 23.1C5.0499 22.9827 4.84887 22.8487 4.68134 22.6979C4.14527 22.2624 3.62595 21.8101 3.17364 21.274C2.9056 20.9557 2.62081 20.6709 2.36952 20.3526C2.10149 20.0008 1.8502 19.6323 1.63242 19.247C1.38114 18.8114 1.18011 18.3423 0.97908 17.89C0.811557 17.5382 0.660786 17.1697 0.510015 16.8011C0.459758 16.6671 0.426254 16.5163 0.392749 16.3823C0.342492 16.1478 0.292235 15.9132 0.241978 15.6787C0.174969 15.3437 0.0912072 15.0254 0.0241979 14.6903C0.00744554 14.6401 0.00744548 14.5731 0.00744548 14.5228C0.00744548 13.5009 -0.00930685 12.4623 0.00744548 11.4404C0.00744548 11.1221 0.124712 10.8038 0.208474 10.4855C0.208474 10.452 0.225226 10.4185 0.225226 10.385C0.25873 10.0667 0.392749 9.76514 0.459758 9.46359C0.54352 9.04479 0.727796 8.65948 0.878567 8.27418C1.01259 7.87212 1.24712 7.52033 1.44815 7.13502C1.58216 6.88374 1.69943 6.63245 1.86695 6.39792C2.2355 5.86185 2.60406 5.32577 3.03962 4.83995C3.55894 4.27037 4.12852 3.71755 4.74835 3.24848C5.10015 2.98044 5.4687 2.72916 5.83726 2.51138C6.27282 2.24334 6.72513 1.99206 7.19419 1.77428C7.613 1.57325 8.04856 1.42248 8.48412 1.27171C8.7019 1.18795 8.95319 1.17119 9.18772 1.10418C9.43901 1.03718 9.69029 0.970166 9.94158 0.903156C9.97508 0.903156 10.0086 0.886404 10.0421 0.886404C10.5782 0.8529 11.1142 0.718881 11.6671 0.735633C12.2199 0.752386 12.7727 0.718881 13.3255 0.769138C13.7108 0.802643 14.0794 0.903157 14.4647 0.970166C14.4982 0.970166 14.5317 0.986918 14.5652 0.986918C14.8835 1.00367 15.1851 1.10418 15.4866 1.22145C15.6374 1.28846 15.8216 1.28846 15.9724 1.35547C16.3745 1.50624 16.7598 1.67376 17.1618 1.82453C17.6979 2.02556 18.167 2.3271 18.6528 2.61189C19.0046 2.82967 19.3396 3.09771 19.6579 3.33224C19.7249 3.3825 19.7584 3.44951 19.8087 3.51652C18.1837 5.07449 17.0781 6.93399 16.3912 9.06154C16.5587 9.1453 16.7598 9.16205 17.3461 9.12855C17.4299 8.94427 17.4969 8.74324 17.5806 8.54222C17.6979 8.27418 17.8152 7.98939 17.9492 7.72135C18.0665 7.45332 18.1837 7.18528 18.3345 6.93399C18.6025 6.48168 18.8873 6.02937 19.2056 5.61056C19.5574 5.1415 19.9595 4.72269 20.3448 4.27037C20.395 4.22012 20.4453 4.18661 20.5123 4.1196C21.0316 4.53841 21.4672 5.04098 21.8692 5.57706C22.2713 6.11313 22.6566 6.68271 22.9581 7.28579C23.2429 7.88888 23.511 8.50871 23.7957 9.12855C24.0973 9.12855 24.4156 9.12855 24.7674 9.12855C24.0805 6.95075 22.9414 5.09124 21.3164 3.51652C21.3499 3.46626 21.3499 3.39925 21.4002 3.36575C21.819 3.06421 22.2378 2.76266 22.6733 2.49463C23.0251 2.27685 23.3769 2.05907 23.7622 1.9083C24.114 1.75752 24.4491 1.57325 24.8176 1.47274C25.1192 1.40573 25.4207 1.25496 25.7223 1.15444C25.94 1.08743 26.1746 1.03718 26.4091 0.986918C26.8112 0.903156 27.23 0.836148 27.632 0.752386C27.6823 0.735634 27.7493 0.735633 27.7996 0.735633C28.6037 0.735633 29.391 0.718881 30.1951 0.752386C30.5637 0.769138 30.9322 0.886405 31.3008 0.953414C31.3175 0.953414 31.351 0.970166 31.3678 0.970166C31.7364 0.986918 32.0714 1.12094 32.4232 1.2047C32.8923 1.33872 33.3278 1.52299 33.7801 1.69052C34.266 1.87479 34.7015 2.12608 35.1538 2.34386C35.4721 2.51138 35.7569 2.74591 36.0585 2.94694C36.494 3.24848 36.8961 3.56678 37.2814 3.93533C37.6332 4.28713 38.0017 4.62217 38.3033 4.99072C38.7723 5.5603 39.2414 6.14663 39.5764 6.81673C39.6937 7.06801 39.8612 7.28579 39.9785 7.53708C40.0958 7.78836 40.1963 8.0564 40.3135 8.32444C40.4141 8.57572 40.5313 8.82701 40.6318 9.09504C40.6988 9.24581 40.7491 9.41334 40.7826 9.58086C40.8329 9.76514 40.8831 9.94941 40.9166 10.1337C41.0004 10.519 41.0842 10.921 41.1344 11.3231C41.1847 11.6414 41.2014 11.9597 41.2014 12.2947C41.2014 12.9983 41.2014 13.6852 41.1512 14.3888C41.1177 14.8913 41.0004 15.3772 40.8999 15.863C40.7994 16.2818 40.6821 16.7006 40.5313 17.1027C40.28 17.7392 40.0288 18.3926 39.677 18.9789C39.3252 19.5652 38.9566 20.1181 38.521 20.6541C38.1525 21.1232 37.7337 21.542 37.3316 21.9441C36.8123 22.4634 36.226 22.899 35.6061 23.2843C35.1371 23.5858 34.6513 23.8706 34.1152 24.0716C33.7634 24.2056 33.4451 24.3899 33.0933 24.5072C32.7415 24.6244 32.3897 24.7082 32.0379 24.792C31.7866 24.859 31.5353 24.926 31.284 24.993C31.2505 25.0098 31.217 25.0098 31.1835 25.0098C30.2454 25.127 29.2905 25.194 28.3356 25.1438C28.2184 25.1438 28.0843 25.1605 27.9671 25.127C27.5483 25.0098 27.1127 25.0433 26.6771 24.926C26.4091 24.8422 26.1076 24.8255 25.8395 24.7585C25.7055 24.725 25.5715 24.6915 25.4375 24.6412C24.9517 24.4402 24.4491 24.2894 23.9633 24.0716C23.4272 23.8203 22.9246 23.5355 22.4053 23.2173C22.0535 22.9995 21.752 22.7649 21.4169 22.5137C21.3834 22.4969 21.3667 22.4466 21.3164 22.3964C22.9079 20.8552 24.0638 18.9957 24.7506 16.8179ZM3.32441 15.9132C3.6427 15.9132 3.97775 15.93 4.29604 15.9132C4.36305 15.9132 4.46356 15.8295 4.49707 15.7625C4.59758 15.5782 4.68134 15.3772 4.76511 15.1929C4.89913 14.8913 5.01639 14.5731 5.15041 14.2715C5.35144 13.836 5.55247 13.4171 5.75349 12.9816C5.80375 12.8643 5.87076 12.7471 5.92102 12.6298C5.95452 12.7135 5.97127 12.7973 5.95452 12.8811C5.92102 13.0988 5.88751 13.2999 5.85401 13.5177C5.85401 13.5512 5.83726 13.6014 5.83726 13.6349C5.77025 13.9197 5.68648 14.2045 5.63623 14.4893C5.55247 14.9249 5.48546 15.3604 5.40169 15.8462C5.4687 15.863 5.56922 15.9132 5.66973 15.9132C5.95452 15.93 6.25606 15.9132 6.54085 15.9132C6.59111 15.9132 6.65812 15.8965 6.70838 15.8797C6.75863 15.6787 6.82564 15.5112 6.85915 15.3269C6.9094 15.0086 6.95966 14.6903 6.99317 14.372C6.99317 14.3385 7.02667 14.2883 7.02667 14.2548C7.06018 14.1375 7.07693 14.0202 7.11043 13.8862C7.12718 13.8192 7.12718 13.7354 7.12718 13.6684C7.19419 13.3334 7.27796 13.0151 7.34496 12.68C7.39522 12.3617 7.42873 12.0435 7.47898 11.7252C7.47898 11.7084 7.49574 11.6749 7.49574 11.6582C7.52924 11.5241 7.56275 11.3734 7.59625 11.2393C7.613 11.1723 7.613 11.0886 7.64651 11.0216C7.74702 10.8205 7.71352 10.6195 7.71352 10.4017C7.00992 10.4017 6.33982 10.4017 5.66973 10.4017C5.21742 11.4069 4.78186 12.3785 4.32955 13.3501C4.31279 13.3501 4.29604 13.3501 4.27929 13.3501C4.24578 13.2161 4.17877 13.0988 4.16202 12.9648C4.09501 12.345 4.16202 11.7252 4.04476 11.1221C3.9945 10.8875 4.01125 10.653 4.01125 10.385C3.30765 10.3682 2.63756 10.3682 1.98422 10.385C1.91721 10.6698 1.8502 10.9043 1.79994 11.1556C1.74969 11.4571 1.69943 11.7754 1.66593 12.077C1.66593 12.1105 1.64917 12.1607 1.63242 12.1942C1.59892 12.3115 1.56541 12.4288 1.54866 12.546C1.4984 12.8308 1.44815 13.1156 1.39789 13.4004C1.33088 13.7187 1.26387 14.037 1.19686 14.3553C1.1131 14.7406 1.02934 15.1259 0.962328 15.5112C0.945576 15.6285 0.962328 15.7457 0.962328 15.8965C1.36438 15.8965 1.74969 15.8965 2.15174 15.8965C2.202 15.7792 2.25226 15.6787 2.28576 15.5782C2.33602 15.3772 2.36952 15.1761 2.40303 14.9751C2.48679 14.5395 2.57055 14.0872 2.65431 13.6517C2.72132 13.2999 2.77158 12.9481 2.82184 12.613C2.82184 12.5963 2.83859 12.5963 2.88885 12.5628C2.9391 12.6633 3.00611 12.7638 3.02286 12.8811C3.05637 13.4004 3.03962 13.9197 3.14013 14.439C3.17364 14.6568 3.15688 14.8913 3.17364 15.1091C3.15688 15.3604 3.19039 15.6285 3.32441 15.9132ZM40.1293 10.1504C40.079 10.1169 40.012 10.0499 39.945 10.0499C39.5764 10.0332 39.2246 10.0499 38.8561 10.0499C38.8226 10.1169 38.7891 10.1504 38.7891 10.2007C38.7053 10.6028 38.6216 11.0048 38.5546 11.4069C38.5378 11.5241 38.5378 11.6414 38.387 11.6749C38.3703 11.6581 38.3368 11.6414 38.3033 11.6246C38.0185 11.3064 37.6499 11.2226 37.2479 11.2561C37.0468 11.2728 36.8626 11.3399 36.6615 11.3566C36.3265 11.3734 36.092 11.5576 35.8909 11.7754C35.4721 12.1942 35.2376 12.7638 35.1203 13.3166C35.0198 13.7857 35.0031 14.2883 35.1873 14.7741C35.3214 15.0924 35.4889 15.3772 35.7569 15.5949C35.9077 15.7122 36.0585 15.8127 36.2595 15.8295C36.561 15.863 36.8458 15.8462 37.1306 15.7122C37.2479 15.6452 37.3819 15.6117 37.5159 15.5614C37.5829 15.662 37.6667 15.7792 37.7337 15.8797C38.1692 15.8797 38.5881 15.8797 38.9901 15.8797C39.1241 15.6955 39.1576 15.5279 39.1744 15.3269C39.2079 15.0254 39.2581 14.7071 39.3252 14.4055C39.3922 14.0202 39.4759 13.6517 39.5429 13.2664C39.5932 12.9816 39.6434 12.6968 39.6937 12.412V12.3953C39.7607 12.077 39.8445 11.7754 39.9115 11.4571C39.9953 11.0551 40.0455 10.6363 40.1293 10.1504ZM10.863 15.9132C10.9802 15.729 11.064 15.5614 11.0472 15.3604C11.0472 15.2767 11.064 15.1761 11.0807 15.0924C11.1477 14.8076 11.2315 14.5395 11.2818 14.2548C11.3488 13.9197 11.3655 13.5679 11.466 13.2329C11.5163 13.0318 11.5498 12.8308 11.533 12.6298C11.4828 12.2277 11.3488 11.8759 11.0137 11.6246C10.6787 11.3734 10.3101 11.2728 9.90807 11.2728C9.30499 11.2728 8.71865 11.3399 8.16583 11.3566C8.01506 11.5074 7.9648 11.6414 7.9648 11.7922C7.9648 11.9094 7.91454 12.0267 7.89779 12.144C7.88104 12.2277 7.88104 12.3282 7.88104 12.4288C8.63489 12.3282 9.33849 12.3115 10.0253 12.3617C10.1091 12.5125 10.2264 12.6298 10.1259 12.8141C10.0923 12.8308 10.0421 12.8476 10.0086 12.8476C9.60653 12.8643 9.22122 12.8476 8.83592 12.9481C8.61814 12.9983 8.43387 13.0821 8.23284 13.1491C8.13232 13.1826 8.04856 13.2329 7.9648 13.2999C7.62975 13.5512 7.46223 13.8862 7.31146 14.2715C7.14394 14.7071 7.32821 15.2599 7.613 15.5279C7.84753 15.7625 8.16583 15.8295 8.46737 15.8797C8.58464 15.8965 8.7019 15.8797 8.81917 15.863C9.07045 15.8127 9.30499 15.7457 9.55627 15.6787C9.58978 15.6787 9.62328 15.6787 9.65679 15.6787C9.74055 15.7792 9.84106 15.863 9.95833 15.863C10.2431 15.93 10.5447 15.9132 10.863 15.9132ZM30.8987 12.8643C30.4632 12.8811 30.0276 12.8643 29.6088 12.9648C29.324 13.0318 29.056 13.1491 28.8214 13.3166C28.5032 13.5344 28.2854 13.836 28.1681 14.2045C27.9671 14.8076 28.1011 15.2767 28.5032 15.5949C28.6874 15.7457 28.8885 15.8127 29.0895 15.863C29.2905 15.9132 29.4915 15.93 29.6926 15.863C29.9103 15.796 30.1281 15.8127 30.3292 15.7122C30.3627 15.6955 30.4129 15.7122 30.4464 15.7122C30.4967 15.7792 30.5637 15.8295 30.6139 15.8965C30.9825 15.8965 31.351 15.93 31.7196 15.8797C31.7699 15.6955 31.8369 15.5279 31.8704 15.3604C31.9206 15.0589 31.9709 14.7573 32.0044 14.4558C32.0044 14.4223 32.0211 14.372 32.0379 14.3385C32.1049 14.0202 32.1719 13.7187 32.2389 13.4004C32.2724 13.1994 32.3059 13.0151 32.3227 12.8141C32.3227 12.7638 32.3227 12.6968 32.3227 12.6465C32.3059 12.546 32.2557 12.4455 32.2557 12.345C32.2389 12.0435 32.0714 11.8089 31.8536 11.6246C31.5353 11.3566 31.1333 11.2561 30.7145 11.2561C30.1281 11.2728 29.525 11.3231 28.9722 11.3399C28.7712 11.5409 28.6372 12.211 28.7209 12.4455C29.4245 12.3115 30.1449 12.3115 30.8485 12.3617C30.8987 12.479 30.9322 12.5628 30.9657 12.6633C30.949 12.7303 30.9322 12.7806 30.8987 12.8643ZM27.5315 14.439C27.4143 14.4725 27.2802 14.4893 27.163 14.5228C26.8112 14.6401 26.4594 14.5731 26.1578 14.4055C25.8228 14.2213 25.605 13.903 25.605 13.4842C25.605 13.2496 25.5882 13.0151 25.6385 12.7973C25.6888 12.5628 25.7893 12.3282 25.9233 12.144C26.0908 11.8927 26.3421 11.7084 26.6269 11.5911C26.9954 11.4404 27.3472 11.4906 27.7158 11.5576C27.8331 11.5744 27.9503 11.6246 28.0508 11.6582C28.0341 11.6246 28.0341 11.6079 28.0173 11.5744C28.2854 11.3231 28.5534 11.0718 28.8382 10.8205C28.4697 10.385 28.0341 10.1504 27.4813 10.1169C27.23 10.1002 26.9787 10.1169 26.7274 10.1169C26.6269 10.1169 26.5264 10.1169 26.4259 10.1504C26.0741 10.3012 25.7055 10.452 25.3872 10.6865C24.8847 11.0718 24.5664 11.5744 24.3653 12.1607C24.2648 12.4455 24.2146 12.7638 24.1476 13.0653C24.0638 13.5177 24.1475 13.9532 24.2648 14.3888C24.3486 14.6736 24.5161 14.9584 24.7339 15.1761C25.0354 15.4777 25.3872 15.7122 25.806 15.796C26.1578 15.863 26.5096 15.8462 26.8614 15.8295C27.1462 15.8127 27.4143 15.7457 27.6823 15.662C27.7493 15.6452 27.8163 15.5447 27.8331 15.4944C27.8331 15.3604 27.8163 15.2264 27.7828 15.1091C27.7158 14.9081 27.632 14.7071 27.5315 14.439ZM18.569 13.8527C18.6863 13.8527 18.7868 13.8527 18.8706 13.8527C19.5574 13.8527 20.2443 13.8527 20.9311 13.8527C21.2159 13.8527 21.2661 13.8192 21.2829 13.5177C21.2997 13.1826 21.3164 12.8476 21.2829 12.5293C21.2661 12.278 21.1656 12.0435 20.9981 11.8424C20.6631 11.4236 20.1772 11.3064 19.6747 11.2561C19.4234 11.2393 19.1721 11.3064 18.9208 11.3399C18.5188 11.4069 18.234 11.5911 17.9492 11.8424C17.6644 12.1105 17.4801 12.4455 17.3461 12.7973C17.2456 13.0653 17.1786 13.3501 17.1953 13.6349C17.1953 13.8192 17.1953 14.0035 17.2121 14.1878C17.2456 14.3888 17.2623 14.6066 17.3629 14.7741C17.6811 15.3772 18.1502 15.7792 18.8706 15.8127C19.0883 15.8295 19.2894 15.863 19.5072 15.8797C19.6579 15.8797 19.8087 15.8462 19.9762 15.8295C20.1437 15.8127 20.3113 15.8295 20.4788 15.796C20.6463 15.7625 20.8641 15.7457 20.9143 15.5279C20.9479 15.3437 20.9646 15.1594 21.0484 14.9751C21.0819 14.9081 21.0651 14.8076 21.0651 14.6903C20.9311 14.6903 20.8138 14.6736 20.6966 14.6903C20.4788 14.7071 20.261 14.7741 20.0432 14.7741C19.6412 14.7908 19.2559 14.8243 18.8873 14.6568C18.7868 14.5731 18.6863 14.4893 18.5858 14.4055C18.569 14.238 18.569 14.0705 18.569 13.8527ZM14.984 11.4404C14.515 11.2058 14.0459 11.2561 13.5936 11.2561C13.2083 11.2561 12.8397 11.3399 12.5047 11.5074C12.2534 11.6246 12.0356 11.8424 11.9183 12.0937C11.7843 12.3785 11.7508 12.6968 11.8011 13.0151C11.8346 13.3166 11.9854 13.5512 12.2534 13.7019C12.4209 13.8024 12.6052 13.8695 12.7727 13.9532C12.9737 14.0537 13.158 14.1542 13.359 14.2715C13.3926 14.3553 13.4261 14.439 13.4596 14.5395C13.4093 14.6233 13.3758 14.7071 13.3255 14.7908C12.8565 14.8746 11.8011 14.8411 11.5666 14.7238C11.2818 14.9081 11.466 15.2431 11.332 15.4609C11.2985 15.5112 11.2985 15.5949 11.2818 15.7122C11.4493 15.7457 11.6001 15.796 11.7508 15.8127C11.8513 15.8295 11.9686 15.8295 12.0691 15.8295C12.3539 15.8462 12.6555 15.93 12.9235 15.8797C13.2418 15.8295 13.5768 15.8462 13.8951 15.6955C14.2302 15.5447 14.4982 15.3437 14.6322 15.0086C14.6992 14.8411 14.7327 14.6568 14.7662 14.4893C14.85 14.171 14.7495 13.7689 14.4982 13.5512C14.1967 13.2831 13.8449 13.1156 13.4931 12.9481C13.225 12.8308 13.158 12.613 13.359 12.345C13.7946 12.345 14.2469 12.345 14.6825 12.345C14.8333 12.0435 14.9338 11.7419 14.984 11.4404ZM16.8938 11.3566C16.9776 10.9378 17.0446 10.5525 17.1116 10.1504C16.676 10.1504 16.274 10.1504 15.8551 10.1504C15.8216 10.2342 15.7714 10.318 15.7546 10.4017C15.7044 10.6865 15.6709 10.9881 15.6206 11.2728C15.5704 11.5409 15.5201 11.8089 15.4698 12.077C15.4028 12.3785 15.3191 12.6633 15.2521 12.9648C15.2018 13.2496 15.1515 13.5512 15.118 13.836C15.118 13.8695 15.1013 13.9197 15.0845 13.9532C14.9505 14.3888 14.9673 14.8243 15.0008 15.2599C15.0008 15.2767 15.0175 15.3102 15.0175 15.3269C15.2018 15.6955 15.7379 15.9635 16.1567 15.9132C16.3242 15.8965 16.4917 15.863 16.6425 15.8127C16.7765 15.7625 16.9608 15.729 16.9776 15.5279C16.9943 15.2599 16.9776 15.0086 16.9776 14.7238C16.8268 14.7238 16.676 14.7238 16.5587 14.7238C16.341 14.6066 16.3242 14.439 16.3577 14.2548C16.3912 14.0202 16.4582 13.7689 16.4917 13.5344C16.5587 13.1826 16.609 12.8308 16.6593 12.4958C16.6593 12.479 16.676 12.4455 16.7095 12.412C16.9105 12.3953 17.1283 12.3953 17.3461 12.3785C17.3294 12.0267 17.5806 11.7419 17.4634 11.3734C17.2623 11.3566 17.0948 11.3566 16.8938 11.3566ZM33.4618 15.8295C33.5121 15.6452 33.5624 15.4944 33.5959 15.3437C33.6796 14.8913 33.7801 14.4223 33.8471 13.97C33.8974 13.6684 33.9812 13.3836 34.1319 13.1156C34.2492 12.8811 34.4 12.6465 34.7015 12.5963C34.8355 12.5795 34.9528 12.5293 35.1203 12.479C35.2208 12.144 35.3214 11.7922 35.4219 11.4404C35.3381 11.2728 35.2376 11.2728 35.1036 11.3231C35.0366 11.3566 34.9696 11.3566 34.8858 11.3734C34.7853 11.4069 34.668 11.4404 34.5675 11.4906C34.467 11.5409 34.3665 11.5911 34.2995 11.6246C34.1989 11.4906 34.1319 11.3901 34.0649 11.3063C33.2273 11.2561 33.1938 11.2728 33.0263 11.4069C32.976 11.6246 32.9258 11.7922 32.8755 11.9764C32.7917 12.3953 32.708 12.8141 32.641 13.2329C32.5572 13.7019 32.4735 14.171 32.3897 14.6401C32.3394 14.9751 32.2892 15.3102 32.2389 15.6452C32.2222 15.6955 32.2054 15.7457 32.1887 15.8462C32.6242 15.863 33.0598 15.8462 33.4618 15.8295ZM23.1257 11.3566C22.9414 11.3566 22.7571 11.3566 22.5728 11.3566C22.3886 11.3566 22.221 11.3566 22.02 11.3566C21.9697 11.6414 21.9362 11.9094 21.886 12.1607C21.886 12.211 21.8692 12.2612 21.8692 12.3115C21.8022 12.5963 21.7185 12.8811 21.6682 13.1659C21.6012 13.5177 21.5677 13.8695 21.5007 14.2045C21.5007 14.2213 21.5007 14.238 21.4839 14.2548C21.4169 14.5563 21.3499 14.8578 21.2829 15.1594C21.2494 15.3604 21.2159 15.5614 21.1824 15.7792C21.3164 15.8965 21.3164 15.9132 21.5174 15.8965C21.8357 15.863 22.1875 16.0138 22.4891 15.7792C22.5393 15.4107 22.6063 15.0589 22.6566 14.7071C22.6566 14.6903 22.6566 14.6736 22.6733 14.6568C22.7404 14.372 22.8241 14.104 22.8744 13.8192C22.9581 13.3166 23.1759 12.9146 23.578 12.613C23.7455 12.5963 23.8963 12.5963 24.0805 12.5795C24.2146 12.1775 24.3318 11.7754 24.3988 11.3566C24.047 11.3231 23.7455 11.3399 23.4775 11.5409C23.4104 11.5911 23.3099 11.5744 23.2094 11.6079C23.1759 11.5241 23.1424 11.4571 23.1257 11.3566Z" fill="#E5E5E5"/>
<path d="M37.7166 12.3613C38.0182 12.5289 38.0852 12.7801 38.1019 13.0649C38.1187 13.5172 38.0517 13.936 37.7166 14.2543C37.6999 14.2711 37.6999 14.3214 37.6831 14.3381C37.6664 14.3549 37.6664 14.3884 37.6496 14.3884C37.2978 14.6229 36.9628 14.6396 36.6612 14.4219C36.4099 14.1203 36.3932 13.7853 36.477 13.4502C36.5775 12.9644 36.8623 12.5791 37.3146 12.3781C37.4318 12.3446 37.5826 12.3781 37.7166 12.3613Z" fill="#E5E5E5"/>
<path d="M9.94141 13.8694C9.8744 14.238 9.85765 14.6065 9.48909 14.7908C9.22106 14.9248 8.819 14.8745 8.60122 14.6735C8.45045 14.3217 8.75199 13.9364 9.12054 13.8526C9.1708 13.8359 9.23781 13.8359 9.28807 13.8024C9.42209 13.7019 9.5561 13.7354 9.69012 13.7856C9.74038 13.8191 9.82414 13.8359 9.94141 13.8694Z" fill="#E5E5E5"/>
<path d="M29.3745 14.5565C29.3913 14.2047 29.5588 13.9702 29.8268 13.8696C30.1284 13.7524 30.4299 13.6519 30.765 13.9031C30.7315 14.0707 30.6812 14.2549 30.6309 14.4727C30.4802 14.7575 30.1954 14.858 29.8603 14.8413C29.5755 14.8413 29.475 14.858 29.3745 14.5565Z" fill="#E5E5E5"/>
<path d="M20.0437 12.3781C20.0939 12.5792 20.1275 12.7467 20.1777 12.9645C19.6249 12.998 19.1056 12.9812 18.5527 12.9812C18.67 12.7634 18.7705 12.5959 18.8543 12.4284C19.2396 12.1771 19.6249 12.1101 20.0437 12.3781Z" fill="#E5E5E5"/>
</svg>
