<svg width="34" height="34" viewBox="0 0 34 34" fill="none" xmlns="http://www.w3.org/2000/svg">
<path d="M32.3191 4.51147C32.3191 4.70763 32.3191 4.96917 32.3191 5.16532C31.6081 5.81917 30.8971 6.5384 30.1214 7.19224C29.7336 7.51917 29.6043 7.84609 29.6043 8.36917C29.6043 13.9922 29.6043 19.6153 29.6043 25.2384C29.6043 25.6307 29.7982 26.0884 30.0568 26.3499C30.7678 27.1346 31.5435 27.8538 32.2545 28.573C32.2545 28.7038 32.2545 28.8345 32.2545 28.9653C32.1252 28.9653 31.9959 29.0307 31.802 29.0307C28.1176 29.0307 24.4332 29.0307 20.6842 29.0307C20.5549 29.0307 20.361 28.9653 20.2317 28.8999C20.2963 28.7038 20.2963 28.4422 20.4256 28.3115C21.072 27.6576 21.6537 27.0038 22.3001 26.4153C22.7526 26.023 22.8819 25.6307 22.8819 25.0422C22.8819 20.8576 22.8819 16.6076 22.8819 12.423C22.8819 12.2269 22.8819 11.9653 22.8819 11.7692C22.688 11.9653 22.6233 12.0961 22.5587 12.2922C20.4902 17.6538 18.4218 23.0153 16.2887 28.3769C16.1594 28.7038 16.1594 29.0307 15.6423 29.0307C15.1899 29.0307 15.0606 28.8346 14.8667 28.4422C12.475 23.0807 10.0188 17.7192 7.56249 12.423C7.49785 12.2269 7.36857 12.0307 7.23929 11.8346C7.17465 11.8346 7.17465 11.8346 7.11001 11.8346C7.11001 12.0307 7.11001 12.2922 7.11001 12.4884C7.11001 16.0846 7.11001 19.6153 7.11001 23.2115C7.11001 23.7999 7.30393 24.2576 7.62713 24.7153C8.59671 25.8269 9.50165 27.0038 10.4712 28.1807C10.6005 28.3769 10.6651 28.7038 10.8591 29.0307C7.69176 29.0307 4.71838 29.0307 1.745 29.0307C1.745 28.8346 1.745 28.573 1.745 28.3769C1.80963 28.3769 1.87427 28.3115 1.87427 28.3115C2.90849 27.0038 4.00735 25.7615 4.97693 24.4538C5.17085 24.1922 5.30013 23.7999 5.30013 23.5384C5.30013 18.8961 5.30013 14.3192 5.30013 9.67686C5.30013 9.34994 5.10621 8.89224 4.9123 8.63071C4.26591 7.3884 3.36096 6.40763 2.5853 5.36147C2.39138 5.16532 2.32674 4.8384 2.19747 4.51147C2.5853 4.51147 2.77922 4.51147 2.97313 4.51147C5.49404 4.51147 8.01496 4.51147 10.5359 4.51147C10.9883 4.51147 11.2469 4.64224 11.4408 5.09994C13.5093 9.74224 15.5777 14.3192 17.6461 18.9615C17.7108 19.1576 17.8401 19.3538 17.9693 19.6153C18.0986 19.3538 18.1632 19.223 18.1632 19.0922C20.0378 14.4499 21.8477 9.74224 23.7222 5.09994C23.8515 4.70763 24.0454 4.57686 24.4978 4.57686C27.0834 4.51147 29.669 4.51147 32.3191 4.51147Z" fill="white"/>
</svg>
