<svg width="49" height="47" viewBox="0 0 49 47" fill="none" xmlns="http://www.w3.org/2000/svg">
<path d="M18.3293 42.9778C18.4538 42.9778 18.5161 42.9162 18.6406 42.8547C18.7028 42.7931 18.7651 42.6699 18.7651 42.6083C18.7651 42.4852 18.7028 42.4236 18.6406 42.3004C18.5783 42.2389 18.4538 42.1773 18.3916 42.1773C18.2671 42.1773 18.1426 42.1773 18.0803 42.3004C18.0181 42.362 17.9558 42.4852 17.9558 42.6083C17.9558 42.7315 17.9558 42.7931 18.0803 42.8547C18.0803 42.9778 18.2048 42.9778 18.3293 42.9778ZM8.68056 33.6177C8.80506 33.6177 8.92956 33.5562 9.05406 33.4946C9.17856 33.3714 9.17856 33.2483 9.17856 33.1251C9.17856 33.0019 9.11631 32.8788 9.05406 32.7556C8.92956 32.6325 8.80506 32.5709 8.68056 32.5709C8.55606 32.5709 8.43156 32.6325 8.30706 32.7556C8.18256 32.8788 8.12031 32.9404 8.12031 33.1251C8.12031 33.2483 8.18256 33.3714 8.30706 33.4946C8.43156 33.5562 8.55606 33.6177 8.68056 33.6177ZM5.50581 30.2924C5.63031 30.2924 5.69256 30.2309 5.75481 30.1693C5.81706 30.1077 5.87931 29.9845 5.87931 29.923C5.87931 29.7998 5.81706 29.7382 5.75481 29.6766C5.69256 29.5535 5.56806 29.5535 5.50581 29.5535C5.38131 29.5535 5.31906 29.6151 5.25681 29.6766C5.19456 29.7382 5.13231 29.8614 5.13231 29.923C5.13231 30.0461 5.19456 30.1077 5.25681 30.1693C5.31906 30.2309 5.38131 30.2924 5.50581 30.2924ZM8.68056 27.4598C8.86731 27.4598 9.05406 27.3982 9.17856 27.2135C9.30306 27.0903 9.42756 26.9056 9.42756 26.7208C9.42756 26.5361 9.36531 26.3514 9.17856 26.1666C9.05406 26.0435 8.86731 25.9819 8.68056 25.9819C8.49381 25.9819 8.30706 26.0435 8.18256 26.2282C8.05806 26.3514 7.93356 26.5361 7.93356 26.7208C7.93356 26.9056 7.99581 27.0903 8.12031 27.2135C8.30706 27.3982 8.49381 27.4598 8.68056 27.4598ZM21.5041 38.7288C21.3173 38.7288 21.1306 38.7904 21.0061 38.9751C20.8816 39.0983 20.8193 39.283 20.8193 39.4678C20.8193 39.6525 20.8816 39.8373 21.0683 39.9604C21.1928 40.0836 21.3796 40.2067 21.5663 40.2067C21.7531 40.2067 21.9398 40.1452 22.0643 39.9604C22.1888 39.8373 22.2511 39.6525 22.2511 39.4678C22.2511 39.283 22.1888 39.0983 22.0643 38.9751C21.9398 38.7288 21.7531 38.6673 21.5041 38.7288ZM15.4658 39.0367C15.3413 38.9751 15.2791 38.9136 15.0923 38.9136C14.9678 38.9136 14.8433 38.9751 14.7188 39.0367C14.5943 39.1599 14.5321 39.283 14.5321 39.4062C14.5321 39.5294 14.5943 39.6525 14.7188 39.7757C14.8433 39.8988 14.9056 39.9604 15.0923 39.9604C15.2791 39.9604 15.3413 39.8988 15.4658 39.7757C15.5903 39.6525 15.6526 39.5294 15.6526 39.4062C15.6526 39.283 15.5903 39.1599 15.4658 39.0367ZM17.4578 36.2656C17.4578 36.512 17.5201 36.6967 17.7068 36.8814C17.8936 37.0662 18.0803 37.1278 18.3293 37.1278C18.5783 37.1278 18.7651 37.0662 18.9518 36.8814C19.1386 36.6967 19.2008 36.512 19.2008 36.2656C19.2008 36.0193 19.1386 35.8346 18.9518 35.6499C18.7651 35.4651 18.5783 35.4035 18.3293 35.4035C18.0803 35.4035 17.8936 35.4651 17.7068 35.6499C17.5201 35.773 17.4578 36.0193 17.4578 36.2656ZM11.8553 36.8199C12.0421 36.8199 12.1666 36.7583 12.2911 36.6351C12.4156 36.512 12.4778 36.3888 12.4778 36.2041C12.4778 36.0809 12.4156 35.8962 12.2911 35.773C12.1666 35.6499 12.0421 35.5883 11.8553 35.5883C11.7308 35.5883 11.6063 35.6499 11.4818 35.773C11.3573 35.8962 11.2951 36.0193 11.2951 36.2041C11.2951 36.3888 11.3573 36.512 11.4818 36.6351C11.6063 36.7583 11.7308 36.8199 11.8553 36.8199ZM15.7771 32.3861C15.5903 32.2014 15.4036 32.0782 15.1546 32.0782C14.9056 32.0782 14.6566 32.2014 14.4698 32.3861C14.2831 32.5709 14.2208 32.7556 14.1586 33.0635C14.1586 33.3098 14.2831 33.5562 14.4698 33.7409C14.6566 33.9256 14.9056 34.0488 15.1546 34.0488C15.4036 34.0488 15.6526 33.9256 15.7771 33.7409C15.9638 33.5562 16.0883 33.3098 16.0883 33.0635C16.0883 32.8172 15.9638 32.6325 15.7771 32.3861ZM12.5401 30.5388C12.7268 30.354 12.7891 30.1693 12.7891 29.923C12.7891 29.6766 12.7268 29.4303 12.5401 29.3072C12.3533 29.1224 12.1043 29.0608 11.8553 29.0608C11.6063 29.0608 11.4196 29.1224 11.2328 29.3072C11.0461 29.4919 10.9838 29.6766 10.9838 29.923C10.9838 30.1693 11.0461 30.354 11.2328 30.5388C11.4196 30.7235 11.6063 30.7851 11.8553 30.7851C12.1666 30.7851 12.3533 30.7235 12.5401 30.5388ZM14.1586 14.0354C14.1586 14.2818 14.2831 14.5281 14.4698 14.7128C14.6566 14.8976 14.9056 15.0207 15.1546 15.0207C15.4036 15.0207 15.6526 14.8976 15.8393 14.7128C16.0261 14.5281 16.0883 14.3433 16.0883 14.097C16.0883 13.8507 15.9638 13.6044 15.7771 13.4197C15.5903 13.2349 15.3413 13.1118 15.0923 13.1118C14.8433 13.1118 14.5943 13.2349 14.4076 13.4197C14.2208 13.5428 14.1586 13.7891 14.1586 14.0354ZM20.6326 14.8976C20.8816 15.1439 21.1928 15.267 21.5041 15.267C21.8153 15.267 22.1266 15.1439 22.3756 14.8976C22.6246 14.6512 22.7491 14.4049 22.7491 14.0354C22.7491 13.666 22.6246 13.4197 22.3756 13.1733C22.1266 12.927 21.8153 12.8039 21.5041 12.8039C21.1306 12.8039 20.8816 12.927 20.5703 13.1733C20.3213 13.4197 20.1968 13.7276 20.1968 14.0354C20.2591 14.4049 20.3836 14.6512 20.6326 14.8976ZM18.3293 11.757C18.5783 11.757 18.7651 11.6954 18.9518 11.5107C19.1386 11.326 19.2008 11.1412 19.2008 10.8949C19.2008 10.6486 19.1386 10.4638 18.9518 10.2791C18.7651 10.0944 18.5783 10.0328 18.3293 10.0328C18.0803 10.0328 17.8936 10.0944 17.7068 10.2791C17.5201 10.4638 17.4578 10.6486 17.4578 10.8949C17.4578 11.1412 17.5201 11.326 17.7068 11.5107C17.8936 11.6954 18.0803 11.757 18.3293 11.757ZM7.93356 20.3781C7.93356 20.5629 7.99581 20.7476 8.18256 20.8708C8.30706 20.9939 8.49381 21.1171 8.68056 21.1171C8.86731 21.1171 9.05406 20.9939 9.17856 20.8708C9.30306 20.7476 9.42756 20.5629 9.42756 20.3781C9.42756 20.1934 9.36531 20.0087 9.17856 19.8855C9.05406 19.7623 8.86731 19.7008 8.68056 19.6392C8.49381 19.6392 8.30706 19.7008 8.18256 19.8239C8.05806 20.0087 7.99581 20.1934 7.93356 20.3781ZM5.81706 23.2108C5.75481 23.0876 5.63031 23.0261 5.50581 23.0261C5.38131 23.0261 5.25681 23.0876 5.19455 23.2108C5.07005 23.334 5.00781 23.3955 5.00781 23.5187C5.00781 23.6419 5.07005 23.765 5.19455 23.8266C5.25681 23.9497 5.38131 24.0113 5.50581 24.0113C5.63031 24.0113 5.75481 23.9497 5.81706 23.8266C5.87931 23.765 5.94156 23.6419 5.94156 23.5187C6.00381 23.3955 5.94156 23.334 5.81706 23.2108ZM11.2951 16.6218C11.1083 16.8065 11.0461 16.9913 11.0461 17.2376C11.0461 17.4839 11.1083 17.7302 11.2951 17.8534C11.4818 18.0381 11.6686 18.0997 11.9176 18.0997C12.1666 18.0997 12.4156 17.9765 12.6023 17.7918C12.7891 17.6071 12.8513 17.4223 12.8513 17.176C12.8513 16.9297 12.7891 16.7449 12.6023 16.5602C12.4156 16.3755 12.2288 16.3139 11.9798 16.3139C11.6686 16.3139 11.4196 16.4371 11.2951 16.6218ZM5.07006 17.2376C5.07006 17.3607 5.1323 17.4223 5.19455 17.4839C5.25681 17.5455 5.38131 17.6071 5.44356 17.6686C5.56806 17.6686 5.63031 17.6071 5.69256 17.5455C5.75481 17.4839 5.81706 17.4223 5.81706 17.2992C5.81706 17.176 5.75481 17.1144 5.69256 17.0528C5.63031 16.9913 5.50581 16.9297 5.38131 16.9297C5.25681 16.9297 5.19456 16.9913 5.13231 17.0528C5.13231 17.0528 5.07006 17.1144 5.07006 17.2376ZM8.18256 14.0354C8.18256 14.1586 8.24481 14.2818 8.36931 14.4049C8.49381 14.5281 8.55606 14.5897 8.74281 14.5897C8.86731 14.5897 8.99181 14.5281 9.11631 14.4049C9.17856 14.2818 9.24081 14.1586 9.24081 14.0354C9.24081 13.9123 9.17856 13.7891 9.11631 13.666C8.99181 13.5428 8.86731 13.5428 8.74281 13.5428C8.61831 13.5428 8.49381 13.6044 8.36931 13.666C8.24481 13.7891 8.18256 13.9123 8.18256 14.0354ZM11.2951 10.8949C11.2951 11.0796 11.3573 11.2028 11.4818 11.326C11.6063 11.4491 11.7308 11.5107 11.8553 11.5107C12.0421 11.5107 12.1666 11.4491 12.2911 11.326C12.4156 11.2028 12.4778 11.0796 12.4778 10.8949C12.4778 10.7102 12.4156 10.587 12.2911 10.4638C12.1666 10.3407 12.0421 10.2791 11.8553 10.2791C11.7308 10.2791 11.6063 10.3407 11.4818 10.4638C11.3573 10.587 11.2951 10.7102 11.2951 10.8949ZM21.0061 7.20012C20.8816 7.32328 20.7571 7.50802 20.7571 7.75434C20.7571 7.93908 20.8193 8.12382 21.0061 8.24698C21.1306 8.37014 21.3173 8.43171 21.5041 8.43171C21.7531 8.43171 21.8776 8.37014 22.0021 8.24698C22.1266 8.12382 22.1888 7.93908 22.1888 7.69276C22.1888 7.50802 22.1266 7.32328 22.0021 7.20012C21.8776 7.01539 21.6908 6.9538 21.5041 6.9538C21.3173 6.9538 21.1306 7.01539 21.0061 7.20012ZM15.6526 7.69276C15.6526 7.5696 15.5903 7.44644 15.4658 7.32329C15.4036 7.20013 15.2791 7.20012 15.0923 7.20012C14.9678 7.20012 14.8433 7.26171 14.7188 7.38486C14.5943 7.50802 14.5321 7.5696 14.5321 7.75434C14.5321 7.8775 14.5943 8.00066 14.7188 8.12382C14.8433 8.24698 14.9056 8.24698 15.0923 8.24698C15.2168 8.24698 15.3413 8.1854 15.4658 8.12382C15.5903 7.93908 15.6526 7.81592 15.6526 7.69276ZM17.9558 4.49062C17.9558 4.61378 17.9558 4.73694 18.0803 4.79852C18.1426 4.8601 18.2671 4.92168 18.3916 4.92168C18.5161 4.92168 18.5783 4.8601 18.6406 4.79852C18.7028 4.73694 18.7651 4.61378 18.7651 4.49062C18.7651 4.36747 18.7028 4.30589 18.6406 4.18273C18.5783 4.12115 18.4538 4.05957 18.3916 4.05957C18.2671 4.05957 18.2048 4.12115 18.0803 4.18273C17.9558 4.30589 17.9558 4.42905 17.9558 4.49062ZM25.2391 42.6083C25.2391 42.4852 25.1768 42.362 25.1146 42.2389C24.9901 42.1157 24.9278 42.0541 24.7411 42.0541C24.6166 42.0541 24.4921 42.1157 24.3676 42.2389C24.2431 42.362 24.2431 42.4236 24.2431 42.6083C24.2431 42.7315 24.3053 42.8547 24.3676 42.9162C24.4921 43.0394 24.5543 43.101 24.7411 43.101C24.8656 43.101 24.9901 43.0394 25.1146 42.9162C25.1768 42.8547 25.2391 42.7315 25.2391 42.6083ZM31.5886 42.6083C31.5886 42.4852 31.5263 42.362 31.4641 42.3004C31.4018 42.2389 31.2773 42.1773 31.1528 42.1773C31.0283 42.1773 30.9661 42.1773 30.8416 42.3004C30.7793 42.362 30.7171 42.4852 30.7171 42.6083C30.7171 42.7315 30.7171 42.7931 30.8416 42.9162C30.9038 42.9778 31.0283 43.0394 31.1528 43.0394C31.2773 43.0394 31.3396 42.9778 31.4641 42.9162C31.5263 42.7931 31.5886 42.7315 31.5886 42.6083ZM34.3898 38.9136C34.2031 38.9136 34.0786 38.9751 33.9541 39.0367C33.8296 39.1599 33.8296 39.283 33.8296 39.4062C33.8296 39.5294 33.8296 39.7141 33.9541 39.8373C34.0786 39.9604 34.2031 39.9604 34.3898 39.9604C34.5143 39.9604 34.6388 39.8988 34.7633 39.7757C34.8878 39.6525 34.8878 39.5294 34.9501 39.4062C34.9501 39.283 34.8878 39.1599 34.7633 39.0367C34.6388 38.9136 34.5143 38.852 34.3898 38.9136ZM35.0746 33.7409C35.2613 33.5562 35.3858 33.3098 35.3236 33.0635C35.3236 32.8172 35.2613 32.5709 35.0746 32.3246C34.8878 32.1398 34.6388 32.0782 34.3898 32.0782C34.1408 32.0782 33.8918 32.1398 33.7051 32.3861C33.5183 32.5709 33.3938 32.7556 33.3938 33.0635C33.3938 33.3098 33.4561 33.5562 33.7051 33.7409C33.9541 33.9256 34.1408 34.0488 34.3898 34.0488C34.6388 34.0488 34.8256 33.9872 35.0746 33.7409ZM30.5303 36.8814C30.7171 37.0662 30.9038 37.1893 31.1528 37.1893C31.4018 37.1893 31.6508 37.0662 31.8376 36.8814C32.0243 36.6967 32.0866 36.512 32.0866 36.2656C32.0866 36.0193 31.9621 35.773 31.8376 35.6499C31.6508 35.4651 31.4641 35.4035 31.1528 35.4035C30.9038 35.4035 30.6548 35.5267 30.5303 35.6499C30.3436 35.8346 30.2813 36.0193 30.2191 36.2656C30.2191 36.512 30.3436 36.6967 30.5303 36.8814ZM27.9158 38.7288C27.7291 38.7288 27.5423 38.7904 27.4178 38.9751C27.2311 39.0983 27.1688 39.283 27.1688 39.4678C27.1688 39.6525 27.2311 39.8373 27.4178 40.022C27.5423 40.1452 27.7291 40.2067 27.9158 40.2067C28.1026 40.2067 28.2893 40.1452 28.4138 40.022C28.5383 39.8988 28.6006 39.7141 28.6006 39.5294C28.6006 39.3446 28.5383 39.1599 28.4138 39.0367C28.2893 38.7904 28.1648 38.7288 27.9158 38.7288ZM38.1871 36.2656C38.1871 36.1425 38.1248 35.9578 38.0003 35.8346C37.8758 35.7114 37.7513 35.6499 37.5646 35.6499C37.3778 35.6499 37.2533 35.7114 37.1288 35.8346C37.0043 35.9578 36.9421 36.0809 36.9421 36.2656C36.9421 36.4504 37.0043 36.5735 37.1288 36.6967C37.2533 36.8199 37.3778 36.8814 37.5646 36.8814C37.7513 36.8814 37.8758 36.8199 38.0003 36.6967C38.1248 36.5735 38.1871 36.4504 38.1871 36.2656ZM41.1751 33.4946C41.2996 33.3714 41.3618 33.2483 41.3618 33.0635C41.3618 32.8788 41.2996 32.7556 41.1751 32.6325C41.0506 32.5093 40.9261 32.4477 40.7393 32.4477C40.6148 32.4477 40.4281 32.5093 40.3658 32.6325C40.2413 32.7556 40.1791 32.8788 40.1791 33.0635C40.1791 33.2483 40.2413 33.3714 40.3658 33.4946C40.4903 33.6177 40.6148 33.6793 40.7393 33.6793C40.9261 33.6177 41.0506 33.6177 41.1751 33.4946ZM38.4983 29.923C38.4983 29.6766 38.3738 29.4303 38.1871 29.2456C38.0003 29.0608 37.8136 28.9993 37.5646 28.9993C37.3156 28.9993 37.1288 29.0608 36.9421 29.2456C36.7553 29.4303 36.6931 29.6151 36.6308 29.923C36.6308 30.1693 36.7553 30.4156 36.9421 30.5388C37.1288 30.7235 37.3778 30.8467 37.5646 30.8467C37.8136 30.8467 38.0626 30.7235 38.1871 30.5388C38.3738 30.354 38.4983 30.1693 38.4983 29.923ZM41.2996 27.275C41.4241 27.1519 41.5486 26.9671 41.5486 26.7208C41.5486 26.5361 41.4863 26.3514 41.2996 26.2282C41.1128 26.105 40.9883 25.9819 40.7393 25.9819C40.5526 25.9819 40.3658 26.0435 40.1791 26.2282C40.0546 26.3514 39.9923 26.5361 39.9923 26.7208C39.9923 26.9671 40.0546 27.1519 40.1791 27.275C40.3658 27.3982 40.4903 27.4598 40.7393 27.4598C40.9883 27.4598 41.1751 27.3982 41.2996 27.275ZM44.2876 30.2309C44.3498 30.1077 44.4121 30.0461 44.4121 29.923C44.4121 29.7998 44.4121 29.7382 44.2876 29.6151C44.2253 29.5535 44.1008 29.4919 43.9763 29.4919C43.8518 29.4919 43.7273 29.4919 43.6651 29.6151C43.6028 29.7382 43.5406 29.7998 43.5406 29.923C43.5406 30.0461 43.6028 30.1693 43.6651 30.2309C43.7273 30.2924 43.8518 30.354 43.9763 30.354C44.1008 30.354 44.1631 30.2924 44.2876 30.2309ZM43.9763 23.0261C43.8518 23.0261 43.7273 23.0876 43.6028 23.2108C43.4783 23.334 43.4783 23.3955 43.4783 23.5803C43.4783 23.7034 43.5406 23.8266 43.6028 23.9498C43.7273 24.0729 43.8518 24.1345 43.9763 24.1345C44.1008 24.1345 44.2253 24.0729 44.3498 23.9498C44.4743 23.8266 44.5366 23.765 44.5366 23.5803C44.5366 23.3955 44.4743 23.2724 44.3498 23.2108C44.2253 23.0876 44.1008 23.0261 43.9763 23.0261ZM40.2413 20.9324C40.4281 21.0555 40.5526 21.1787 40.8016 21.1787C40.9883 21.1787 41.1751 21.1171 41.3618 20.9324C41.4863 20.8092 41.6108 20.6245 41.6108 20.4397C41.6108 20.1934 41.5486 20.0087 41.3618 19.8855C41.1751 19.7008 40.9883 19.6392 40.8016 19.6392C40.6148 19.6392 40.4281 19.7008 40.2413 19.8855C40.1168 20.0087 40.0546 20.1934 40.0546 20.4397C39.9923 20.6245 40.0546 20.8092 40.2413 20.9324ZM43.9763 16.7449C43.8518 16.7449 43.7273 16.8065 43.6651 16.8681C43.6028 16.9913 43.5406 17.0528 43.5406 17.176C43.5406 17.2992 43.6028 17.4223 43.6651 17.4839C43.7896 17.6071 43.8518 17.6686 43.9763 17.6686C44.1008 17.6686 44.1631 17.6686 44.2876 17.5455C44.3498 17.4223 44.4121 17.2992 44.4121 17.176C44.4121 17.0528 44.3498 16.9913 44.2876 16.8681C44.2253 16.8065 44.1008 16.8065 43.9763 16.7449ZM40.3658 13.666C40.2413 13.7891 40.1791 13.9123 40.1791 14.0354C40.1791 14.1586 40.2413 14.3433 40.3658 14.4665C40.4903 14.5897 40.6148 14.6512 40.7393 14.6512C40.9261 14.6512 41.0506 14.5897 41.1751 14.4665C41.2996 14.3433 41.3618 14.2202 41.3618 14.0354C41.3618 13.8507 41.2996 13.7276 41.1751 13.666C41.0506 13.5428 40.9261 13.4812 40.7393 13.4812C40.6148 13.4812 40.4903 13.5428 40.3658 13.666ZM36.8798 17.8534C37.0666 18.0381 37.2533 18.0997 37.5023 18.0997C37.7513 18.0997 38.0003 17.9765 38.1248 17.8534C38.3116 17.6686 38.3738 17.4839 38.4361 17.176C38.4361 16.9297 38.3116 16.6834 38.1871 16.4986C38.0003 16.3139 37.7513 16.2523 37.5646 16.2523C37.3156 16.2523 37.0666 16.3139 36.8798 16.4986C36.6931 16.6834 36.6308 16.9297 36.6308 17.176C36.6308 17.4839 36.6931 17.7302 36.8798 17.8534ZM27.0443 14.8976C27.2933 15.1439 27.6046 15.267 27.9158 15.267C28.2893 15.267 28.5383 15.1439 28.7873 14.8976C29.0363 14.6512 29.1608 14.3433 29.1608 14.0354C29.1608 13.666 29.0363 13.4197 28.7873 13.1733C28.5383 12.927 28.2271 12.8039 27.9158 12.8039C27.6046 12.8039 27.2933 12.927 27.0443 13.1733C26.7953 13.4197 26.6708 13.7276 26.6708 14.0354C26.6708 14.4049 26.7953 14.6512 27.0443 14.8976ZM25.4881 11.5723C25.6748 11.3875 25.7993 11.1412 25.7993 10.8333C25.7993 10.5254 25.6748 10.2791 25.4881 10.0944C25.3013 9.90963 25.0523 9.78647 24.7411 9.78647C24.4921 9.78647 24.2431 9.90963 23.9941 10.0944C23.8073 10.2791 23.6828 10.5254 23.6828 10.8333C23.6828 11.0796 23.8073 11.3259 23.9941 11.5723C24.1808 11.757 24.4298 11.8802 24.7411 11.8802C25.0523 11.8802 25.2391 11.757 25.4881 11.5723ZM33.6428 14.7128C33.8296 14.8976 34.0786 15.0207 34.3276 15.0207C34.5766 15.0207 34.8256 14.9591 35.0123 14.7744C35.1991 14.5897 35.3236 14.3433 35.2613 14.097C35.2613 13.8507 35.1368 13.6044 34.9501 13.4197C34.7633 13.2349 34.5766 13.1118 34.2653 13.1118C34.0163 13.1118 33.7673 13.1733 33.5806 13.3581C33.3938 13.5428 33.2693 13.7891 33.2693 14.0354C33.3316 14.2818 33.4561 14.5281 33.6428 14.7128ZM31.8376 11.5107C32.0243 11.326 32.0866 11.0796 32.0866 10.8949C32.0866 10.6486 31.9621 10.4023 31.8376 10.2791C31.6508 10.0944 31.4641 9.9712 31.1528 9.9712C30.9038 9.9712 30.6548 10.0944 30.5303 10.2791C30.3436 10.4638 30.2813 10.6486 30.2191 10.8949C30.2191 11.1412 30.3436 11.326 30.5303 11.5107C30.7171 11.6954 30.9038 11.757 31.1528 11.757C31.4018 11.757 31.6508 11.6954 31.8376 11.5107ZM37.1288 11.2644C37.2533 11.3875 37.3778 11.4491 37.5646 11.4491C37.7513 11.4491 37.8758 11.3875 38.0003 11.2644C38.1248 11.1412 38.1871 11.0181 38.1871 10.8333C38.1871 10.6486 38.1248 10.5254 38.0003 10.4023C37.8758 10.2791 37.7513 10.2175 37.5646 10.2175C37.3778 10.2175 37.2533 10.2791 37.1288 10.4023C37.0043 10.5254 36.9421 10.6486 36.9421 10.8333C36.9421 11.0181 37.0043 11.1412 37.1288 11.2644ZM33.9541 7.32329C33.8296 7.44644 33.8296 7.5696 33.8296 7.69276C33.8296 7.81592 33.8918 7.93908 33.9541 8.06224C34.0786 8.1854 34.2031 8.1854 34.3898 8.24698C34.5143 8.30856 34.6388 8.24698 34.7633 8.12382C34.8878 8.00066 34.9501 7.8775 34.8878 7.75434C34.8878 7.5696 34.8256 7.44644 34.7633 7.32329C34.6388 7.20013 34.5143 7.20012 34.3898 7.20012C34.2031 7.13854 34.0786 7.20013 33.9541 7.32329ZM30.8416 4.79852C30.9038 4.8601 31.0283 4.92168 31.1528 4.92168C31.2773 4.92168 31.3396 4.8601 31.4018 4.79852C31.4641 4.73694 31.5263 4.61378 31.5263 4.49062C31.5263 4.36747 31.4641 4.30589 31.4018 4.18273C31.3396 4.12115 31.2773 4.05957 31.1528 4.05957C31.0283 4.05957 30.9661 4.05957 30.8416 4.18273C30.7793 4.24431 30.7171 4.36747 30.7171 4.49062C30.7171 4.67536 30.7793 4.73694 30.8416 4.79852ZM27.4178 7.20012C27.2933 7.32328 27.1688 7.50802 27.1688 7.75434C27.1688 7.93908 27.2311 8.12382 27.4178 8.24698C27.5423 8.37014 27.7291 8.49329 27.9158 8.49329C28.1026 8.49329 28.2893 8.43172 28.4138 8.24698C28.5383 8.12382 28.6628 7.93908 28.6628 7.75434C28.6628 7.50802 28.6006 7.38486 28.4138 7.20012C28.2893 7.07696 28.1026 7.01538 27.9158 6.9538C27.7291 6.9538 27.5423 7.01539 27.4178 7.20012ZM25.2391 4.49062C25.2391 4.36747 25.2391 4.24431 25.1146 4.18273C24.9901 4.05957 24.8656 4.05957 24.7411 4.05957C24.6166 4.05957 24.4921 4.12115 24.3676 4.18273C24.3053 4.24431 24.2431 4.36747 24.2431 4.55221C24.2431 4.67537 24.3053 4.79853 24.3676 4.92168C24.4921 5.04484 24.5543 5.10642 24.7411 5.10642C24.8656 5.10642 24.9901 5.04484 25.1146 4.92168C25.1768 4.79853 25.2391 4.67536 25.2391 4.49062Z" fill="#CDCDCD"/>
<path d="M32.8949 16.5294C32.8326 16.4678 32.7704 16.4062 32.7081 16.4062H17.4569C17.3946 16.4062 17.3324 16.4678 17.2701 16.5294L10.7339 22.9953C10.6716 23.0568 10.6094 23.1184 10.6094 23.18C10.6094 23.2416 10.6716 23.3032 10.7339 23.3647L17.3324 29.8922L17.1456 30.1385C17.0834 30.2001 17.0834 30.2616 17.0834 30.3232C17.0834 30.3848 17.0834 30.4464 17.1456 30.508C17.3946 30.8159 17.7059 31.1238 18.0794 31.4932C18.4529 31.8627 18.7641 32.109 19.0131 32.2322C19.0754 32.2938 19.1376 32.2938 19.1999 32.2938C19.2621 32.2938 19.3244 32.2322 19.3866 32.1706L19.5111 31.9859L24.7401 37.1585L24.8646 37.2201C24.8646 37.2817 24.9891 37.2817 25.1136 37.2817H25.2381C25.3004 37.2817 25.3626 37.2817 25.4249 37.2201L30.7784 31.9243L31.0896 32.2322C31.1519 32.2938 31.2141 32.2938 31.2764 32.2938C31.3386 32.2938 31.4009 32.2938 31.4631 32.2322C31.7121 32.0474 32.0234 31.7395 32.4591 31.3085C32.8949 30.8774 33.1439 30.5695 33.2061 30.4464C33.2061 30.3848 33.2684 30.3232 33.2684 30.2616C33.2684 30.2001 33.2061 30.1385 33.2061 30.1385L32.9571 29.8922L39.5556 23.3647C39.6179 23.3032 39.6179 23.2416 39.6179 23.18C39.6179 23.1184 39.6179 23.0568 39.5556 22.9953L32.8949 16.5294ZM25.4871 25.9511C25.4871 25.8895 25.5494 25.8895 25.5494 25.8895L29.5956 29.8922L29.2844 30.0769C29.2221 30.1385 29.2221 30.1385 29.1599 30.2001C29.1599 30.2616 29.1599 30.2616 29.1599 30.3232C29.1599 30.3848 29.1599 30.4464 29.2221 30.4464L29.5956 30.8159L26.4831 33.8948V33.4638C26.4831 33.4022 26.4831 33.3406 26.4209 33.279C26.3586 33.2175 26.2964 33.2175 26.2341 33.2175H23.8064C23.7441 33.2175 23.6819 33.2175 23.6196 33.279C23.5574 33.3406 23.4951 33.4022 23.4951 33.4638V33.9564L20.4449 30.939L20.8184 30.6311C20.8806 30.5695 20.8806 30.508 20.9429 30.4464C20.9429 30.3848 20.9429 30.3232 20.8806 30.2616C20.7561 30.0769 20.6316 30.0153 20.6316 29.9537C20.6316 29.9537 20.6316 29.9537 20.5694 29.8922L20.5071 29.8306C20.7561 29.5227 21.3786 28.8453 22.3746 27.9216C23.3706 26.8748 24.0554 26.259 24.4289 25.9511L24.8024 26.259C24.8646 26.3206 24.9269 26.3206 24.9891 26.3206C25.0514 26.3206 25.1136 26.3206 25.1759 26.259C25.1759 26.1974 25.3004 26.0742 25.4871 25.9511ZM26.8566 24.5347C26.9189 24.4732 26.9811 24.4116 26.9811 24.35C26.9811 24.2884 26.9811 24.2268 26.9189 24.1653H36.4431L31.7744 28.7837C31.7744 28.7837 31.7744 28.7837 31.7121 28.7222C31.5254 28.5374 31.4009 28.4143 31.3386 28.4143C31.2764 28.4143 31.2141 28.4143 31.1519 28.4143C31.0896 28.4143 31.0274 28.4758 31.0274 28.4758L30.7161 28.7837L26.7321 24.7811L26.8566 24.5347ZM27.4169 22.7489H25.4249L25.1759 22.5026C25.1136 22.441 25.0514 22.441 24.9891 22.441C24.9269 22.441 24.8646 22.441 24.8024 22.5026L24.4911 22.7489H22.6236L18.8264 17.8842H31.2141L27.4169 22.7489ZM37.2524 22.7489C36.5676 22.7489 35.3226 22.7489 33.4551 22.8105C31.3386 22.8105 29.9069 22.8105 29.1599 22.8105L32.6459 18.3152L37.2524 22.7489ZM23.1216 24.1653C23.0594 24.2268 23.0594 24.2884 23.0594 24.35C23.0594 24.4116 23.0594 24.4732 23.1216 24.5347L23.4329 24.8426L23.3706 24.9042L19.5734 28.6606L19.5111 28.7222L19.1999 28.4143C19.1376 28.3527 19.0754 28.3527 19.0131 28.3527C18.9509 28.3527 18.8886 28.3527 18.8264 28.4143L18.3906 28.7837L13.7219 24.1037L23.1216 24.1653ZM17.3946 18.3152L20.8184 22.6874H12.9749L17.3946 18.3152Z" fill="#CDCDCD"/>
</svg>
