<svg width="83" height="33" viewBox="0 0 83 33" fill="none" xmlns="http://www.w3.org/2000/svg">
<g clip-path="url(#clip0_111:13809)">
<path d="M14.3947 27.6824C9.24927 27.6824 5.19531 23.4292 5.19531 18.5685C5.19531 14.0115 8.93742 9.60645 14.3947 9.60645C19.696 9.60645 23.594 13.7077 23.594 18.5685C23.594 23.5811 19.3841 27.6824 14.3947 27.6824Z" fill="#CDCDCD"/>
<path d="M37.1603 14.0107C37.784 14.0107 38.4077 14.0107 39.0314 14.0107C39.0314 16.8968 39.0314 19.7829 39.0314 22.669C38.5636 22.669 38.0959 22.669 37.4722 22.669C37.4722 20.8462 37.4722 19.0234 37.4722 17.2006C37.4722 17.2006 37.4722 17.2006 37.3163 17.2006C37.3163 17.3525 37.1603 17.5044 37.1603 17.6563C36.5367 19.1753 35.913 20.6943 35.2893 22.2133C35.1334 22.6689 35.1334 22.669 34.6656 22.669C34.5097 22.669 34.1978 22.669 33.886 22.669C33.1064 20.8462 32.3268 19.0234 31.5472 17.2006H31.3912C31.3912 19.0234 31.3912 20.6943 31.3912 22.5171C30.9235 22.5171 30.4557 22.5171 29.832 22.5171C29.832 19.631 29.832 16.8968 29.832 14.0107C30.4557 14.0107 31.0794 14.0107 31.7031 14.0107C32.6386 16.1373 33.4182 18.112 34.3538 20.2386H34.5097C35.4452 18.112 36.2248 16.1373 37.1603 14.0107Z" fill="#CDCDCD"/>
<path d="M22.5039 8.69475C22.5039 6.87197 23.9072 5.50488 25.7782 5.50488C27.4934 5.50488 29.0526 6.87197 29.0526 8.54285C29.0526 10.3656 27.6493 11.8846 25.7782 11.8846C23.9072 12.0365 22.5039 10.5175 22.5039 8.69475Z" fill="#CDCDCD"/>
<path d="M63.5081 22.669C62.8844 22.669 62.4167 22.669 61.793 22.669C61.793 19.7829 61.793 16.8968 61.793 14.0107C61.9489 14.0107 62.1048 14.0107 62.2607 14.0107C63.1963 14.0107 64.2877 14.0107 65.2232 14.0107C65.5351 14.0107 66.0029 14.0107 66.3147 14.1626C67.4061 14.4664 68.0298 15.2259 68.1857 16.2892C68.3417 18.112 67.2502 19.3272 65.5351 19.3272C65.0673 19.3272 64.5996 19.3272 63.9759 19.3272C63.82 19.3272 63.664 19.3272 63.3522 19.3272C63.5081 20.3905 63.5081 21.4538 63.5081 22.669ZM63.5081 17.9601C63.664 17.9601 63.8199 17.9601 63.8199 17.9601C64.2877 17.9601 64.9114 17.9601 65.3792 17.9601C65.5351 17.9601 65.691 17.9601 65.8469 17.8082C66.3147 17.6563 66.6265 17.2006 66.6265 16.4411C66.6265 15.8335 66.3147 15.3778 65.691 15.3778C64.9114 15.2259 64.2877 15.3778 63.5081 15.3778C63.5081 16.2892 63.5081 17.0487 63.5081 17.9601Z" fill="#CDCDCD"/>
<path d="M73.9572 22.6699C73.4895 22.6699 73.0217 22.6699 72.554 22.6699C72.554 22.518 72.554 22.2142 72.554 22.0623C72.398 22.2142 72.2421 22.3661 71.9303 22.518C71.1507 22.9737 70.3711 22.9737 69.5915 22.6699C68.8118 22.3661 68.5 21.7585 68.5 20.999C68.5 20.2395 68.9678 19.6319 69.7474 19.3281C70.0592 19.1762 70.527 19.1762 70.9947 19.1762C71.3066 19.1762 71.7743 19.1762 72.0862 19.1762C72.554 19.1762 72.7099 19.0243 72.554 18.5687C72.554 18.4168 72.398 18.2649 72.2421 18.113C71.7744 17.6573 70.3711 17.6573 70.0592 18.5687C70.0592 18.7206 69.9033 18.7206 69.9033 18.8724C69.4355 18.8724 69.1237 18.8724 68.6559 18.8724C68.6559 18.2649 68.9678 17.8092 69.2796 17.3535C70.2151 16.4421 72.2421 16.4421 73.3336 17.3535C73.8013 17.6573 74.1132 18.2649 74.1132 18.8724C73.9573 19.7838 73.9572 21.1509 73.9572 22.6699C73.9572 22.518 73.9572 22.518 73.9572 22.6699ZM72.398 19.9357C71.7743 19.9357 71.3066 19.9357 70.6829 19.9357C70.2151 19.9357 69.9033 20.3914 69.9033 20.8471C69.9033 21.3028 70.2151 21.6066 70.8388 21.6066C71.7743 21.7585 72.398 20.999 72.398 19.9357Z" fill="#CDCDCD"/>
<path d="M43.3951 16.29C45.2662 16.29 46.6695 17.6571 46.6695 19.4799C46.6695 21.4546 45.2662 22.6698 43.3951 22.6698C41.3681 22.6698 40.1208 21.3027 39.9648 19.4799C39.9648 17.6571 41.3681 16.29 43.3951 16.29ZM45.2662 19.6318C45.1102 19.6318 45.1102 19.6318 45.2662 19.6318C45.1102 19.4799 45.2662 19.4799 45.1102 19.328C45.1102 18.2647 44.3306 17.6571 43.3951 17.6571C42.4596 17.6571 41.68 18.2647 41.5241 19.1761C41.5241 19.4799 41.5241 19.9356 41.68 20.2394C41.8359 20.847 42.3037 21.3027 43.0833 21.3027C43.8629 21.4546 44.4866 21.1508 44.7984 20.5432C44.9543 20.3913 45.1102 19.9356 45.2662 19.6318Z" fill="#CDCDCD"/>
<path d="M50.5694 16.29C52.4404 16.29 53.8437 17.6571 53.8437 19.4799C53.8437 21.4546 52.4404 22.8217 50.5694 22.6698C48.6983 22.6698 47.295 21.3027 47.295 19.4799C47.1391 17.3533 48.8543 16.29 50.5694 16.29ZM52.2845 19.6318C52.2845 19.4799 52.2845 19.328 52.2845 19.1761C52.1286 18.2647 51.5049 17.6571 50.5694 17.6571C49.6339 17.6571 49.0102 18.1128 48.8543 19.0242C48.6983 19.4799 48.8543 19.9356 48.8543 20.2394C49.1661 20.9989 49.7898 21.3027 50.5694 21.3027C51.349 21.3027 51.9727 20.847 52.1286 20.2394C52.1286 20.0875 52.2845 19.7837 52.2845 19.6318Z" fill="#CDCDCD"/>
<path d="M60.5458 22.6694C60.078 22.6694 59.6103 22.6694 58.9866 22.6694C58.9866 22.5175 58.9866 22.2137 58.9866 22.0618C58.9866 21.1504 58.9866 20.239 58.9866 19.3276C58.9866 19.1757 58.9866 19.0238 58.9866 18.8719C58.8306 18.1124 58.5188 17.6567 57.7392 17.6567C57.1155 17.6567 56.4918 17.9605 56.18 18.72C56.18 19.0238 56.0241 19.1757 56.0241 19.4795C56.0241 20.3909 56.0241 21.3023 56.0241 22.2137C56.0241 22.3656 56.0241 22.5175 56.0241 22.8213C55.5563 22.8213 55.0885 22.8213 54.4648 22.8213C54.4648 20.8466 54.4648 18.72 54.4648 16.7453C54.9326 16.7453 55.4004 16.7453 55.8681 16.7453C55.8681 17.0491 55.8681 17.201 55.8681 17.5048C56.0241 17.5048 56.0241 17.3529 56.0241 17.3529C56.8037 16.5934 57.5833 16.4415 58.5188 16.7453C59.4543 17.0491 60.078 17.6567 60.078 18.72C60.5458 19.7833 60.5458 21.1504 60.5458 22.6694Z" fill="#CDCDCD"/>
<path d="M75.6728 25.0996C75.9847 24.492 76.1406 23.7325 76.2965 23.1249C76.4524 22.8211 76.4524 22.5173 76.2965 22.2135C75.6728 20.5427 75.0491 18.8718 74.4255 17.049C74.4255 16.8971 74.2695 16.5933 74.2695 16.4414C74.7373 16.4414 75.2051 16.4414 75.6728 16.4414C75.8287 16.4414 75.8287 16.7452 75.9847 16.7452C76.2965 17.8085 76.7643 18.8718 77.0761 19.9351C77.0761 20.087 77.232 20.2389 77.232 20.5427C77.5439 19.7832 77.6998 19.1756 78.0116 18.4161C78.3235 17.8085 78.4794 17.049 78.7913 16.4414C79.259 16.4414 79.7268 16.4414 80.3505 16.4414C80.1946 17.049 79.8827 17.6566 79.7268 18.1123C78.9472 20.2389 78.1676 22.5173 77.388 24.6439C77.232 25.0996 77.232 25.0996 76.6084 25.0996C76.4524 25.0996 76.1406 25.0996 75.9847 25.0996C75.8287 25.0996 75.8287 25.0996 75.6728 25.0996Z" fill="#CDCDCD"/>
</g>
<defs>
<clipPath id="clip0_111:13809">
<rect width="82.0146" height="32.3544" fill="white" transform="translate(0.984375 0.188477)"/>
</clipPath>
</defs>
</svg>
