<svg width="30" height="30" viewBox="0 0 30 30" fill="none" xmlns="http://www.w3.org/2000/svg">
<g clip-path="url(#clip0_111:14132)">
<path d="M17.7385 7.5005C17.7385 9.0005 16.5979 10.0966 15.115 10.0966C13.6891 10.0966 12.6055 8.9428 12.6055 7.5005C12.6055 6.05819 13.7462 4.96203 15.172 4.96203C16.6549 4.90434 17.7385 6.05819 17.7385 7.5005Z" fill="#616161"/>
<path d="M15.1147 12.6348C16.5405 12.6348 17.6812 13.7309 17.7383 15.1732C17.7383 16.6732 16.6546 17.8271 15.2287 17.8271C13.8029 17.8271 12.6622 16.7309 12.6622 15.2886C12.6052 13.8463 13.7459 12.6925 15.1147 12.6348Z" fill="#616161"/>
<path d="M15.1736 25.6161C13.7477 25.6161 12.6641 24.4623 12.6641 23.02C12.6641 21.5777 13.8047 20.4238 15.2306 20.4238C16.6565 20.4238 17.7971 21.52 17.7971 22.9623C17.7401 24.4623 16.5994 25.6161 15.1736 25.6161Z" fill="#616161"/>
</g>
<defs>
<clipPath id="clip0_111:14132">
<rect width="30" height="30" fill="white"/>
</clipPath>
</defs>
</svg>
