<svg width="19" height="33" viewBox="0 0 19 33" fill="none" xmlns="http://www.w3.org/2000/svg">
<path d="M5.5741 8.82671C5.17486 8.49018 4.84216 8.22095 4.44292 7.95171C4.11022 7.74979 4.04368 7.48056 4.04368 7.14402C4.04368 6.9421 4.04368 6.74018 4.04368 6.60556C4.11022 6.0671 3.97714 5.73056 3.51136 5.39402C2.77942 4.85556 2.77942 3.91325 3.17866 3.30748C3.84406 2.36518 4.84216 2.36518 5.44102 2.70171C6.17296 3.17287 6.50566 4.04787 6.10642 4.92287C5.97334 5.1921 5.64064 5.39402 5.44102 5.59595C5.30794 5.73056 5.2414 5.86518 5.17486 6.0671C5.10832 7.14402 5.17486 7.07671 5.97334 7.74979C6.50566 8.22095 6.9049 8.28825 7.43722 7.88441C7.70338 7.68248 8.03608 7.48056 8.30224 7.41325C8.83456 7.21133 8.96764 6.87479 8.9011 6.33633C8.83456 5.73056 8.9011 5.05748 8.9011 4.45171C8.9011 4.24979 8.83456 4.11518 8.63494 3.98056C8.36878 3.77864 8.10262 3.50941 7.903 3.24018C7.50376 2.49979 7.83646 1.49018 8.5684 1.08633C9.43342 0.615176 10.2984 0.884407 10.7642 1.6921C11.23 2.49979 11.0304 3.30748 10.2984 3.84595C10.0988 4.04787 9.96574 4.24979 9.96574 4.58633C10.0323 5.25941 9.96574 5.93248 9.96574 6.60556C9.96574 6.9421 10.0988 7.07671 10.365 7.21133C10.8973 7.48056 11.4296 7.74979 11.8954 8.08633C12.1616 8.22095 12.2946 8.15364 12.4943 8.01902C12.6273 7.88441 12.7604 7.74979 12.8935 7.68248C13.692 7.14402 13.692 7.14402 13.692 6.20171C13.692 5.86518 13.5589 5.66325 13.2927 5.46133C12.3612 4.85556 12.2946 3.50941 13.2927 2.70171C13.9581 2.36518 15.0893 2.36518 15.6216 3.30748C16.0874 4.04787 15.8878 4.99018 15.1559 5.52864C14.8232 5.73056 14.7566 5.99979 14.7566 6.33633C14.7566 6.60556 14.7566 6.87479 14.7566 7.07671C14.7566 7.48056 14.6901 7.74979 14.2908 8.01902C13.9581 8.22095 13.692 8.49018 13.3593 8.75941C13.2262 8.82671 13.2262 8.89402 13.4258 9.02864C14.2243 9.49979 15.0228 9.90364 15.8212 10.3748C16.4201 10.7113 17.019 11.0479 17.6178 11.3844C18.0171 11.5863 18.2167 11.8556 18.2167 12.394C18.2167 15.1536 18.2167 17.9806 18.2167 20.7402C18.2167 21.2786 18.0171 21.5479 17.5513 21.7498C16.154 22.4902 14.7566 23.2979 13.3593 24.1056C13.2927 24.1056 13.2927 24.1729 13.2262 24.2402C13.6254 24.5094 13.9581 24.8459 14.2908 25.1152C14.6235 25.3171 14.6901 25.5863 14.6901 25.9229C14.6901 26.1248 14.6901 26.3267 14.6901 26.4613C14.6235 26.9998 14.7566 27.3363 15.2224 27.6729C15.8213 28.0767 15.9543 28.8844 15.6216 29.5575C15.3555 30.0959 14.8897 30.6344 13.9581 30.5671C13.3593 30.4998 12.6273 29.9613 12.4943 29.3556C12.3612 28.7498 12.4277 28.0767 13.2262 27.5383C13.4924 27.3363 13.5589 27.2017 13.5589 26.8652C13.5589 25.9229 13.4924 25.9902 12.827 25.3171C12.2946 24.7786 11.8289 24.7786 11.23 25.1825C11.0304 25.3171 10.8308 25.519 10.5646 25.5863C9.83266 25.7883 9.69958 26.2594 9.76612 26.9325C9.83266 27.269 9.76612 27.6056 9.76612 28.0094C9.76612 28.5479 9.69958 29.0863 10.365 29.2883C11.1635 30.1633 11.0304 31.2402 10.1654 31.8459C9.63304 32.2498 8.76802 32.1825 8.2357 31.7786C7.63684 31.3075 7.43722 30.5671 7.76992 29.894C7.903 29.5575 8.2357 29.2883 8.50186 29.0863C8.63494 28.9517 8.76802 28.8844 8.76802 28.6825C8.76802 27.8748 8.76802 27.1344 8.76802 26.3267C8.76802 26.1248 8.70148 26.0575 8.5684 25.9229C7.96954 25.6536 7.37068 25.3171 6.83836 24.9806C6.63874 24.8459 6.43912 24.8459 6.30604 24.9806C5.97334 25.2498 5.5741 25.519 5.2414 25.7883C4.97524 25.9902 5.04178 27.2017 5.30794 27.4709C5.44102 27.6056 5.64064 27.6729 5.77372 27.8075C6.37258 28.4133 6.37258 29.4902 5.77372 30.0959C5.17486 30.7017 4.17676 30.7017 3.5779 30.0959C2.64634 29.2883 3.04558 27.9421 3.77752 27.4709C4.11022 27.269 4.11022 27.0671 4.11022 26.7979C4.11022 26.4613 4.11022 26.1248 4.11022 25.8556C4.11022 25.519 4.2433 25.3171 4.50946 25.1152C4.84216 24.9133 5.17486 24.644 5.50756 24.3748C5.5741 24.3075 5.64064 24.2402 5.44102 24.1056C4.70908 23.7017 4.04368 23.2979 3.31174 22.894C2.64634 22.4902 1.98094 22.1536 1.24901 21.7498C0.849766 21.5479 0.650146 21.2786 0.650146 20.8075C0.650146 18.0479 0.650146 15.2209 0.650146 12.4613C0.650146 11.9902 0.783226 11.7209 1.24901 11.4517C2.38018 10.8459 3.51136 10.2402 4.64254 9.63441C4.9087 9.23056 5.2414 9.02864 5.5741 8.82671ZM4.04368 15.9613C4.11022 15.9613 4.11022 15.9613 4.17676 15.9613C4.77562 16.9036 5.30794 17.9133 5.9068 18.8556C6.10642 19.1921 6.30604 19.3267 6.5722 19.2594C6.83836 19.1921 6.9049 19.0575 6.9049 18.5863C6.9049 17.1729 6.9049 15.7594 6.9049 14.3459C6.9049 14.2786 6.9049 14.144 6.9049 14.0767C6.83836 13.8075 6.70528 13.6729 6.43912 13.6729C6.2395 13.6729 6.03988 13.8075 6.03988 14.0767C6.03988 14.2113 6.03988 14.4133 6.03988 14.5479C6.03988 15.4229 6.03988 16.2306 6.03988 17.2402C5.70718 16.7017 5.44102 16.2306 5.17486 15.7594C4.77562 15.1536 4.44292 14.5479 4.04368 13.9421C3.84406 13.6056 3.51136 13.6056 3.31174 13.9421C3.2452 14.0767 3.2452 14.2113 3.17866 14.3459C3.17866 14.6152 3.17866 14.9517 3.17866 15.2209C3.17866 16.3652 3.17866 17.4421 3.17866 18.5863C3.17866 18.8556 3.17866 19.0575 3.37828 19.1921C3.64444 19.394 3.9106 19.3267 4.04368 19.0575C4.11022 18.9229 4.11022 18.7209 4.11022 18.519C4.04368 17.5767 4.04368 16.769 4.04368 15.9613ZM7.76992 16.4325C7.76992 17.1729 7.76992 17.9133 7.76992 18.6536C7.76992 18.9902 8.03608 19.2594 8.2357 19.2594C8.50186 19.2594 8.70148 18.9902 8.70148 18.6536C8.70148 18.5863 8.70148 18.4517 8.70148 18.3844C8.70148 18.1825 8.70148 17.9806 8.70148 17.8459C8.70148 17.5767 8.70148 17.2402 8.76802 16.9709C9.03418 16.9709 9.36688 16.9036 9.63304 16.9036C9.83266 16.9036 10.0323 16.9036 10.1654 16.9036C10.4315 16.9036 10.4981 16.7017 10.4981 16.4998C10.4981 16.2306 10.365 16.0959 10.1654 16.0959C10.0323 16.0959 9.83266 16.0959 9.69958 16.0959C9.36688 16.0959 9.10072 16.0286 8.76802 16.0286C8.76802 15.6921 8.76802 15.3556 8.70148 15.0863C8.70148 14.5479 8.70148 14.6152 9.2338 14.6152C9.83266 14.6152 10.4315 14.6152 11.0304 14.6152C11.4296 14.6152 11.6292 14.3459 11.4962 14.0094C11.4296 13.8075 11.23 13.7402 11.0304 13.7402C10.2319 13.7402 9.36688 13.7402 8.5684 13.7402C7.96954 13.7402 7.83646 13.8748 7.83646 14.5479C7.76992 15.0863 7.76992 15.7594 7.76992 16.4325ZM13.5589 16.7017C13.5589 17.3748 13.5589 18.0479 13.5589 18.7209C13.5589 19.0575 13.692 19.1921 14.0247 19.1921C14.2908 19.1921 14.4239 19.0575 14.4239 18.7209C14.4239 18.5863 14.4239 18.4517 14.4239 18.3171C14.4239 17.3748 14.4239 16.3652 14.4239 15.4229C14.4239 15.1536 14.4239 14.8844 14.4239 14.6152C14.6901 14.6152 15.0228 14.5479 15.2889 14.5479C15.3555 14.5479 15.422 14.5479 15.4886 14.5479C15.7547 14.5479 15.8878 14.3459 15.8878 14.0767C15.8878 13.8075 15.7547 13.6729 15.422 13.6729C14.4239 13.6729 13.4258 13.6729 12.4277 13.6729C12.1616 13.6729 12.0285 13.8075 12.0285 14.0767C12.0285 14.3459 12.1616 14.4806 12.4277 14.4806C12.6939 14.4806 12.96 14.4806 13.2262 14.4806C13.4258 14.4806 13.4924 14.5479 13.4924 14.7498C13.5589 15.4229 13.5589 16.0959 13.5589 16.7017ZM14.2243 4.72095C14.6235 4.72095 14.8232 4.45171 14.8232 4.04787C14.8232 3.77864 14.557 3.50941 14.2908 3.4421C14.0247 3.4421 13.6254 3.84595 13.6254 4.11518C13.6254 4.51902 13.8916 4.72095 14.2243 4.72095ZM14.2243 28.144C13.8916 28.144 13.6254 28.3459 13.6254 28.7498C13.6254 29.019 14.0247 29.4229 14.2908 29.4229C14.557 29.4229 14.8232 29.1536 14.8232 28.8171C14.8232 28.4133 14.6235 28.144 14.2243 28.144ZM5.17486 4.18248C5.17486 3.77864 4.9087 3.4421 4.576 3.50941C4.30984 3.50941 4.04368 3.77864 4.04368 4.11518C4.04368 4.51902 4.30984 4.78825 4.64254 4.78825C5.04178 4.72095 5.17486 4.58633 5.17486 4.18248ZM5.17486 28.6825C5.17486 28.2786 5.04178 28.144 4.64254 28.144C4.2433 28.144 3.97714 28.4133 4.04368 28.8171C4.04368 29.1536 4.30984 29.4229 4.576 29.4229C4.9087 29.4229 5.17486 29.0863 5.17486 28.6825ZM10.0323 2.5671C10.0323 2.23056 9.83266 1.89402 9.49996 1.89402C9.16726 1.89402 8.9011 2.16325 8.9011 2.49979C8.9011 2.83633 9.16726 3.10556 9.43342 3.10556C9.69958 3.17287 9.96574 2.90364 10.0323 2.5671ZM10.0323 30.2979C10.0323 29.9613 9.69958 29.6921 9.43342 29.6921C9.16726 29.7594 8.9011 30.0286 8.9011 30.2979C8.9011 30.6344 9.16726 30.9036 9.49996 30.9036C9.76612 30.9709 10.0323 30.6344 10.0323 30.2979Z" fill="#04AFBA"/>
</svg>
