<svg width="28" height="28" viewBox="0 0 28 28" fill="none" xmlns="http://www.w3.org/2000/svg">
<path d="M27.9792 14.0224C27.9792 21.7543 21.7543 27.9792 14.0224 27.9792C6.2904 27.9792 0 21.6888 0 14.0224C0 6.35593 6.2904 0 13.9568 0C21.6233 0 27.9792 6.2904 27.9792 14.0224ZM22.213 20.968C21.1646 19.0023 19.0678 17.6262 16.6434 17.6262C16.5123 17.6262 16.3813 17.6262 16.2502 17.6918C15.5294 17.9539 14.7431 18.0849 13.9568 18.0849C13.1705 18.0849 12.3842 17.9539 11.6635 17.6918C11.5324 17.6262 11.4014 17.6262 11.2703 17.6262C8.84588 17.6262 6.8146 19.0023 5.70068 20.968C7.66643 23.3269 10.6151 24.834 13.9568 24.834C17.2986 24.834 20.2472 23.3269 22.213 20.968ZM9.04245 10.4185C9.04245 13.1705 11.2703 15.3984 14.0224 15.3984C16.7744 15.3984 19.0023 13.1705 19.0023 10.4185C19.0023 7.66643 16.7744 5.43858 14.0224 5.43858C11.2703 5.43858 9.04245 7.66643 9.04245 10.4185Z" fill="white"/>
</svg>
