<svg width="34" height="33" viewBox="0 0 34 33" fill="none" xmlns="http://www.w3.org/2000/svg">
<path d="M17.9784 27.3074C22.1096 27.3074 26.1628 27.3074 30.372 27.3074C30.372 26.9228 30.4499 26.6151 30.4499 26.3074C30.4499 19.1535 30.4499 11.9997 30.4499 4.84585C30.4499 3.30739 29.9822 2.84585 28.4233 2.84585C23.3568 2.84585 18.2902 2.84585 13.2237 2.84585C11.6647 2.84585 11.1971 3.30739 11.1971 4.84585C11.1971 7.92278 11.1971 10.9228 11.1971 14.0766C10.2617 13.9228 9.48224 13.7689 8.62482 13.6151C8.62482 13.3843 8.54688 13.2305 8.54688 12.9997C8.54688 10.1535 8.54688 7.23047 8.54688 4.38431C8.54688 1.92278 10.2617 0.230469 12.8339 0.230469C18.2123 0.230469 23.5127 0.230469 28.891 0.230469C31.3853 0.230469 33.1781 1.84585 33.1781 4.30739C33.256 12.7689 33.1781 21.1535 33.1781 29.6151C33.1781 29.692 33.1781 29.7689 33.1001 29.9228C32.8663 29.9228 32.5545 29.9997 32.2427 29.9997C28.1895 29.9997 24.0583 29.9997 20.0051 29.9997C19.3035 29.9997 18.9917 29.7689 18.8358 29.1535C18.602 28.6151 18.2902 27.9997 17.9784 27.3074Z" fill="#586C6D"/>
<path d="M12.4449 25.6155C15.095 27.2309 16.576 29.5386 16.654 32.6155C15.7186 32.6155 14.9391 32.6155 14.0817 32.6155C12.6787 28.4617 11.1198 27.0771 8.00189 27.3078C5.1958 27.4617 3.48097 29.3078 2.8574 32.6155C1.99999 32.6155 1.22052 32.6155 0.285156 32.6155C0.363103 29.4617 1.84409 27.2309 4.49428 25.5386C3.40303 24.2309 2.77945 22.7694 3.01329 21.154C3.16919 19.7694 3.87071 18.6155 4.96196 17.6925C7.06653 15.9232 10.2623 16.0771 12.211 17.9232C14.0038 19.6155 14.7833 22.7694 12.4449 25.6155ZM11.1977 21.8463C11.1977 20.3848 9.95056 19.154 8.46957 19.154C6.98858 19.154 5.66348 20.4617 5.66348 21.9232C5.66348 23.4617 6.98858 24.6925 8.46957 24.6155C10.0285 24.6155 11.2757 23.3078 11.1977 21.8463Z" fill="#586C6D"/>
<path d="M22.2656 8.30702C22.2656 7.46086 22.2656 6.61471 22.2656 5.76855C24.0584 5.76855 25.7732 5.76855 27.566 5.76855C27.566 6.61471 27.566 7.38394 27.566 8.30702C25.8512 8.30702 24.0584 8.30702 22.2656 8.30702Z" fill="#586C6D"/>
<path d="M22.2656 22C24.0584 22 25.7732 22 27.566 22C27.566 22.8462 27.566 23.6154 27.566 24.5385C25.8512 24.5385 24.1363 24.5385 22.2656 24.5385C22.2656 23.6923 22.2656 22.9231 22.2656 22Z" fill="#586C6D"/>
<path d="M14.082 5.76855C15.8748 5.76855 17.5896 5.76855 19.3824 5.76855C19.3824 6.61471 19.3824 7.46086 19.3824 8.30702C17.6676 8.30702 15.8748 8.30702 14.082 8.30702C14.082 7.46086 14.082 6.61471 14.082 5.76855Z" fill="#586C6D"/>
<path d="M27.566 11.2305C27.566 12.0766 27.566 12.8459 27.566 13.692C25.8512 13.692 24.0584 13.692 22.2656 13.692C22.2656 12.9228 22.2656 12.0766 22.2656 11.2305C23.9805 11.2305 25.7732 11.2305 27.566 11.2305Z" fill="#586C6D"/>
<path d="M27.566 19.1537C25.7732 19.1537 24.0584 19.1537 22.2656 19.1537C22.2656 18.3075 22.2656 17.5383 22.2656 16.6152C23.9805 16.6152 25.7732 16.6152 27.566 16.6152C27.566 17.3845 27.566 18.2306 27.566 19.1537Z" fill="#586C6D"/>
<path d="M19.3824 11.1533C19.3824 11.9995 19.3824 12.7687 19.3824 13.6149C17.5896 13.6149 15.8748 13.6149 14.082 13.6149C14.082 12.7687 14.082 11.9995 14.082 11.1533C15.7969 11.1533 17.5117 11.1533 19.3824 11.1533Z" fill="#586C6D"/>
<path d="M14.7852 16.5381C16.3441 16.5381 17.7471 16.5381 19.3061 16.5381C19.3061 17.3842 19.3061 18.1535 19.3061 19.0765C18.3707 19.0765 17.4353 19.0765 16.5 19.0765C16.3441 19.0765 16.1103 18.8458 16.0323 18.6919C15.6426 18.0765 15.2528 17.3842 14.7852 16.5381Z" fill="#586C6D"/>
<path d="M16.8114 22C17.6688 22 18.4483 22 19.3057 22C19.3057 22.8462 19.3057 23.6154 19.3057 24.5385C18.3704 24.5385 17.3571 24.5385 16.3438 24.5385C16.4996 23.6923 16.6555 22.8462 16.8114 22Z" fill="#586C6D"/>
</svg>
