<svg width="21" height="30" viewBox="0 0 21 30" fill="none" xmlns="http://www.w3.org/2000/svg">
<path d="M14.8852 9.46631H6.25098C6.87968 10.2603 7.71796 11.0543 8.72389 11.6393L8.89154 11.7229C9.64599 12.1408 10.2328 12.8094 10.5681 13.5616C10.9034 12.8094 11.4902 12.1825 12.2446 11.7229L12.4123 11.6393C13.4182 11.0543 14.2565 10.3021 14.8852 9.46631Z" fill="white"/>
<path d="M10.5678 16.5703C10.2325 17.3225 9.64567 17.9493 8.89122 18.409L8.72356 18.4926C6.41831 19.8298 5.03516 21.961 5.03516 24.2176V25.6384H16.1004V24.2176C16.1004 21.961 14.7172 19.788 12.412 18.4926L12.2443 18.409C11.4899 17.9493 10.9031 17.3225 10.5678 16.5703Z" fill="white"/>
<path d="M13.6696 14.1886L13.8373 14.105C17.0646 12.2663 18.9927 9.17401 18.9927 5.87274V3.03114H19.4537C20.1243 3.03114 20.6692 2.48789 20.6692 1.81928C20.6692 1.15067 20.1243 0.607422 19.4537 0.607422H1.68229C1.01168 0.607422 0.466797 1.15067 0.466797 1.81928C0.466797 2.48789 1.01168 3.03114 1.68229 3.03114H2.14335V5.87274C2.14335 9.17401 4.07138 12.2663 7.29873 14.105L7.46639 14.1886C8.17892 14.6065 8.17892 15.484 7.46639 15.9019L7.29873 15.9855C4.07138 17.8242 2.14335 20.9165 2.14335 24.2178V27.1012H1.68229C1.01168 27.1012 0.466797 27.6444 0.466797 28.313C0.466797 28.9816 1.01168 29.5249 1.68229 29.5249H19.4537C20.1243 29.5249 20.6692 28.9816 20.6692 28.313C20.6692 27.6444 20.1243 27.1012 19.4537 27.1012H18.9927V24.2178C18.9927 20.9165 17.0646 17.8242 13.8373 15.9855L13.6696 15.9019C12.9571 15.484 12.9571 14.6065 13.6696 14.1886ZM12.9571 17.1556L13.1247 17.2391C15.891 18.8271 17.5676 21.418 17.5676 24.2178V27.1012H3.61033V24.2178C3.61033 21.418 5.24496 18.8271 8.05318 17.2391L8.22084 17.1556C9.0172 16.6959 9.47825 15.9019 9.47825 15.0662C9.47825 14.1886 9.0172 13.4364 8.22084 12.9767L8.05318 12.8514C5.28687 11.2634 3.61033 8.67255 3.61033 5.87274V3.03114H17.5257V5.87274C17.5257 8.67255 15.891 11.2634 13.0828 12.8514L12.9152 12.935C12.1188 13.3946 11.6578 14.1886 11.6578 15.0244C11.6997 15.9019 12.1607 16.6959 12.9571 17.1556Z" fill="white"/>
</svg>
