<svg width="34" height="33" viewBox="0 0 34 33" fill="none" xmlns="http://www.w3.org/2000/svg">
<g clip-path="url(#clip0_111:14161)">
<path d="M6.85302 16.2459C7.69333 11.9305 10.085 9.0113 14.3511 7.67861C17.5831 6.66323 20.8796 7.29784 23.2066 9.20169C22.5602 9.77284 21.9139 10.2805 21.2675 10.8517C18.5526 9.45553 15.9025 9.45553 13.2523 10.9151C11.3131 12.0575 9.82641 14.1517 9.56785 16.2459C9.95568 16.2459 10.3435 16.2459 10.7313 16.2459C11.3131 16.2459 11.7656 16.4363 12.0888 16.944C12.3473 17.4517 12.218 17.9594 11.8948 18.4036C11.0545 19.6728 10.1496 20.9421 9.3093 22.2113C8.66291 23.1632 7.62869 23.1632 6.91766 22.2113C6.07736 20.9421 5.17241 19.6728 4.33211 18.4036C4.00892 17.9594 3.87964 17.4517 4.20283 16.944C4.46139 16.4363 4.9785 16.2459 5.56025 16.2459C5.94808 16.2459 6.40055 16.2459 6.85302 16.2459Z" fill="#616161"/>
<path d="M11.4414 25.8925C12.1524 25.3213 12.7342 24.7502 13.3806 24.2425C18.9395 27.0983 24.4338 23.354 25.0156 18.8483C24.6277 18.8483 24.3045 18.8483 23.9167 18.8483C23.3349 18.8483 22.8178 18.6579 22.5593 18.1502C22.3007 17.6425 22.43 17.1348 22.7532 16.6906C23.5935 15.4213 24.4984 14.1521 25.3387 12.8829C25.9851 11.931 27.0194 11.931 27.6657 12.8829C28.5707 14.1521 29.411 15.4213 30.3159 16.754C30.6391 17.1983 30.7684 17.706 30.4452 18.2137C30.1867 18.7213 29.6695 18.9117 29.0878 18.9117C28.6353 18.9117 28.2475 18.9117 27.795 18.9117C26.8901 23.4175 24.3045 26.5271 19.7152 27.606C16.7418 28.2406 13.9623 27.8598 11.4414 25.8925Z" fill="#616161"/>
</g>
<defs>
<clipPath id="clip0_111:14161">
<rect width="34" height="33" fill="white"/>
</clipPath>
</defs>
</svg>
