<svg width="25" height="25" viewBox="0 0 25 25" fill="none" xmlns="http://www.w3.org/2000/svg">
<path d="M20.8174 12.1428C20.8174 16.673 17.1101 20.3159 12.4999 20.3159C7.8896 20.3159 4.18237 16.6263 4.18237 12.1428C4.18237 7.65929 7.93713 3.96973 12.4999 3.96973C17.0626 3.96973 20.8174 7.65929 20.8174 12.1428ZM17.3953 16.206C16.7774 15.0384 15.5417 14.2445 14.0683 14.2445C13.9732 14.2445 13.9257 14.2445 13.8307 14.2912C13.4029 14.4313 12.9276 14.5247 12.4523 14.5247C11.977 14.5247 11.5018 14.4313 11.074 14.2912C10.9789 14.2445 10.9314 14.2445 10.8364 14.2445C9.41051 14.2445 8.17477 15.0384 7.50937 16.206C8.69758 17.6071 10.4086 18.4477 12.4048 18.4477C14.4485 18.4945 16.2071 17.6071 17.3953 16.206ZM9.55309 10.0412C9.55309 11.6291 10.8839 12.9368 12.4999 12.9368C14.1158 12.9368 15.4466 11.6291 15.4466 10.0412C15.4466 8.45324 14.1158 7.14555 12.4999 7.14555C10.8839 7.14555 9.55309 8.45324 9.55309 10.0412Z" fill="#04AFBA"/>
<path d="M24.097 12.1427C24.097 12.4229 24.097 12.7031 24.097 12.9833C24.097 13.357 23.9069 13.5438 23.5267 13.5438C23.0989 13.5438 22.7187 13.5438 22.2909 13.5438C21.9107 13.5438 21.7206 13.6839 21.673 14.0575C21.578 14.3844 21.4829 14.7114 21.3879 15.0383C21.2928 15.3652 21.3879 15.552 21.673 15.7388C22.0533 15.9256 22.386 16.1592 22.7662 16.346C23.0989 16.5328 23.194 16.813 23.0038 17.1399C22.7187 17.607 22.4335 18.074 22.1959 18.541C22.0057 18.8679 21.7206 18.9614 21.3879 18.7745C21.0076 18.5877 20.6749 18.3542 20.3422 18.1674C20.0571 17.9806 19.8194 18.0273 19.5818 18.2608C19.3441 18.541 19.059 18.7745 18.8213 19.0081C18.5837 19.2416 18.5362 19.4751 18.7263 19.7553C18.9164 20.1289 19.154 20.4559 19.3441 20.8295C19.5343 21.1564 19.4867 21.4366 19.1065 21.6234C18.6312 21.9037 18.1559 22.1839 17.6806 22.4174C17.3479 22.6042 17.0628 22.5108 16.8727 22.1839C16.6825 21.857 16.4449 21.4833 16.2548 21.1564C16.0647 20.8762 15.8746 20.7828 15.5419 20.8762C15.2092 20.9696 14.8765 21.063 14.4962 21.1564C14.1635 21.2498 14.0209 21.3899 14.0209 21.7168C14.0209 22.1372 14.0209 22.5575 14.0209 22.9778C14.0209 23.3515 13.8308 23.5383 13.4506 23.5383C12.8803 23.5383 12.3099 23.5383 11.7396 23.5383C11.4069 23.5383 11.1692 23.3515 11.1692 22.9778C11.1692 22.5575 11.1692 22.1372 11.1692 21.7635C11.1692 21.4366 11.0267 21.2498 10.694 21.1564C10.3613 21.063 9.98102 20.9696 9.64832 20.8762C9.31562 20.7828 9.12551 20.8762 8.9354 21.1564C8.74528 21.53 8.50764 21.857 8.31753 22.2306C8.12741 22.5575 7.84224 22.6509 7.50954 22.4641C7.03426 22.1839 6.55897 21.9037 6.08369 21.6234C5.75099 21.4366 5.70346 21.1564 5.84604 20.8295C6.03616 20.4559 6.2738 20.1289 6.46391 19.7553C6.65403 19.4751 6.6065 19.2416 6.36886 19.0081C6.08368 18.7745 5.84604 18.4943 5.6084 18.2608C5.37076 18.0273 5.18064 17.9806 4.89547 18.1674C4.51524 18.3542 4.18254 18.5877 3.80232 18.7745C3.32703 18.9614 3.04186 18.8679 2.85175 18.541C2.56657 18.074 2.2814 17.607 1.99623 17.1399C1.80612 16.813 1.90117 16.5328 2.23387 16.346C2.56657 16.1592 2.9468 15.9256 3.2795 15.7388C3.6122 15.552 3.70726 15.3652 3.56467 14.9916C3.46962 14.6646 3.37456 14.3377 3.32703 14.0108C3.23197 13.6839 3.08939 13.5438 2.75669 13.5438C2.32893 13.5438 1.90118 13.5438 1.47342 13.5438C1.09319 13.5438 0.903076 13.357 0.903076 12.9833C0.903076 12.4229 0.903076 11.8625 0.903076 11.302C0.903076 10.9284 1.09319 10.7416 1.47342 10.7416C1.90118 10.7416 2.2814 10.7416 2.70916 10.7416C3.04186 10.7416 3.23197 10.6015 3.32703 10.2745C3.42209 9.94762 3.51714 9.57399 3.6122 9.24707C3.70726 8.92015 3.6122 8.73333 3.32703 8.54652C2.9468 8.35971 2.6141 8.12619 2.23387 7.93938C1.90117 7.75256 1.80612 7.47234 1.99623 7.14542C2.2814 6.67839 2.56657 6.21135 2.80422 5.74432C2.99433 5.4174 3.2795 5.32399 3.6122 5.51081C3.99243 5.69762 4.32513 5.93114 4.70536 6.11795C4.99053 6.30476 5.22817 6.25806 5.46581 6.02454C5.70346 5.74432 5.98863 5.51081 6.22627 5.27729C6.46391 5.04377 6.51144 4.81026 6.32133 4.53004C6.13121 4.15641 5.89357 3.82949 5.70346 3.45586C5.51334 3.12894 5.56087 2.84872 5.9411 2.66191C6.41638 2.38169 6.89167 2.10147 7.36696 1.82125C7.69965 1.63443 7.98483 1.72784 8.17494 2.05476C8.36505 2.42839 8.6027 2.75531 8.79281 3.12894C8.98292 3.40916 9.17304 3.50256 9.50574 3.40916C9.83844 3.31575 10.1711 3.22234 10.5514 3.12894C10.8841 3.03553 11.0267 2.89542 11.0267 2.5685C11.0267 2.14817 11.0267 1.72784 11.0267 1.30751C11.0267 0.933883 11.2168 0.74707 11.597 0.74707C12.1673 0.74707 12.7377 0.74707 13.308 0.74707C13.6407 0.74707 13.8784 0.933883 13.8784 1.30751C13.8784 1.72784 13.8784 2.14817 13.8784 2.5218C13.8784 2.84872 14.0209 3.03553 14.3536 3.12894C14.6863 3.22234 15.0666 3.31575 15.3993 3.40916C15.732 3.50256 15.9221 3.40916 16.1122 3.12894C16.3023 2.75531 16.54 2.42839 16.7301 2.05476C16.9202 1.72784 17.2054 1.63443 17.5381 1.82125C18.0133 2.10147 18.4886 2.38169 18.9639 2.6152C19.2966 2.80201 19.3917 3.08223 19.2016 3.40916C19.0114 3.78278 18.7738 4.10971 18.5837 4.48333C18.3936 4.76355 18.4411 4.99707 18.6787 5.23059C18.9639 5.4641 19.2016 5.74432 19.4392 5.97784C19.6768 6.21135 19.867 6.25806 20.1521 6.07124C20.5324 5.88443 20.8651 5.65092 21.2453 5.4641C21.578 5.27729 21.8632 5.32399 22.0533 5.69762C22.3384 6.16465 22.6236 6.63168 22.9088 7.09872C23.0989 7.42564 23.0038 7.70586 22.6711 7.89267C22.3384 8.07949 21.9582 8.313 21.6255 8.49982C21.2928 8.68663 21.1978 8.87344 21.3403 9.24707C21.4354 9.57399 21.5305 9.90091 21.6255 10.2278C21.7206 10.5548 21.8632 10.6949 22.1959 10.6949C22.6236 10.6949 23.0514 10.6949 23.4791 10.6949C23.8594 10.6949 24.0495 10.8817 24.0495 11.2553C24.1445 11.5822 24.097 11.8625 24.097 12.1427ZM19.6768 12.1427C19.6768 8.2663 16.4924 5.09048 12.5476 5.09048C8.6027 5.09048 5.37076 8.2196 5.37076 12.096C5.37076 16.019 8.55517 19.1482 12.5476 19.1482C16.4449 19.1949 19.6768 16.019 19.6768 12.1427Z" fill="#04AFBA"/>
</svg>
