<svg width="24" height="26" viewBox="0 0 24 26" fill="none" xmlns="http://www.w3.org/2000/svg">
<path d="M19.3722 19.2085C19.3722 21.1488 17.7479 22.7011 15.7174 22.7011C13.687 22.7011 12.0626 21.1488 12.0626 19.2085C12.0626 18.9369 12.1032 18.7041 12.1438 18.4324L8.24534 16.1041C7.6362 16.5697 6.82402 16.8802 5.97123 16.8802C3.94077 16.8802 2.31641 15.328 2.31641 13.3877C2.31641 11.4474 3.94077 9.89511 5.97123 9.89511C6.82402 9.89511 7.6362 10.1668 8.24534 10.6712L12.1438 8.34288C12.1032 8.11004 12.0626 7.8384 12.0626 7.56676C12.0626 5.62646 13.687 4.07422 15.7174 4.07422C17.7479 4.07422 19.3722 5.62646 19.3722 7.56676C19.3722 9.50705 17.7479 11.0593 15.7174 11.0593C14.8646 11.0593 14.0524 10.7877 13.4433 10.2832L9.54483 12.6115C9.58544 12.8444 9.62605 13.116 9.62605 13.3488C9.62605 13.5817 9.58544 13.8533 9.54483 14.125L13.4433 16.4533C14.0524 15.9877 14.8646 15.6772 15.7174 15.6772C17.7479 15.716 19.3722 17.3071 19.3722 19.2085Z" fill="#616161"/>
</svg>
