<svg width="23" height="23" viewBox="0 0 23 23" fill="none" xmlns="http://www.w3.org/2000/svg">
<path d="M11.5495 21.05C11.5495 21.2983 11.5495 21.5467 11.5495 21.7951C11.5495 22.6023 10.9907 23.037 10.1835 22.9128C7.45131 22.3539 4.65707 21.7951 1.92492 21.2362C1.55236 21.1742 1.17979 21.1121 0.807226 20.9879C0.310472 20.9258 0 20.5532 0 19.9944C0 19.0629 0 18.1315 0 17.2001C0 11.86 0 6.5199 0 1.17979C0 1.0556 2.35946e-07 0.86932 0.0620945 0.745131C0.248377 0.248377 0.620943 0 1.1177 0C2.54587 0 4.03613 0 5.4643 0C9.00367 0 12.543 0 16.0824 0C16.8276 0 17.2622 0.43466 17.2622 1.17979C17.2622 3.04262 17.2622 4.90545 17.2622 6.76828C17.2622 7.20294 17.0759 7.51341 16.7034 7.69969C16.3308 7.88598 15.9582 7.88598 15.6478 7.6376C15.3373 7.45132 15.2131 7.14084 15.2131 6.76828C15.2131 5.27802 15.2131 3.84985 15.2131 2.35958C15.2131 2.29749 15.2131 2.23539 15.2131 2.11121C12.8535 2.11121 10.556 2.11121 8.19645 2.11121C8.25854 2.1733 8.32063 2.1733 8.32063 2.1733C9.12786 2.42168 9.93509 2.67005 10.7423 2.91843C11.3633 3.10471 11.6116 3.41519 11.6116 4.09822C11.6116 9.00367 11.6116 13.9091 11.6116 18.8146C11.6116 18.9388 11.6116 19.0009 11.6116 19.125C12.8535 19.125 14.0333 19.125 15.2131 19.125C15.2131 19.0629 15.2131 19.0009 15.2131 18.8767C15.2131 17.3864 15.2131 15.9582 15.2131 14.468C15.2131 13.6607 16.0203 13.164 16.7034 13.5366C17.0759 13.7228 17.2622 14.0333 17.2622 14.4059C17.2622 16.3308 17.2622 18.2557 17.2622 20.1806C17.2622 20.7395 16.7655 21.1742 16.2066 21.1742C14.7784 21.1742 13.2882 21.1742 11.86 21.1742C11.7358 21.05 11.6737 21.05 11.5495 21.05Z" fill="white"/>
<path d="M19.3751 11.5496C19.313 11.5496 19.2509 11.5496 19.1888 11.5496C17.5744 11.5496 16.022 11.5496 14.4075 11.5496C13.9729 11.5496 13.6624 11.3633 13.414 10.9907C13.2278 10.6182 13.2278 10.2456 13.4761 9.93512C13.7245 9.62465 14.035 9.50046 14.4075 9.50046C16.022 9.50046 17.5744 9.50046 19.1888 9.50046C19.2509 9.50046 19.313 9.50046 19.3751 9.50046C19.313 9.43837 19.313 9.37627 19.2509 9.37627C18.9404 9.0658 18.63 8.75533 18.3195 8.44486C17.8848 8.0102 17.8848 7.38926 18.3195 6.9546C18.7541 6.51994 19.3751 6.51994 19.8097 6.9546C20.7412 7.88601 21.6726 8.81743 22.604 9.74884C23.0387 10.1835 23.0387 10.8044 22.604 11.3012C21.6726 12.2326 20.7412 13.164 19.8097 14.0954C19.3751 14.5301 18.7541 14.5301 18.3195 14.0954C17.8848 13.6608 17.9469 13.0398 18.3195 12.6052C18.692 12.2947 19.0646 11.9221 19.3751 11.5496C19.3751 11.6117 19.3751 11.6117 19.3751 11.5496Z" fill="white"/>
</svg>
