<svg width="16" height="16" viewBox="0 0 16 16" fill="none" xmlns="http://www.w3.org/2000/svg">
<g clip-path="url(#clip0_221:10772)">
<path d="M1.49219 6.43054C1.49219 6.36901 1.49219 6.30747 1.49219 6.24593C1.61386 5.84593 1.79637 5.66131 2.25264 5.66131C3.62147 5.66131 4.99029 5.66131 6.38953 5.66131C6.45036 5.66131 6.48078 5.63054 6.48078 5.56901C6.90664 4.18439 7.36291 2.79977 7.78877 1.41516C7.81918 1.32285 7.88002 1.23054 7.91044 1.16901C8.00169 1.04593 8.15379 0.98439 8.30588 0.922852C8.36671 0.922852 8.42755 0.922852 8.48839 0.922852C8.76215 0.98439 8.94466 1.16901 9.03592 1.44593C9.46177 2.83054 9.91804 4.21516 10.3439 5.56901C10.3743 5.63054 10.3743 5.63054 10.4352 5.63054C10.8002 5.63054 11.1956 5.63054 11.5606 5.63054C12.5949 5.63054 13.5987 5.63054 14.6329 5.63054C14.9371 5.63054 15.15 5.75362 15.2717 6.03054C15.3021 6.09208 15.3021 6.15362 15.3325 6.21516C15.3325 6.2767 15.3325 6.33824 15.3325 6.39977C15.2717 6.58439 15.1804 6.76901 14.9979 6.89208C13.8724 7.72285 12.7469 8.58439 11.6215 9.41516C11.591 9.44593 11.5606 9.4767 11.591 9.53824C11.804 10.1536 11.9865 10.7998 12.169 11.4152C12.4123 12.1844 12.6557 12.9536 12.899 13.7536C12.9903 14.0613 12.8686 14.369 12.6253 14.5229C12.4732 14.6459 12.169 14.6767 11.8952 14.4613C10.7698 13.5998 9.61386 12.7382 8.48839 11.9075C8.45797 11.8767 8.42755 11.8767 8.36671 11.9075C7.54542 12.5229 6.72413 13.1382 5.90283 13.7536C5.56823 13.9998 5.23363 14.2767 4.86861 14.5229C4.65569 14.6767 4.38192 14.6767 4.16899 14.5536C3.89523 14.3998 3.80397 14.0613 3.89523 13.7536C4.32109 12.369 4.77736 10.9844 5.20321 9.59978C5.23363 9.53824 5.20321 9.50747 5.1728 9.4767C4.04732 8.61516 2.89143 7.78439 1.76595 6.92285C1.6747 6.83054 1.58344 6.73824 1.52261 6.61516C1.52261 6.52285 1.52261 6.46131 1.49219 6.43054Z" fill="#04AFBA"/>
</g>
<defs>
<clipPath id="clip0_221:10772">
<rect width="16" height="16" fill="white"/>
</clipPath>
</defs>
</svg>
