<svg width="30" height="29" viewBox="0 0 30 29" fill="none" xmlns="http://www.w3.org/2000/svg">
<path d="M2.97923 23.9776C2.808 23.9776 2.66416 24.0397 2.54772 24.164C2.42444 24.2814 2.36279 24.4264 2.36279 24.599V26.9293C2.36279 27.102 2.42444 27.2504 2.54772 27.3747C2.66416 27.4921 2.808 27.5508 2.97923 27.5508H26.7327C26.9039 27.5508 27.0477 27.4921 27.1642 27.3747C27.2875 27.2504 27.3491 27.102 27.3491 26.9293V24.599C27.3491 24.4264 27.2875 24.2814 27.1642 24.164C27.0477 24.0397 26.9039 23.9776 26.7327 23.9776H2.97923ZM6.80115 7.40613H3.29772C3.03745 7.40613 2.81485 7.49589 2.62992 7.67541C2.45183 7.86184 2.36279 8.08625 2.36279 8.34863V22.1133C2.36279 22.3757 2.45183 22.5966 2.62992 22.7761C2.81485 22.9626 3.03745 23.0558 3.29772 23.0558H6.80115C7.06142 23.0558 7.2806 22.9626 7.45868 22.7761C7.64362 22.5966 7.73608 22.3757 7.73608 22.1133V8.34863C7.73608 8.08625 7.64362 7.86184 7.45868 7.67541C7.2806 7.49589 7.06142 7.40613 6.80115 7.40613ZM14.2909 2.77648C14.2909 2.5141 14.1984 2.29315 14.0135 2.11363C13.8285 1.9272 13.6059 1.83398 13.3457 1.83398H9.85252C9.59225 1.83398 9.36964 1.9272 9.18471 2.11363C8.99978 2.29315 8.90731 2.5141 8.90731 2.77648V22.1236C8.90731 22.386 8.99978 22.607 9.18471 22.7865C9.36964 22.9729 9.59225 23.0661 9.85252 23.0661H13.3457C13.6059 23.0661 13.8285 22.9729 14.0135 22.7865C14.1984 22.607 14.2909 22.386 14.2909 22.1236V2.77648ZM22.284 15.9404C22.0991 16.1199 22.0066 16.3409 22.0066 16.6033V22.1133C22.0066 22.3757 22.0991 22.5966 22.284 22.7761C22.469 22.9626 22.6916 23.0558 22.9518 23.0558H26.445C26.7053 23.0558 26.9279 22.9626 27.1128 22.7761C27.2977 22.5966 27.3902 22.3757 27.3902 22.1133V16.6033C27.3902 16.3409 27.2977 16.1199 27.1128 15.9404C26.9279 15.754 26.7053 15.6608 26.445 15.6608H22.9518C22.6916 15.6608 22.469 15.754 22.284 15.9404ZM20.8354 8.34863C20.8354 8.08625 20.7464 7.86184 20.5683 7.67541C20.3833 7.49589 20.1607 7.40613 19.9005 7.40613H16.397C16.1368 7.40613 15.9142 7.49589 15.7292 7.67541C15.5512 7.86184 15.4621 8.08625 15.4621 8.34863V22.1133C15.4621 22.3757 15.5512 22.5966 15.7292 22.7761C15.9142 22.9626 16.1368 23.0558 16.397 23.0558H19.9005C20.1607 23.0558 20.3833 22.9626 20.5683 22.7761C20.7464 22.5966 20.8354 22.3757 20.8354 22.1133V8.34863Z" fill="#0199A3"/>
</svg>
