<svg width="39" height="38" viewBox="0 0 39 38" fill="none" xmlns="http://www.w3.org/2000/svg">
<path d="M20.019 32.5184C20.019 31.9338 20.019 31.4223 20.019 30.8377C20.019 25.5031 20.019 20.0954 20.019 14.7608C20.019 14.03 20.2415 13.4454 20.6122 12.9338C21.5019 11.4723 22.7624 10.3761 24.1711 9.42614C26.3213 7.89153 28.6198 6.79537 31.0666 5.84537C31.2149 5.7723 31.3631 5.7723 31.5114 5.69922C31.5114 5.84537 31.5114 5.99153 31.5114 6.13768C31.5114 12.5684 31.5114 19.0723 31.5114 25.5031C31.5114 25.7954 31.4373 25.8684 31.1407 25.9415C28.6939 26.4531 26.3213 27.2569 24.097 28.5723C22.54 29.5223 21.2054 30.6915 20.3156 32.2992C20.2415 32.3723 20.1673 32.4454 20.0932 32.5184C20.1673 32.5184 20.0932 32.5184 20.019 32.5184Z" fill="#04AFBA"/>
<path d="M18.8328 32.5194C18.7586 32.3002 18.6104 32.154 18.5362 31.9348C17.6465 30.4002 16.3119 29.304 14.9031 28.354C13.0495 27.1117 10.9735 26.2348 8.74914 25.7963C8.37842 25.7233 8.37842 25.504 8.37842 25.2117C8.37842 20.3156 8.37842 15.4925 8.37842 10.5963C8.37842 9.06172 8.37842 7.45403 8.37842 5.91941C8.37842 5.40787 8.45256 5.3348 8.89743 5.55403C10.0096 6.06556 11.1959 6.50403 12.3081 7.08864C14.1617 8.11172 15.867 9.35403 17.424 10.8886C17.7948 11.254 18.0913 11.6925 18.4621 12.0579C18.9069 12.6425 19.0552 13.3002 19.0552 14.031C19.0552 19.9502 19.0552 25.9425 19.0552 31.8617C19.0552 32.081 19.0552 32.2271 19.0552 32.4463C18.9069 32.5194 18.9069 32.5194 18.8328 32.5194Z" fill="#04AFBA"/>
<path d="M22.1692 31.9356C22.3916 31.7894 22.5399 31.6433 22.7623 31.4971C24.9125 29.9625 27.3593 29.0856 29.9544 28.6471C31.289 28.4279 32.5494 28.2817 33.884 28.2087C34.2547 28.2087 34.3289 27.9894 34.3289 27.6971C34.3289 22.874 34.3289 18.051 34.3289 13.2279C34.3289 11.9856 34.3289 10.7433 34.3289 9.57404C34.3289 9.28173 34.403 9.13558 34.7738 9.13558C35.0703 9.13558 35.4411 9.13558 35.7376 9.0625C35.9601 9.0625 36.1084 9.13558 36.1084 9.42788C36.1084 9.57404 36.1084 9.64712 36.1084 9.79327C36.1084 16.3702 36.1084 23.0202 36.1084 29.5971C36.1084 30.1087 36.1084 30.1087 35.5893 30.1087C33.1426 30.0356 30.6217 30.1087 28.1749 30.474C26.3954 30.7664 24.6901 31.2779 23.0589 31.7894C22.8365 31.8625 22.5399 31.9356 22.3175 32.0087C22.1692 32.0087 22.1692 31.9356 22.1692 31.9356Z" fill="#04AFBA"/>
<path d="M16.7566 31.1302C16.3859 30.9109 16.0893 30.7648 15.7186 30.5456C12.7528 29.0109 9.63874 27.9879 6.30224 27.4763C5.56079 27.3302 5.56079 27.3302 5.56079 26.5994C5.56079 20.3879 5.56079 14.1033 5.56079 7.89171C5.56079 7.16094 5.56079 7.16094 6.30224 7.23402C7.48855 7.38017 7.48855 7.38017 7.48855 8.54941C7.48855 14.3225 7.48855 20.0956 7.48855 25.8686C7.48855 26.4533 7.48855 26.4533 8.0817 26.5994C11.3441 27.184 14.2357 28.6456 16.6083 30.9109C16.6825 30.9109 16.7566 30.984 16.7566 31.1302C16.7566 31.0571 16.7566 31.1302 16.7566 31.1302Z" fill="#04AFBA"/>
<path d="M16.1635 31.9356C11.8632 30.474 7.56278 29.7433 2.96582 30.1817C2.96582 29.9625 2.96582 29.8163 2.96582 29.6702C2.96582 22.9471 2.96582 16.2971 2.96582 9.57404C2.96582 9.0625 2.96582 9.0625 3.55898 9.0625C3.85555 9.0625 4.15213 9.13558 4.44871 9.13558C4.67114 9.13558 4.74529 9.20865 4.74529 9.42788C4.74529 9.57404 4.74529 9.72019 4.74529 9.86635C4.74529 15.7856 4.74529 21.7779 4.74529 27.6971C4.74529 28.2087 4.74529 28.2087 5.2643 28.2817C8.00765 28.501 10.6027 29.3048 13.1978 30.401C14.1616 30.7663 15.0514 31.2779 15.9411 31.7163C16.0153 31.7894 16.1635 31.8625 16.2377 31.8625C16.1635 31.7894 16.1635 31.8625 16.1635 31.9356Z" fill="#04AFBA"/>
<path d="M24.6902 29.3033C24.7643 29.2302 24.9126 29.1571 24.9868 29.0841C27.137 27.8418 29.4354 27.1841 31.8081 26.6725C32.4012 26.5264 32.4012 26.5264 32.4012 25.9418C32.4012 19.9495 32.4012 13.9572 32.4012 7.96485C32.4012 7.45331 32.7719 7.161 33.2909 7.30715C33.3651 7.30715 33.4392 7.38023 33.4392 7.45331C33.4392 7.52638 33.4392 7.67254 33.4392 7.81869C33.4392 14.1764 33.4392 20.5341 33.4392 26.8918C33.4392 27.4764 33.4392 27.4764 32.8461 27.5495C30.0286 27.7687 27.3594 28.2802 24.7643 29.4495C24.7643 29.3764 24.7643 29.3764 24.6902 29.3033Z" fill="#04AFBA"/>
</svg>
