<svg width="37" height="37" viewBox="0 0 37 37" fill="none" xmlns="http://www.w3.org/2000/svg">
<path d="M18.4299 34.5096C9.70747 34.5096 2.60291 27.1807 2.60291 18.4288C2.60291 9.67688 9.70747 2.41919 18.5002 2.41919C27.1523 2.41919 34.3272 9.67688 34.3272 18.5C34.3272 27.3942 27.1523 34.5807 18.4299 34.5096ZM18.0782 22.8403C18.7816 23.3384 19.4147 23.9077 20.1181 24.4057C20.8215 24.975 21.525 25.5442 22.2987 26.0423C22.8615 26.4692 23.3539 26.3269 23.5649 25.6153C23.6352 25.473 23.6352 25.2596 23.7056 25.1173C24.5497 20.848 25.4641 16.5788 26.3082 12.3096C26.3786 12.0961 26.3786 11.8115 26.3786 11.5269C26.3082 10.9577 25.8158 10.6019 25.3234 10.7442C25.1124 10.8153 24.9717 10.8865 24.7607 10.9577C20.7512 12.523 16.6713 14.0884 12.6618 15.6538C11.466 16.0807 10.3405 16.5788 9.14473 17.0057C8.72268 17.148 8.30062 17.3615 8.15994 17.8596C8.30062 18.2865 8.65234 18.4288 9.00405 18.5711C9.56678 18.7846 10.1295 18.9269 10.6923 19.1403C11.5364 19.425 12.3805 19.7096 13.1542 19.9942C13.6466 21.5596 14.0687 23.125 14.5611 24.6192C14.7018 24.975 14.7721 25.3307 15.2645 25.473C16.2493 24.8327 16.9527 23.6942 18.0782 22.8403Z" fill="white"/>
<path d="M15.1942 21.0614C15.0535 22.0576 14.9832 22.9826 14.8425 24.121C14.3501 22.4845 13.928 20.9903 13.506 19.496C13.6467 19.3537 13.8577 19.2114 13.9984 19.0691C16.6714 17.3614 19.4147 15.5826 22.1581 13.8749C22.4394 13.6614 22.7912 13.448 23.2835 13.6614C20.5402 16.223 17.8672 18.571 15.1942 21.0614Z" fill="white"/>
</svg>
