<svg width="32" height="32" viewBox="0 0 32 32" fill="none" xmlns="http://www.w3.org/2000/svg">
<path d="M31.195 15.8281C31.195 24.2236 24.2914 31.0744 15.7635 31.0744C7.23559 31.0744 0.332031 24.2236 0.332031 15.8281C0.332031 7.43256 7.23559 0.514648 15.7635 0.514648C24.2914 0.514648 31.195 7.3654 31.195 15.8281ZM21.7195 19.1863C21.7195 18.8505 21.5842 18.5818 21.3134 18.4475L17.7263 15.8281V6.89525C17.7263 6.35793 17.2525 5.88778 16.7111 5.88778H14.7483C14.2068 5.88778 13.733 6.35793 13.733 6.89525V16.4997C13.733 17.3057 14.0715 17.9773 14.6806 18.4475L18.8769 21.537C19.0799 21.6714 19.283 21.7385 19.486 21.7385C19.8244 21.7385 20.0951 21.6042 20.2305 21.3355L21.4488 19.7908C21.6518 19.6564 21.7195 19.4549 21.7195 19.1863Z" fill="white"/>
</svg>
