<svg width="16" height="29" viewBox="0 0 16 29" fill="none" xmlns="http://www.w3.org/2000/svg">
<g clip-path="url(#clip0_111:14188)">
<path d="M1.67927 14.4562C1.67927 12.6327 1.66776 10.8202 1.67927 8.99672C1.72531 5.50354 4.57999 2.7793 8.15984 2.7793C11.7627 2.79028 14.6289 5.49256 14.6519 8.98574C14.6865 12.6217 14.675 16.2687 14.6519 19.9047C14.6289 23.3869 11.7627 26.1111 8.15984 26.1111C4.56848 26.1221 1.70229 23.3979 1.65625 19.9157C1.65625 18.1032 1.66776 16.2797 1.67927 14.4562ZM3.11812 8.98574C3.11812 11.6221 5.4433 13.8191 8.20589 13.7971C10.9455 13.7751 13.2016 11.6221 13.2246 9.01869C13.2476 6.38233 10.9455 4.16339 8.18287 4.1524C5.42028 4.14142 3.11812 6.33839 3.11812 8.98574Z" fill="#616161"/>
</g>
<defs>
<clipPath id="clip0_111:14188">
<rect width="16" height="29" fill="white"/>
</clipPath>
</defs>
</svg>
