<svg width="22" height="22" viewBox="0 0 22 22" fill="none" xmlns="http://www.w3.org/2000/svg">
<g clip-path="url(#clip0_111:14882)">
<path d="M9.41055 1.60742C13.3003 1.64973 16.6045 4.61127 17.0227 8.46127C17.19 10.1959 16.8972 11.8459 15.9771 13.3267C15.8098 13.5805 15.8516 13.7074 16.0607 13.919C17.3573 15.2305 18.6539 16.4997 19.9086 17.8113C20.5778 18.4882 20.536 19.5459 19.825 20.1382C19.1976 20.6459 18.3611 20.6036 17.7337 20.0113C16.479 18.742 15.1824 17.4305 13.9277 16.1613C13.6767 15.9074 13.5512 15.8651 13.2166 16.0767C8.61587 18.7843 2.80218 16.119 1.79838 10.7882C1.0037 6.55742 3.93146 2.32665 8.11397 1.69204C8.61587 1.64973 8.9923 1.64973 9.41055 1.60742ZM9.41055 14.5113C12.2128 14.5113 14.4714 12.2267 14.4714 9.39204C14.4714 6.55742 12.2128 4.2305 9.41055 4.2305C6.60827 4.2305 4.30788 6.51511 4.30788 9.34973C4.30788 12.2267 6.60827 14.5113 9.41055 14.5113Z" fill="#3E3E3E"/>
<path d="M11.6273 9.56083C10.8326 10.1954 10.1216 10.7878 9.36875 11.3801C8.90867 11.7608 8.74137 11.7185 8.36495 11.2954C7.40297 10.2801 6.44099 9.30699 5.43719 8.2916C5.22807 8.08006 5.14442 7.86852 5.26989 7.61468C5.39537 7.36083 5.60449 7.27622 5.85544 7.36083C5.98092 7.40314 6.10639 7.53006 6.23187 7.61468C7.02655 8.46083 7.86305 9.26468 8.65772 10.1108C8.86685 10.3224 8.99233 10.3224 9.20145 10.1531C9.87065 9.60314 10.5399 9.05314 11.2091 8.54545C11.5855 8.20699 11.7946 8.24929 12.1292 8.58775C12.5893 9.09545 13.0912 9.60314 13.5513 10.1108C13.844 10.407 13.844 10.7454 13.5931 10.957C13.384 11.1685 13.0494 11.1262 12.7984 10.8301C12.4638 10.407 12.0456 9.98391 11.6273 9.56083Z" fill="#3E3E3E"/>
</g>
<defs>
<clipPath id="clip0_111:14882">
<rect width="22" height="22" fill="white"/>
</clipPath>
</defs>
</svg>
