<svg width="43" height="42" viewBox="0 0 43 42" fill="none" xmlns="http://www.w3.org/2000/svg">
<path d="M5.31384 32.9539C6.54008 32.8731 7.76631 32.9539 8.9108 32.7923C10.791 32.55 12.5078 31.9039 14.061 30.9346C14.5515 30.6116 15.042 30.2885 15.6142 29.8846C15.2872 29.8039 15.1237 29.6423 14.8785 29.6423C12.2625 29.3193 10.464 28.0269 9.31955 25.6846C9.2378 25.4423 9.15605 25.2808 8.99255 24.9577C9.97354 24.7962 10.9545 25.1192 11.9355 24.6346C11.6903 24.5539 11.6085 24.3923 11.445 24.3923C9.15605 23.6654 7.68457 22.2116 6.78533 20.0308C6.54008 19.3039 6.29483 18.5769 6.45833 17.6885C6.94882 17.85 7.43932 18.0923 7.92981 18.1731C8.42031 18.3346 8.9108 18.3346 9.48305 18.4154C6.45833 15.9116 5.72259 12.7616 7.35757 9.04618C12.3443 14.8616 19.5382 16.7193 22.3176 16.3154C22.3176 15.75 22.3176 15.1039 22.3176 14.5385C22.3176 12.1154 24.1161 9.04618 26.9773 8.15772C27.7131 7.91541 28.5306 7.6731 29.2663 7.6731C31.0648 7.59233 32.7815 8.15772 34.0895 9.36925C34.6618 9.85387 35.1523 9.93464 35.7245 9.69233C36.869 9.28848 37.9317 8.88464 39.0762 8.48079C38.5857 9.85387 37.6865 10.9846 36.542 11.9539C37.7682 12.1154 38.831 11.55 39.9754 11.2269C39.8119 11.55 39.6484 11.8731 39.4032 12.1154C38.7492 12.8423 38.0135 13.5693 37.2777 14.2154C36.869 14.5385 36.6237 14.9423 36.7055 15.5077C36.7872 19.1423 35.888 22.5346 34.0895 25.6846C32.0458 29.3192 29.2663 32.0654 25.5059 33.9231C23.3804 34.9731 21.0914 35.6193 18.7207 35.8616C17.2492 36.0231 15.8595 36.0231 14.388 35.9423C12.1808 35.7808 9.97354 35.2962 7.92981 34.3269C7.03057 33.9231 6.21308 33.4385 5.31384 32.9539C5.39559 32.9539 5.31384 32.9539 5.31384 32.9539Z" fill="white"/>
</svg>
