<svg width="24" height="24" viewBox="0 0 24 24" fill="none" xmlns="http://www.w3.org/2000/svg">
<path d="M17.8346 8.4381C17.4053 8.62476 16.9445 8.7531 16.4603 8.8091C16.955 8.51743 17.333 8.05543 17.5126 7.50593C17.0413 7.78064 16.5269 7.97391 15.9913 8.0776C15.766 7.84143 15.4949 7.65364 15.1947 7.52567C14.8944 7.3977 14.5712 7.33223 14.2448 7.33326C12.923 7.33326 11.852 8.3891 11.852 9.68993C11.852 9.87426 11.873 10.0539 11.9138 10.2266C10.9657 10.1816 10.0374 9.93941 9.18806 9.51557C8.33876 9.09172 7.58713 8.4955 6.98114 7.76493C6.76829 8.12321 6.65623 8.53236 6.6568 8.9491C6.6568 9.76576 7.0803 10.4891 7.72197 10.9103C7.34215 10.8984 6.97047 10.7972 6.63697 10.6151V10.6443C6.64057 11.192 6.8339 11.7215 7.18404 12.1427C7.53418 12.5639 8.01947 12.8507 8.5573 12.9543C8.20422 13.0476 7.83478 13.0612 7.4758 12.9939C7.63228 13.4651 7.93159 13.8759 8.33216 14.1692C8.73274 14.4625 9.2147 14.6238 9.71113 14.6308C8.85943 15.2871 7.81371 15.6417 6.73847 15.6388C6.54597 15.6388 6.3558 15.6271 6.16797 15.6061C7.26519 16.3006 8.53743 16.6684 9.83597 16.6666C14.239 16.6666 16.6458 13.0756 16.6458 9.9606L16.6376 9.65493C17.107 9.32509 17.5126 8.9128 17.8346 8.4381Z" fill="#04AFBA"/>
<path d="M5.00065 2.66659C4.38181 2.66659 3.78832 2.91242 3.35074 3.35C2.91315 3.78759 2.66732 4.38108 2.66732 4.99992V18.9999C2.66732 19.6188 2.91315 20.2123 3.35074 20.6498C3.78832 21.0874 4.38181 21.3333 5.00065 21.3333H19.0007C19.6195 21.3333 20.213 21.0874 20.6506 20.6498C21.0882 20.2123 21.334 19.6188 21.334 18.9999V4.99992C21.334 4.38108 21.0882 3.78759 20.6506 3.35C20.213 2.91242 19.6195 2.66659 19.0007 2.66659H5.00065ZM5.00065 0.333252H19.0007C20.2383 0.333252 21.4253 0.824917 22.3005 1.70009C23.1757 2.57526 23.6673 3.76224 23.6673 4.99992V18.9999C23.6673 20.2376 23.1757 21.4246 22.3005 22.2998C21.4253 23.1749 20.2383 23.6666 19.0007 23.6666H5.00065C3.76297 23.6666 2.57599 23.1749 1.70082 22.2998C0.82565 21.4246 0.333984 20.2376 0.333984 18.9999V4.99992C0.333984 3.76224 0.82565 2.57526 1.70082 1.70009C2.57599 0.824917 3.76297 0.333252 5.00065 0.333252V0.333252Z" fill="#04AFBA"/>
</svg>
