<svg width="89" height="56" viewBox="0 0 89 56" fill="none" xmlns="http://www.w3.org/2000/svg">
<path d="M70.0966 18.1319C70.0966 13.1355 68.3163 8.86447 64.7559 5.31868C61.1954 1.77289 56.9067 0 51.8897 0H36.7172C31.7002 0 27.4115 1.77289 23.851 5.31868C20.2906 8.86447 18.5103 13.1355 18.5103 18.1319V33.4835C18.4497 38.3791 16.6694 42.5696 13.1697 46.055C9.6092 49.6007 5.32046 51.3736 0.303448 51.3736H0V55.0302H88.1517V51.3736C83.1954 51.3333 78.9572 49.5604 75.4372 46.055C71.9375 42.5696 70.1572 38.3791 70.0966 33.4835C70.0966 33.4029 70.0966 33.3223 70.0966 33.2418V18.1319Z" fill="#04AFBA"/>
<path d="M57.9792 21.0224C57.9792 28.7543 51.7543 34.9792 44.0224 34.9792C36.2904 34.9792 30 28.6888 30 21.0224C30 13.3559 36.2904 7 43.9568 7C51.6233 7 57.9792 13.2904 57.9792 21.0224ZM52.213 27.968C51.1646 26.0023 49.0678 24.6262 46.6434 24.6262C46.5123 24.6262 46.3813 24.6262 46.2502 24.6918C45.5294 24.9539 44.7431 25.0849 43.9568 25.0849C43.1705 25.0849 42.3842 24.9539 41.6635 24.6918C41.5324 24.6262 41.4014 24.6262 41.2703 24.6262C38.8459 24.6262 36.8146 26.0023 35.7007 27.968C37.6664 30.3269 40.6151 31.834 43.9568 31.834C47.2986 31.834 50.2472 30.3269 52.213 27.968ZM39.0425 17.4185C39.0425 20.1705 41.2703 22.3984 44.0224 22.3984C46.7744 22.3984 49.0023 20.1705 49.0023 17.4185C49.0023 14.6664 46.7744 12.4386 44.0224 12.4386C41.2703 12.4386 39.0425 14.6664 39.0425 17.4185Z" fill="white"/>
</svg>
