<svg width="36" height="36" viewBox="0 0 36 36" fill="none" xmlns="http://www.w3.org/2000/svg">
<g clip-path="url(#clip0_111:14208)">
<path d="M27.8574 31.4308C27.8574 31.6385 27.8574 31.7769 27.8574 31.9154C27.789 32.6769 27.7206 32.7462 26.9677 32.7462C26.078 32.7462 25.1198 32.7462 24.2301 32.7462C23.3403 32.7462 23.3403 32.7462 23.2035 31.8462C23.2035 31.7769 23.2035 31.6385 23.135 31.5692C23.135 31.5692 23.135 31.5 23.0666 31.4308C19.8498 31.4308 16.5647 31.4308 13.3479 31.4308C13.0742 32.8154 13.0742 32.8154 11.6369 32.8154C10.9525 32.8154 10.2681 32.8154 9.58368 32.8154C8.69395 32.8154 8.69395 32.7462 8.55706 31.8462C8.55706 31.7769 8.55706 31.6385 8.55706 31.5692C8.55706 31.5692 8.48862 31.5 8.48862 31.4308C8.42018 31.4308 8.21486 31.3615 8.07798 31.3615C6.09319 30.9462 4.99813 29.6308 4.92969 27.6231C4.92969 26.5846 4.92969 25.4769 4.92969 24.4385C4.92969 19.1769 4.92969 13.9846 4.92969 8.72308C4.92969 8.23846 4.92969 7.82308 5.06657 7.33846C5.40878 5.67692 6.70916 4.56923 8.35174 4.5C9.24148 4.5 10.1997 4.5 11.0894 4.5C16.4962 4.5 21.9715 4.5 27.3784 4.5C27.8574 4.5 28.405 4.5 28.8156 4.63846C30.2529 5.05385 31.1426 5.95385 31.4164 7.47692C31.4848 7.96154 31.4848 8.44615 31.4848 8.93077C31.4848 15.0923 31.4848 21.2538 31.4848 27.4154C31.4848 29.7 30.3898 31.0154 28.1997 31.4308C28.1312 31.3615 27.9943 31.4308 27.8574 31.4308ZM29.6369 17.8615C29.6369 14.8154 29.6369 11.8385 29.6369 8.79231C29.6369 8.51538 29.6369 8.23846 29.6369 8.03077C29.5685 7.06154 28.9525 6.43846 27.9943 6.36923C27.789 6.36923 27.5837 6.36923 27.3784 6.36923C21.2871 6.36923 15.1274 6.36923 9.03615 6.36923C8.76239 6.36923 8.48862 6.36923 8.2833 6.36923C7.46201 6.50769 6.84604 7.13077 6.7776 7.96154C6.7776 8.16923 6.7776 8.44615 6.7776 8.65385C6.7776 14.6769 6.7776 20.6308 6.7776 26.6538C6.7776 27.0692 6.7776 27.4154 6.7776 27.8308C6.84604 28.7308 7.32513 29.2846 8.21486 29.4923C8.55706 29.5615 8.89927 29.5615 9.17303 29.5615C15.1958 29.5615 21.1502 29.5615 27.173 29.5615C27.5837 29.5615 27.9943 29.5615 28.3365 29.4923C29.0894 29.2846 29.5685 28.7308 29.6369 27.9692C29.6369 27.6923 29.6369 27.3462 29.6369 27.0692C29.6369 23.9538 29.6369 20.9077 29.6369 17.8615Z" fill="white"/>
<path d="M28.0646 16.3386C28.0646 17.1002 28.0646 17.7925 28.0646 18.554C27.8593 18.6232 27.5855 18.6925 27.3118 18.6925C26.8327 18.7617 26.4905 19.0386 26.4905 19.5232C26.422 20.354 26.422 21.1848 26.4905 22.0155C26.4905 22.5694 26.8327 22.8463 27.3802 22.9155C27.5855 22.9848 27.7909 22.9848 28.1331 22.9848C28.1331 24.4386 28.1331 25.8232 28.1331 27.2079C28.1331 27.6925 27.8593 27.9002 27.3802 27.9002C27.1749 27.9002 26.9011 27.9002 26.6958 27.9002C21.0152 27.9002 15.3346 27.9002 9.72242 27.9002C8.3536 27.9002 8.28516 27.8309 8.28516 26.4463C8.28516 20.7002 8.28516 14.954 8.28516 9.27709C8.28516 9.0694 8.28516 8.79247 8.28516 8.58478C8.3536 8.03093 8.49048 7.89247 9.10645 7.82324C9.31177 7.82324 9.51709 7.82324 9.72242 7.82324C15.403 7.82324 21.0836 7.82324 26.8327 7.82324C26.9011 7.82324 27.038 7.82324 27.1064 7.82324C28.0646 7.82324 28.2015 7.9617 28.2699 9.00017C28.2699 9.9694 28.2699 10.8694 28.2699 11.8386C26.6274 12.1848 26.6274 12.1848 26.6274 13.9155C26.6274 14.2617 26.6274 14.6771 26.6274 15.0232C26.6274 15.9232 26.9011 16.1309 27.7909 16.2694C27.7224 16.2694 27.8593 16.3386 28.0646 16.3386ZM19.7148 16.4079C18.8935 13.9848 16.7034 12.6694 14.308 13.0848C12.0494 13.4309 10.2699 15.5771 10.3384 17.9309C10.3384 20.354 12.0494 22.4309 14.4449 22.7771C16.7718 23.1232 19.0304 21.7386 19.7148 19.454C19.0304 19.2463 18.6198 19.3848 18.1407 20.0079C17.0456 21.6694 14.9239 22.0848 13.2814 21.1156C11.7072 20.1463 11.0228 18.1386 11.7757 16.4771C12.8707 13.8463 16.3612 13.4309 18.0722 15.7155C18.2776 15.9925 18.4144 16.2694 18.6198 16.4771C18.962 16.4079 19.3042 16.4079 19.7148 16.4079ZM17.3878 17.1002C16.4981 15.7155 15.6084 15.3002 14.4449 15.6463C13.5551 15.9232 12.8707 16.8232 12.8023 17.7925C12.7338 18.8309 13.3498 19.7309 14.308 20.0771C15.4715 20.4925 16.2928 20.1463 17.4563 18.6232C18.1407 18.6232 18.8251 18.6232 19.5779 18.6232C20.2623 18.6232 21.0152 18.6232 21.6996 18.6232C22.1103 18.6232 22.384 18.3463 22.384 17.9309C22.4525 17.5155 22.1787 17.1694 21.768 17.1002C21.4943 17.0309 21.2205 17.1002 21.0152 17.1002C19.7833 17.1002 18.6198 17.1002 17.3878 17.1002Z" fill="white"/>
</g>
<defs>
<clipPath id="clip0_111:14208">
<rect width="36" height="36" fill="white"/>
</clipPath>
</defs>
</svg>
