<svg width="37" height="27" viewBox="0 0 37 27" fill="none" xmlns="http://www.w3.org/2000/svg">
<path d="M18.2174 3.04395C23.2086 3.04395 28.1997 3.04395 33.1908 3.04395C33.7556 3.04395 34.281 3.1489 34.7275 3.49001C35.2529 3.89672 35.5682 4.40838 35.5682 5.10371C35.555 10.9813 35.5682 16.8588 35.555 22.7495C35.555 23.8646 34.6881 24.7305 33.5192 24.8093C33.3616 24.8224 33.2171 24.8093 33.0595 24.8093C23.1692 24.8093 13.2788 24.8093 3.38854 24.8093C3.08644 24.8093 2.77121 24.783 2.48225 24.7043C1.41836 24.4025 0.892974 23.681 0.87984 22.5921C0.87984 18.8923 0.87984 15.2058 0.87984 11.506C0.87984 9.44628 0.906109 7.39963 0.866705 5.33986C0.840436 4.00167 1.86493 3.04395 3.17838 3.04395C8.19578 3.04395 13.2 3.04395 18.2174 3.04395ZM31.2469 8.94774C30.4457 8.94774 29.697 8.93462 28.9615 8.96086C28.5937 8.97398 28.3179 9.21013 28.1077 9.51188C28.0158 9.64307 27.9633 9.77427 27.8976 9.91858C26.7417 12.5031 25.5859 15.0877 24.4301 17.6722C24.4038 17.7378 24.4169 17.8297 24.4038 18.0002C25.3232 18.0002 26.2032 18.0133 27.0438 17.9871C27.2409 17.5017 27.3985 17.1081 27.5692 16.7014C28.5674 16.7014 29.5263 16.7014 30.5245 16.7014C30.6427 17.1343 30.7609 17.541 30.866 17.9346C31.7591 18.0527 32.7311 18.0265 33.2171 17.8559C32.6523 14.904 31.9036 11.9783 31.2469 8.94774ZM11.7946 8.97398C11.0328 10.8501 10.271 12.7393 9.52237 14.6285C9.28594 14.0644 9.1546 13.5265 9.03639 12.9754C8.8131 11.9521 8.64235 10.9288 8.3928 9.91858C8.20891 9.18389 7.93309 8.96086 7.19755 8.96086C5.94977 8.94774 4.70199 8.94774 3.45421 8.96086C3.34913 8.96086 3.24406 9.03957 3.02077 9.11829C4.03213 9.55123 5.03035 9.72179 5.77902 10.3646C6.46202 12.9361 7.13188 15.4681 7.89368 17.974C8.8525 17.974 9.74565 17.974 10.6519 17.974C11.9523 14.9827 13.2394 12.0177 14.5529 8.98709C13.6072 8.97398 12.7666 8.97398 11.7946 8.97398ZM22.1184 15.3763C22.0002 15.9011 21.5667 16.0979 21.107 16.1372C20.4372 16.2028 19.7542 16.216 19.1106 15.9536C18.7691 15.8224 18.4144 15.7305 17.981 15.5862C18.0467 16.3472 17.6132 16.9507 17.7446 17.7116C18.0335 17.8034 18.3488 17.9084 18.6509 17.9871C19.4652 18.2101 20.3058 18.1314 21.1202 18.1314C22.0659 18.1314 22.9196 17.8428 23.6814 17.2918C24.7978 16.4783 25.0868 15.0221 24.5483 14.0381C24.3644 13.6839 24.036 13.369 23.7077 13.146C23.2217 12.818 22.6832 12.5687 22.1578 12.2932C21.8032 12.1095 21.4879 11.8865 21.3435 11.4798C21.5667 11.0206 21.9345 10.7976 22.4336 10.7845C23.0247 10.7582 23.6157 10.7976 24.1805 11.0075C24.3775 11.0862 24.5877 11.1256 24.8372 11.2043C24.9555 10.509 25.0605 9.87922 25.1525 9.27572C25.0737 9.19701 25.0474 9.15765 25.008 9.14453C24.8898 9.09205 24.7716 9.03957 24.6402 9.01333C23.4056 8.73782 22.1841 8.69847 20.9626 9.09205C20.4372 9.26261 19.9643 9.51188 19.5572 9.89234C18.4013 10.9944 18.4013 12.4638 19.5834 13.5265C19.8724 13.7888 20.227 13.9856 20.5554 14.1824C20.8575 14.353 21.1727 14.4973 21.4879 14.6547C21.8032 14.7859 22.0396 15.009 22.1184 15.3763ZM15.3935 9.01333C15.3672 9.06581 15.341 9.11829 15.3278 9.18389C15.1045 10.4434 14.8813 11.7028 14.6711 12.9754C14.4215 14.4317 14.1589 15.888 13.9093 17.3442C13.8699 17.541 13.9093 17.7509 13.9093 18.0002C14.7893 18.0002 15.5905 18.0265 16.4049 17.9871C16.9171 14.9696 17.4162 12.0177 17.9153 9.09205C17.4031 8.90838 16.1422 8.88214 15.3935 9.01333Z" fill="#E5E5E5"/>
<path d="M30.091 14.6812C29.5 14.6812 28.9483 14.6812 28.3179 14.6812C28.6856 13.7235 29.0403 12.8182 29.4343 11.7949C29.7627 12.8051 29.9466 13.7235 30.091 14.6812Z" fill="#E5E5E5"/>
</svg>
