<svg width="28" height="24" viewBox="0 0 28 24" fill="none" xmlns="http://www.w3.org/2000/svg">
<path d="M27.3496 7.70762V21.3824C27.3496 22.8121 26.1064 23.9309 24.6146 23.9309H3.4187C1.55396 23.9309 0 22.377 0 20.5122V3.4187C0 1.55396 1.55396 0 3.4187 0H23.0607C24.4903 0 25.6092 1.11885 25.6092 2.54849C25.6092 3.04575 25.2362 3.4187 24.739 3.4187H4.22676C3.72949 3.4187 3.35654 3.79165 3.35654 4.28892C3.35654 4.78618 3.72949 5.15913 4.22676 5.15913H24.6146C26.1064 5.15913 27.3496 6.27798 27.3496 7.70762ZM23.9309 14.545C23.9309 13.6126 23.185 12.8046 22.1905 12.8046C21.1959 12.8046 20.5122 13.6126 20.5122 14.545C20.5122 15.4774 21.2581 16.2854 22.2526 16.2854C23.2472 16.2854 23.9309 15.4774 23.9309 14.545Z" fill="#04AFBA"/>
</svg>
