<svg width="88" height="55" viewBox="0 0 88 55" fill="none" xmlns="http://www.w3.org/2000/svg">
<g clip-path="url(#clip0_1117_2934)">
<path d="M70.0966 18.1319C70.0966 13.1355 68.3163 8.86447 64.7559 5.31868C61.1954 1.77289 56.9067 0 51.8897 0H36.7172C31.7002 0 27.4115 1.77289 23.851 5.31868C20.2906 8.86447 18.5103 13.1355 18.5103 18.1319V33.4835C18.4497 38.3791 16.6694 42.5696 13.1697 46.055C9.6092 49.6007 5.32046 51.3736 0.303448 51.3736H0V55.0302H88.1517V51.3736C83.1954 51.3333 78.9572 49.5604 75.4372 46.055C71.9375 42.5696 70.1572 38.3791 70.0966 33.4835C70.0966 33.4029 70.0966 33.3223 70.0966 33.2418V18.1319Z" fill="#04AFBA"/>
</g>
<path d="M58.3496 16.7076V30.3824C58.3496 31.8121 57.1064 32.9309 55.6146 32.9309H34.4187C32.554 32.9309 31 31.377 31 29.5122V12.4187C31 10.554 32.554 9 34.4187 9H54.0607C55.4903 9 56.6092 10.1188 56.6092 11.5485C56.6092 12.0458 56.2362 12.4187 55.739 12.4187H35.2268C34.7295 12.4187 34.3565 12.7917 34.3565 13.2889C34.3565 13.7862 34.7295 14.1591 35.2268 14.1591H55.6146C57.1064 14.1591 58.3496 15.278 58.3496 16.7076ZM54.9309 23.545C54.9309 22.6126 54.185 21.8046 53.1905 21.8046C52.1959 21.8046 51.5122 22.6126 51.5122 23.545C51.5122 24.4774 52.2581 25.2854 53.2526 25.2854C54.2472 25.2854 54.9309 24.4774 54.9309 23.545Z" fill="white"/>
<defs>
<clipPath id="clip0_1117_2934">
<rect width="88" height="55" fill="white"/>
</clipPath>
</defs>
</svg>
