<svg xmlns="http://www.w3.org/2000/svg" version="1.1" xmlns:xlink="http://www.w3.org/1999/xlink" preserveAspectRatio="none" x="0px" y="0px" width="2200px" height="8000px" viewBox="0 0 2200 8000">
<defs>
<linearGradient id="Gradient_1" gradientUnits="userSpaceOnUse" x1="1108.25" y1="8029.775000000001" x2="1108.25" y2="6794.825" spreadMethod="pad">
<stop  offset="0%" stop-color="#000000" stop-opacity="0"/>

<stop  offset="100%" stop-color="#000000"/>
</linearGradient>

<radialGradient id="Gradient_2" gradientUnits="userSpaceOnUse" cx="0" cy="0" r="868.5125" fx="0" fy="0" gradientTransform="matrix( 1, 0, 0, 1, 1285.05,4096.05) " spreadMethod="pad">
<stop  offset="34.90196078431372%" stop-color="#250640"/>

<stop  offset="100%" stop-color="#000000"/>
</radialGradient>

<radialGradient id="Gradient_3" gradientUnits="userSpaceOnUse" cx="0" cy="0" r="654.25" fx="0" fy="0" gradientTransform="matrix( 0, 1, -1.3817348108521208, 0, 1064.45,5686.5) " spreadMethod="pad">
<stop  offset="34.90196078431372%" stop-color="#200339"/>

<stop  offset="100%" stop-color="#000000"/>
</radialGradient>

<radialGradient id="Gradient_4" gradientUnits="userSpaceOnUse" cx="0" cy="0" r="913.7750000000001" fx="0" fy="0" gradientTransform="matrix( 0.9999999999999999, 0, 0, 0.9999999999999999, 1232.35,3757.9) " spreadMethod="pad">
<stop  offset="23.92156862745098%" stop-color="#0C2537"/>

<stop  offset="100%" stop-color="#000000"/>
</radialGradient>

<linearGradient id="Gradient_5" gradientUnits="userSpaceOnUse" x1="42.599999999999994" y1="658.5375" x2="-476.29999999999995" y2="213.76249999999996" spreadMethod="pad">
<stop  offset="0%" stop-color="#000000"/>

<stop  offset="48.627450980392155%" stop-color="#670434"/>

<stop  offset="48.627450980392155%" stop-color="#46142B"/>

<stop  offset="61.96078431372549%" stop-color="#600632"/>

<stop  offset="70.58823529411765%" stop-color="#37031E"/>

<stop  offset="84.31372549019608%" stop-color="#2E061A"/>

<stop  offset="93.72549019607843%" stop-color="#000000"/>
</linearGradient>

<radialGradient id="Gradient_6" gradientUnits="userSpaceOnUse" cx="0" cy="0" r="1022.2499999999998" fx="0" fy="0" gradientTransform="matrix( 1.0000000000000002, 0, 0, 0.7824773783321107, 1125.7,697) " spreadMethod="pad">
<stop  offset="22.745098039215687%" stop-color="#1D0032"/>

<stop  offset="100%" stop-color="#000000"/>
</radialGradient>

<radialGradient id="Gradient_7" gradientUnits="userSpaceOnUse" cx="0" cy="0" r="802.45" fx="0" fy="0" gradientTransform="matrix( 0.9999999999999999, 0, 0, 0.7149978191787649, 1313.95,2128) " spreadMethod="pad">
<stop  offset="22.745098039215687%" stop-color="#031A3E"/>

<stop  offset="100%" stop-color="#000000"/>
</radialGradient>

<linearGradient id="Gradient_8" gradientUnits="userSpaceOnUse" x1="1843.7" y1="210.075" x2="2363.1" y2="-208.675" spreadMethod="pad">
<stop  offset="0%" stop-color="#000000"/>

<stop  offset="48.627450980392155%" stop-color="#670434"/>

<stop  offset="48.627450980392155%" stop-color="#46142B"/>

<stop  offset="61.96078431372549%" stop-color="#600632"/>

<stop  offset="70.58823529411765%" stop-color="#37031E"/>

<stop  offset="84.31372549019608%" stop-color="#2E061A"/>

<stop  offset="93.72549019607843%" stop-color="#000000"/>
</linearGradient>
</defs>

<g id="Layer_6">
<g>
<g>
<g>
<path fill="url(#Gradient_1)" stroke="none" d="
M 2216.65 8014.9
L 2216.65 6809.6 0 6809.55 0 8014.85 2216.65 8014.9 Z"/>

<path fill="#000000" stroke="none" d="
M 343.6 5140.1
L 0 5140.1 0 6809.55 2216.65 6809.6 2216.65 5140.1 1667.25 5140.1
Q 1676.436328125 5148.887890625 1685.5 5157.95 1967.2 5439.7 1967.2 5838.1 1967.2 6236.45 1685.5 6518.1 1441.15 6762.55 1108.95 6794.9
L 901.8 6794.9
Q 569.7 6762.45 325.35 6518.1 43.7 6236.45 43.7 5838.1 43.7 5439.7 325.35 5157.95 334.423828125 5148.879296875 343.6 5140.1 Z"/>

<path fill="url(#Gradient_2)" stroke="none" d="
M 354.9 3436.2
Q 155.0529296875 3396.758203125 0 3326.5
L 0 5140.1 343.6 5140.1
Q 619.8830078125 4876.35 1005.45 4876.35 1391.0291015625 4876.35 1667.25 5140.1
L 2216.65 5140.1 2216.65 4890.35 184.25 4802 43.7 3847.75
Q 198.948828125 3610.25625 354.9 3436.2
M 2176.8 3346.4
Q 2159.176953125 3346.3146484375 2141.35 3346.3 2191.00625 3406.9720703125 2163.95 3457.35
L 2216.65 4890.35 2216.65 3348.45
Q 2197.2099609375 3346.4900390625 2176.8 3346.4 Z"/>

<path fill="url(#Gradient_3)" stroke="none" d="
M 343.6 5140.1
Q 334.423828125 5148.879296875 325.35 5157.95 43.7 5439.7 43.7 5838.1 43.7 6236.45 325.35 6518.1 569.7 6762.45 901.8 6794.9
L 1108.95 6794.9
Q 1441.15 6762.55 1685.5 6518.1 1967.2 6236.45 1967.2 5838.1 1967.2 5439.7 1685.5 5157.95 1676.436328125 5148.887890625 1667.25 5140.1 1391.0291015625 4876.35 1005.45 4876.35 619.8830078125 4876.35 343.6 5140.1 Z"/>

<path fill="url(#Gradient_4)" stroke="none" d="
M 2163.95 3457.35
Q 2191.00625 3406.9720703125 2141.35 3346.3 2027.63984375 3207.33125 1511.3 3014.35 928.2697265625 2796.47265625 354.9 3436.2 198.948828125 3610.25625 43.7 3847.75
L 184.25 4802 2216.65 4890.35 2163.95 3457.35 Z"/>

<path fill="url(#Gradient_5)" stroke="none" d="
M 1088.05 62.25
L 1088.05 0 0 0 0 1154.5
Q 211.903125 107.5673828125 1088.05 62.25 Z"/>

<path fill="url(#Gradient_6)" stroke="none" d="
M 2216.65 1090.1
L 2194.1 1154.5
Q 2219.946484375 133.810546875 1088.05 62.25 211.903125 107.5673828125 0 1154.5
L 0 3326.5
Q 155.0529296875 3396.758203125 354.9 3436.2 928.2697265625 2796.47265625 1511.3 3014.35 2027.63984375 3207.33125 2141.35 3346.3 2159.176953125 3346.3146484375 2176.8 3346.4 2197.2099609375 3346.4900390625 2216.65 3348.45
L 2216.65 1090.1
M 350.4 2172.45
Q 350.4 1879.7 621.75 1672.7 893 1465.7 1276.7 1465.7 1660.45 1465.7 1931.7 1672.7 2203 1879.7 2203 2172.45 2203 2465.25 1931.7 2672.2 1660.45 2879.2 1276.7 2879.2 893 2879.2 621.75 2672.2 350.4 2465.25 350.4 2172.45 Z"/>

<path fill="url(#Gradient_7)" stroke="none" d="
M 621.75 1672.7
Q 350.4 1879.7 350.4 2172.45 350.4 2465.25 621.75 2672.2 893 2879.2 1276.7 2879.2 1660.45 2879.2 1931.7 2672.2 2203 2465.25 2203 2172.45 2203 1879.7 1931.7 1672.7 1660.45 1465.7 1276.7 1465.7 893 1465.7 621.75 1672.7 Z"/>

<path fill="url(#Gradient_8)" stroke="none" d="
M 2194.1 1154.5
L 2216.65 1090.1 2216.65 0 1088.05 0 1088.05 62.25
Q 2219.946484375 133.810546875 2194.1 1154.5 Z"/>
</g>
</g>
</g>
</g>
</svg>
