<svg width="49" height="48" viewBox="0 0 49 48" fill="none" xmlns="http://www.w3.org/2000/svg">
<path d="M16.9886 47.0097C17.108 47.0097 17.2273 47.0097 17.3466 46.8912C17.466 46.7728 17.466 46.6543 17.466 46.5359C17.466 46.4174 17.466 46.299 17.3466 46.1805C17.2273 46.0621 17.108 46.0621 16.9886 46.0621C16.8693 46.0621 16.7499 46.0621 16.6306 46.1805C16.5112 46.299 16.5112 46.4174 16.5112 46.5359C16.5112 46.6543 16.5112 46.7728 16.6306 46.8912C16.7499 47.0097 16.8693 47.0097 16.9886 47.0097ZM5.41193 35.6381C5.53128 35.6381 5.76998 35.6381 5.88933 35.5196C6.00868 35.4012 6.00866 35.2827 6.00866 35.0458C6.00866 34.9274 6.00868 34.6905 5.88933 34.572C5.76998 34.4535 5.65062 34.3351 5.41193 34.3351C5.29258 34.3351 5.0539 34.4535 4.93455 34.572C4.8152 34.6905 4.69586 34.8089 4.69586 35.0458C4.69586 35.1643 4.8152 35.4012 4.93455 35.5196C5.17324 35.6381 5.29258 35.6381 5.41193 35.6381ZM1.59283 31.7291C1.71218 31.7291 1.83153 31.7291 1.95087 31.6106C2.07022 31.4922 2.07023 31.3737 2.07023 31.2553C2.07023 31.1368 2.07022 31.0184 1.95087 30.8999C1.83153 30.7815 1.71218 30.7815 1.59283 30.7815C1.47348 30.7815 1.35413 30.8999 1.23478 30.8999C1.11544 31.0184 1.11545 31.1368 1.11545 31.2553C1.11545 31.3737 1.11544 31.4922 1.23478 31.6106C1.35413 31.6106 1.47348 31.7291 1.59283 31.7291ZM5.41193 28.2939C5.65062 28.2939 5.88932 28.1755 6.00866 28.057C6.12801 27.9386 6.24737 27.7016 6.24737 27.4647C6.24737 27.2278 6.12801 26.9909 6.00866 26.8725C5.88932 26.754 5.65062 26.6356 5.41193 26.6356C5.17323 26.6356 4.93454 26.754 4.81519 26.8725C4.69585 26.9909 4.5765 27.2278 4.5765 27.4647C4.5765 27.7016 4.69585 27.9386 4.81519 28.057C5.05389 28.1755 5.17323 28.2939 5.41193 28.2939ZM20.927 41.7977C20.6883 41.7977 20.4497 41.9162 20.3303 42.0346C20.211 42.1531 20.0916 42.39 20.0916 42.6269C20.0916 42.8638 20.211 43.1007 20.3303 43.2192C20.4497 43.3376 20.6883 43.4561 20.927 43.4561C21.1657 43.4561 21.4044 43.3376 21.5238 43.2192C21.6431 43.1007 21.7625 42.8638 21.7625 42.6269C21.7625 42.39 21.7625 42.1531 21.5238 42.0346C21.4044 41.9162 21.1657 41.7977 20.927 41.7977ZM13.6469 42.2715C13.5275 42.1531 13.4082 42.1531 13.1695 42.1531C13.0501 42.1531 12.8115 42.1531 12.6921 42.2715C12.5728 42.39 12.4534 42.5084 12.4534 42.7453C12.4534 42.8638 12.5728 43.1007 12.6921 43.2192C12.8115 43.3376 12.9308 43.4561 13.1695 43.4561C13.4082 43.4561 13.5275 43.3376 13.6469 43.2192C13.7662 43.1007 13.8856 42.9823 13.8856 42.7453C13.7662 42.5084 13.7662 42.39 13.6469 42.2715ZM15.9145 38.8363C15.9145 39.0733 16.0338 39.4286 16.2725 39.5471C16.5112 39.784 16.7499 39.9024 16.9886 39.9024C17.2273 39.9024 17.5853 39.784 17.7047 39.5471C17.9434 39.3102 18.0627 39.0733 18.0627 38.8363C18.0627 38.5994 17.9434 38.3625 17.7047 38.1256C17.466 37.8887 17.2273 37.7703 16.9886 37.7703C16.7499 37.7703 16.3919 37.8887 16.2725 38.1256C16.0338 38.3625 15.9145 38.5994 15.9145 38.8363ZM9.23105 39.5471C9.46974 39.5471 9.58908 39.4286 9.70843 39.3102C9.82778 39.1917 9.94712 38.9548 9.94712 38.8363C9.94712 38.7179 9.82778 38.481 9.70843 38.3625C9.58908 38.2441 9.35039 38.1256 9.23105 38.1256C9.1117 38.1256 8.873 38.2441 8.75365 38.3625C8.6343 38.481 8.51496 38.7179 8.51496 38.8363C8.51496 39.0733 8.6343 39.1917 8.75365 39.3102C8.99234 39.5471 9.1117 39.5471 9.23105 39.5471ZM14.0049 34.2166C13.7662 33.9797 13.5275 33.8613 13.1695 33.8613C12.8114 33.8613 12.5728 33.9797 12.3341 34.2166C12.0954 34.4535 11.976 34.6905 11.976 35.0458C11.976 35.4012 12.0954 35.6381 12.3341 35.875C12.5728 36.1119 12.8114 36.2304 13.1695 36.2304C13.5275 36.2304 13.7662 36.1119 14.0049 35.875C14.2436 35.6381 14.363 35.4012 14.363 35.0458C14.363 34.6905 14.2436 34.4535 14.0049 34.2166ZM10.0665 31.966C10.3052 31.7291 10.4245 31.4922 10.4245 31.2553C10.4245 30.8999 10.3052 30.663 10.0665 30.5445C9.82778 30.3076 9.58909 30.1892 9.23105 30.1892C8.99235 30.1892 8.75365 30.3076 8.51496 30.5445C8.27626 30.7815 8.27627 31.0184 8.27627 31.2553C8.27627 31.4922 8.39562 31.7291 8.63431 31.966C8.87301 32.2029 9.11169 32.3214 9.35038 32.3214C9.58908 32.3214 9.82778 32.2029 10.0665 31.966ZM11.976 12.0657C11.976 12.421 12.0954 12.6579 12.3341 12.8949C12.5728 13.1318 12.8114 13.2502 13.1695 13.2502C13.5275 13.2502 13.7662 13.1318 14.0049 12.8949C14.2436 12.6579 14.363 12.421 14.363 12.0657C14.363 11.7103 14.2436 11.4734 14.0049 11.2365C13.7662 10.9996 13.5275 10.8811 13.1695 10.8811C12.8114 10.8811 12.5728 10.9996 12.3341 11.2365C12.0954 11.4734 11.976 11.7103 11.976 12.0657ZM19.8529 13.1318C20.211 13.4871 20.569 13.6056 20.927 13.6056C21.2851 13.6056 21.6431 13.4871 22.0012 13.1318C22.2399 12.8949 22.4786 12.5395 22.4786 12.0657C22.4786 11.5919 22.3592 11.2365 22.0012 10.9996C21.6431 10.7627 21.2851 10.5258 20.927 10.5258C20.4497 10.5258 20.0916 10.6442 19.8529 10.9996C19.6142 11.2365 19.3755 11.5919 19.3755 12.0657C19.3755 12.5395 19.4949 12.8949 19.8529 13.1318ZM16.9886 9.34123C17.2273 9.34123 17.5853 9.22278 17.7047 8.98587C17.9434 8.74896 18.0627 8.51206 18.0627 8.27515C18.0627 8.03824 17.9434 7.68287 17.7047 7.56441C17.466 7.32751 17.2273 7.20906 16.9886 7.20906C16.7499 7.20906 16.3919 7.32751 16.2725 7.56441C16.0338 7.80132 15.9145 8.03824 16.0338 8.27515C16.0338 8.51206 16.1532 8.74896 16.3919 8.98587C16.5112 9.22278 16.7499 9.34123 16.9886 9.34123ZM4.5765 19.7652C4.5765 20.0021 4.69585 20.239 4.81519 20.3575C4.93454 20.4759 5.17323 20.5944 5.41193 20.5944C5.65062 20.5944 5.88932 20.4759 6.00866 20.3575C6.12801 20.239 6.24737 20.0021 6.24737 19.7652C6.24737 19.5283 6.12801 19.2914 6.00866 19.1729C5.88932 19.0545 5.65062 18.936 5.41193 18.936C5.17323 18.936 4.93454 19.0545 4.81519 19.1729C4.69585 19.2914 4.5765 19.5283 4.5765 19.7652ZM1.95087 23.2004C1.83153 23.0819 1.71218 22.9635 1.59283 22.9635C1.47348 22.9635 1.35413 23.0819 1.23478 23.2004C1.11544 23.3188 0.996094 23.4373 0.996094 23.5557C0.996094 23.6742 1.11544 23.9111 1.23478 23.9111C1.35413 24.0296 1.47348 24.148 1.59283 24.148C1.71218 24.148 1.95087 24.0296 1.95087 23.9111C2.07022 23.7927 2.07023 23.6742 2.07023 23.5557C2.18957 23.4373 2.07022 23.3188 1.95087 23.2004ZM8.51496 15.1455C8.27626 15.3824 8.15691 15.6193 8.15691 15.8562C8.15691 16.2116 8.27626 16.4485 8.51496 16.6854C8.75365 16.9223 8.99235 17.0408 9.23105 17.0408C9.58909 17.0408 9.82778 16.9223 10.0665 16.6854C10.3052 16.4485 10.4245 16.2116 10.4245 15.9747C10.4245 15.7378 10.3052 15.3824 10.0665 15.2639C9.82778 15.027 9.58908 14.9086 9.35038 14.9086C8.99234 14.7901 8.75365 14.9086 8.51496 15.1455ZM1.11545 15.8562C1.11545 15.9747 1.23478 16.0931 1.23478 16.2116C1.35413 16.33 1.47348 16.33 1.59283 16.4485C1.71218 16.4485 1.83153 16.4485 1.95087 16.33C2.07022 16.2116 2.07023 16.0931 2.07023 15.9747C2.07023 15.8562 1.95087 15.7378 1.95087 15.6193C1.83153 15.5009 1.71218 15.5009 1.59283 15.5009C1.47348 15.5009 1.35413 15.5009 1.23478 15.6193C1.11544 15.7378 1.11545 15.7378 1.11545 15.8562ZM4.81519 12.0657C4.81519 12.1841 4.93456 12.421 5.0539 12.5395C5.17325 12.658 5.29259 12.7764 5.53128 12.7764C5.65063 12.7764 5.88932 12.658 6.00866 12.5395C6.12801 12.421 6.12802 12.3026 6.12802 12.0657C6.12802 11.9472 6.12801 11.7103 6.00866 11.5919C5.88932 11.4734 5.76998 11.4734 5.53128 11.4734C5.41194 11.4734 5.17325 11.4734 5.0539 11.5919C4.81521 11.7103 4.81519 11.9472 4.81519 12.0657ZM8.63431 8.27515C8.63431 8.51206 8.75366 8.6305 8.873 8.74896C8.99235 8.86741 9.11169 8.98587 9.35038 8.98587C9.58908 8.98587 9.70844 8.86741 9.82778 8.74896C9.94713 8.6305 10.0665 8.3936 10.0665 8.27515C10.0665 8.03824 9.94713 7.91978 9.82778 7.80133C9.70844 7.68287 9.46973 7.56441 9.35038 7.56441C9.23104 7.56441 8.99235 7.68287 8.873 7.80133C8.63431 7.91978 8.63431 8.03824 8.63431 8.27515ZM20.211 3.77388C20.0916 3.89234 19.9723 4.12924 19.9723 4.36615C19.9723 4.60306 20.0916 4.83997 20.211 4.95842C20.3303 5.07688 20.569 5.19533 20.8077 5.19533C21.0464 5.19533 21.2851 5.07688 21.4044 4.95842C21.5238 4.83997 21.6431 4.60306 21.6431 4.36615C21.6431 4.12924 21.5238 3.89234 21.4044 3.77388C21.2851 3.53697 21.0464 3.53698 20.8077 3.53698C20.6884 3.53698 20.4497 3.65543 20.211 3.77388ZM13.7662 4.36615C13.7662 4.2477 13.6469 4.01079 13.5275 3.89233C13.4082 3.77388 13.2888 3.77388 13.0501 3.77388C12.9308 3.77388 12.6921 3.89233 12.5727 4.01079C12.4534 4.12924 12.3341 4.2477 12.3341 4.48461C12.3341 4.60306 12.4534 4.83997 12.5727 4.95842C12.6921 5.07688 12.8115 5.07688 13.0501 5.07688C13.1695 5.07688 13.4082 4.95842 13.5275 4.95842C13.7662 4.72152 13.7662 4.60306 13.7662 4.36615ZM16.5112 0.575619C16.5112 0.694073 16.5112 0.812522 16.6306 0.930977C16.7499 1.04943 16.8693 1.04943 16.9886 1.04943C17.108 1.04943 17.2273 1.04943 17.3466 0.930977C17.466 0.812522 17.466 0.694073 17.466 0.575619C17.466 0.457165 17.466 0.338707 17.3466 0.220253C17.2273 0.101798 17.108 0.1018 16.9886 0.1018C16.8693 0.1018 16.7499 0.220253 16.6306 0.220253C16.6306 0.338707 16.5112 0.457165 16.5112 0.575619ZM25.3429 46.5359C25.3429 46.4174 25.3429 46.1805 25.2235 46.0621C25.1042 45.9436 24.9849 45.8252 24.7462 45.8252C24.6268 45.8252 24.3881 45.9436 24.2688 46.0621C24.1494 46.1805 24.1494 46.299 24.1494 46.5359C24.1494 46.6543 24.1494 46.8912 24.2688 46.8912C24.3881 47.0097 24.5075 47.1281 24.7462 47.1281C24.8655 47.1281 25.1042 47.0097 25.2235 46.8912C25.3429 46.8912 25.3429 46.7728 25.3429 46.5359ZM32.9811 46.5359C32.9811 46.4174 32.8617 46.299 32.8617 46.1805C32.7424 46.0621 32.6231 46.0621 32.5037 46.0621C32.3844 46.0621 32.265 46.0621 32.1457 46.1805C32.0263 46.299 32.0263 46.4174 32.0263 46.5359C32.0263 46.6543 32.0263 46.7728 32.1457 46.8912C32.265 47.0097 32.3844 47.0097 32.5037 47.0097C32.6231 47.0097 32.7424 47.0097 32.8617 46.8912C32.9811 46.7728 32.9811 46.6543 32.9811 46.5359ZM36.3228 42.0346C36.0841 42.0346 35.9648 42.0346 35.8454 42.1531C35.7261 42.2715 35.7261 42.39 35.7261 42.6269C35.7261 42.7453 35.7261 42.9823 35.8454 43.1007C35.9648 43.2192 36.2035 43.2192 36.3228 43.2192C36.4422 43.2192 36.6808 43.1007 36.8002 42.9822C36.9195 42.8638 37.0389 42.7453 37.0389 42.5084C37.0389 42.39 36.9195 42.1531 36.8002 42.0346C36.6808 42.1531 36.4422 42.0346 36.3228 42.0346ZM37.1582 35.875C37.3969 35.6381 37.5163 35.4012 37.5163 35.0458C37.5163 34.6905 37.3969 34.4535 37.1582 34.2166C36.9195 33.9797 36.6809 33.8613 36.3228 33.8613C35.9648 33.8613 35.7261 33.9797 35.4874 34.2166C35.2487 34.4535 35.1293 34.6905 35.1293 35.0458C35.1293 35.4012 35.2487 35.6381 35.4874 35.875C35.7261 36.1119 35.9648 36.2304 36.3228 36.2304C36.6809 36.2304 36.9195 36.1119 37.1582 35.875ZM31.6683 39.6655C31.907 39.9024 32.1457 40.0209 32.3844 40.0209C32.7424 40.0209 32.9811 39.9024 33.2198 39.6655C33.4585 39.4286 33.5778 39.1917 33.5778 38.9548C33.5778 38.5994 33.4585 38.3625 33.2198 38.1256C32.9811 37.8887 32.7424 37.7703 32.3844 37.7703C32.0263 37.7703 31.7876 37.8887 31.6683 38.1256C31.4296 38.3625 31.3102 38.5994 31.3102 38.9548C31.3102 39.1917 31.4296 39.4286 31.6683 39.6655ZM28.5653 41.7977C28.3266 41.7977 28.0879 41.9162 27.9685 42.0346C27.7298 42.1531 27.7298 42.39 27.7298 42.6269C27.7298 42.8638 27.8492 43.1007 27.9685 43.2192C28.0879 43.3376 28.3266 43.4561 28.5653 43.4561C28.804 43.4561 29.0426 43.3376 29.162 43.2192C29.2813 43.1007 29.4007 42.8638 29.4007 42.6269C29.4007 42.39 29.2813 42.1531 29.162 42.0346C29.0426 41.9162 28.804 41.7977 28.5653 41.7977ZM40.858 38.8363C40.858 38.7179 40.7386 38.481 40.6193 38.3625C40.4999 38.2441 40.2613 38.1256 40.1419 38.1256C39.9032 38.1256 39.7839 38.2441 39.6645 38.3625C39.5452 38.481 39.4258 38.7179 39.4258 38.8363C39.4258 39.0733 39.4258 39.1917 39.6645 39.3102C39.7839 39.4286 40.0226 39.5471 40.1419 39.5471C40.3806 39.5471 40.4999 39.4286 40.6193 39.3102C40.858 39.3102 40.858 39.0733 40.858 38.8363ZM44.5577 35.5196C44.6771 35.4012 44.7964 35.1643 44.7964 35.0458C44.7964 34.8089 44.6771 34.6905 44.5577 34.572C44.4384 34.4535 44.1997 34.3351 44.0804 34.3351C43.961 34.3351 43.7223 34.4535 43.603 34.572C43.4836 34.6905 43.3643 34.9274 43.3643 35.0458C43.3643 35.2827 43.4836 35.4012 43.603 35.5196C43.7223 35.6381 43.8417 35.7565 44.0804 35.7565C44.1997 35.7565 44.4384 35.6381 44.5577 35.5196ZM41.3354 31.2553C41.3354 30.8999 41.216 30.663 40.9773 30.4261C40.7386 30.1892 40.5 30.0707 40.1419 30.0707C39.9032 30.0707 39.5452 30.1892 39.3065 30.4261C39.0678 30.663 38.9484 30.8999 38.9484 31.2553C38.9484 31.6106 39.0678 31.8475 39.3065 32.0845C39.5452 32.3214 39.7839 32.4398 40.1419 32.4398C40.5 32.4398 40.7386 32.3214 40.9773 32.0845C41.216 31.8475 41.3354 31.4922 41.3354 31.2553ZM44.6771 28.057C44.7965 27.9386 44.9158 27.7017 44.9158 27.3463C44.9158 27.1094 44.7965 26.8725 44.6771 26.754C44.5578 26.6356 44.3191 26.5171 43.961 26.5171C43.7223 26.5171 43.4836 26.6356 43.3643 26.754C43.2449 26.8725 43.1256 27.1094 43.1256 27.3463C43.1256 27.5832 43.2449 27.8201 43.3643 28.057C43.603 28.1755 43.7223 28.2939 43.961 28.2939C44.3191 28.2939 44.5578 28.1755 44.6771 28.057ZM48.2575 31.6106C48.3769 31.4922 48.3769 31.3737 48.3769 31.2553C48.3769 31.1368 48.3769 31.0184 48.2575 30.8999C48.1382 30.7815 48.0188 30.7815 47.8995 30.7815C47.7801 30.7815 47.6608 30.7815 47.5414 30.8999C47.4221 31.0184 47.4221 31.1368 47.4221 31.2553C47.4221 31.3737 47.4221 31.6106 47.5414 31.6106C47.6608 31.6106 47.7801 31.7291 47.8995 31.7291C48.0188 31.7291 48.1382 31.7291 48.2575 31.6106ZM47.8995 22.9635C47.7801 22.9635 47.5414 23.0819 47.4221 23.2004C47.3027 23.3188 47.3027 23.4373 47.3027 23.6742C47.3027 23.7927 47.4221 24.0296 47.4221 24.148C47.5414 24.2665 47.6608 24.3849 47.8995 24.3849C48.0188 24.3849 48.1382 24.2665 48.3769 24.148C48.4962 24.0296 48.6156 23.9111 48.6156 23.6742C48.6156 23.4373 48.4962 23.3188 48.3769 23.2004C48.2575 22.9635 48.0188 22.9635 47.8995 22.9635ZM43.3643 20.3575C43.603 20.4759 43.7223 20.5944 43.961 20.5944C44.1997 20.5944 44.4384 20.4759 44.6771 20.3575C44.7965 20.239 44.9158 20.0021 44.9158 19.7652C44.9158 19.5283 44.7965 19.2914 44.6771 19.0545C44.4384 18.8176 44.3191 18.8176 43.961 18.8176C43.7223 18.8176 43.4836 18.936 43.3643 19.0545C43.2449 19.1729 43.1256 19.4098 43.1256 19.7652C43.1256 20.0021 43.2449 20.239 43.3643 20.3575ZM47.8995 15.3824C47.7801 15.3824 47.6608 15.5009 47.5414 15.5009C47.4221 15.6193 47.4221 15.7378 47.4221 15.8562C47.4221 15.9747 47.5414 16.0931 47.5414 16.2116C47.6608 16.33 47.7801 16.4485 47.8995 16.4485C48.0188 16.4485 48.1382 16.4485 48.2575 16.33C48.3769 16.2116 48.3769 16.0931 48.3769 15.8562C48.3769 15.7378 48.3769 15.6193 48.2575 15.5009C48.1382 15.3824 48.0188 15.3824 47.8995 15.3824ZM43.603 11.5919C43.4836 11.7103 43.3643 11.8288 43.3643 12.0657C43.3643 12.1841 43.4836 12.421 43.603 12.5395C43.7223 12.658 43.8417 12.7764 44.0804 12.7764C44.3191 12.7764 44.4384 12.658 44.5577 12.5395C44.6771 12.421 44.7964 12.1841 44.7964 12.0657C44.7964 11.8288 44.6771 11.7103 44.5577 11.5919C44.4384 11.4734 44.1997 11.355 44.0804 11.355C43.8417 11.355 43.7223 11.4734 43.603 11.5919ZM39.4258 16.6854C39.6645 16.9223 39.9032 17.0408 40.2613 17.0408C40.6193 17.0408 40.858 16.9223 41.0967 16.6854C41.3354 16.4485 41.4547 16.2116 41.4547 15.8562C41.4547 15.5009 41.3354 15.2639 41.0967 15.027C40.858 14.7901 40.6193 14.6717 40.2613 14.6717C39.9032 14.6717 39.6645 14.7901 39.4258 15.027C39.1871 15.2639 39.0678 15.5009 39.0678 15.8562C39.0678 16.2116 39.1871 16.4485 39.4258 16.6854ZM27.4911 13.1318C27.7298 13.4871 28.0879 13.6056 28.5653 13.6056C29.0426 13.6056 29.4007 13.4871 29.6394 13.1318C29.8781 12.8949 30.1168 12.5395 30.1168 12.0657C30.1168 11.5919 29.9974 11.2365 29.6394 10.9996C29.4007 10.7627 29.0426 10.5258 28.5653 10.5258C28.2072 10.5258 27.8492 10.6442 27.4911 10.9996C27.2524 11.2365 27.0137 11.5919 27.0137 12.0657C27.1331 12.5395 27.2524 12.8949 27.4911 13.1318ZM25.5816 9.10432C25.8203 8.86742 25.9396 8.63051 25.9396 8.27515C25.9396 7.91979 25.8203 7.68287 25.5816 7.44596C25.3429 7.20905 25.1042 7.09061 24.7462 7.09061C24.3881 7.09061 24.1494 7.20905 23.9107 7.44596C23.672 7.68287 23.5527 7.91979 23.5527 8.27515C23.5527 8.63051 23.672 8.86742 23.9107 9.10432C24.1494 9.34123 24.5075 9.45969 24.7462 9.45969C25.1042 9.45969 25.3429 9.34123 25.5816 9.10432ZM35.4874 12.8949C35.7261 13.1318 35.9648 13.2502 36.3228 13.2502C36.6809 13.2502 36.9195 13.1318 37.1582 12.8949C37.3969 12.6579 37.5163 12.421 37.5163 12.0657C37.5163 11.7103 37.3969 11.4734 37.1582 11.2365C36.9195 10.9996 36.6809 10.8811 36.3228 10.8811C35.9648 10.8811 35.7261 10.9996 35.4874 11.2365C35.2487 11.4734 35.1293 11.7103 35.1293 12.0657C35.1293 12.421 35.2487 12.6579 35.4874 12.8949ZM33.2198 8.98587C33.4585 8.74896 33.5778 8.51205 33.5778 8.15669C33.5778 7.80132 33.4585 7.56442 33.2198 7.44596C32.9811 7.20905 32.7424 7.09061 32.3844 7.09061C32.0263 7.09061 31.7876 7.20905 31.6683 7.44596C31.4296 7.68287 31.3102 7.91978 31.3102 8.15669C31.3102 8.3936 31.4296 8.74896 31.6683 8.98587C31.907 9.22278 32.1457 9.34123 32.3844 9.34123C32.7424 9.34123 33.1004 9.22278 33.2198 8.98587ZM39.6645 8.74896C39.7839 8.86741 40.0226 8.98587 40.1419 8.98587C40.3806 8.98587 40.4999 8.98587 40.6193 8.74896C40.7386 8.6305 40.858 8.3936 40.858 8.27515C40.858 8.03824 40.858 7.91978 40.6193 7.80133C40.4999 7.68287 40.2613 7.56441 40.1419 7.56441C39.9032 7.56441 39.7839 7.68287 39.6645 7.80133C39.5452 7.91978 39.4258 8.15669 39.4258 8.27515C39.4258 8.3936 39.5452 8.6305 39.6645 8.74896ZM35.8454 4.01079C35.7261 4.12924 35.7261 4.36615 35.7261 4.48461C35.7261 4.60306 35.7261 4.83997 35.8454 4.95842C35.9648 5.07688 36.2035 5.07688 36.3228 5.19533C36.4422 5.19533 36.6808 5.19533 36.8002 5.07688C36.9195 4.95842 37.0389 4.83997 36.9195 4.60306C36.9195 4.36615 36.9195 4.2477 36.8002 4.12925C36.6808 4.01079 36.4422 3.89233 36.3228 4.01079C36.2035 3.77388 35.9648 3.77388 35.8454 4.01079ZM32.1457 0.930977C32.265 1.04943 32.3844 1.04943 32.5037 1.04943C32.6231 1.04943 32.7424 1.04943 32.8617 0.930977C32.9811 0.812522 32.9811 0.694073 32.9811 0.575619C32.9811 0.457165 32.9811 0.338707 32.8617 0.220253C32.7424 0.101798 32.6231 0.1018 32.5037 0.1018C32.3844 0.1018 32.265 0.101798 32.1457 0.220253C32.0263 0.338707 32.0263 0.457165 32.0263 0.575619C32.0263 0.694073 32.0263 0.812522 32.1457 0.930977ZM27.9685 3.77388C27.8492 3.89234 27.7298 4.12924 27.7298 4.36615C27.7298 4.60306 27.8492 4.83997 27.9685 4.95842C28.0879 5.07688 28.3266 5.19533 28.5653 5.19533C28.804 5.19533 29.0426 5.07688 29.162 4.95842C29.2813 4.83997 29.4007 4.60306 29.4007 4.36615C29.4007 4.12924 29.2813 3.89234 29.162 3.77388C29.0426 3.65543 28.804 3.53698 28.5653 3.53698C28.3266 3.53698 28.2072 3.65543 27.9685 3.77388ZM25.3429 0.575619C25.3429 0.457165 25.3429 0.220253 25.2235 0.220253C25.1042 0.101798 24.9849 -0.0166542 24.7462 0.1018C24.6268 0.1018 24.3881 0.101798 24.2688 0.220253C24.1494 0.338707 24.1494 0.457163 24.1494 0.694072C24.1494 0.812526 24.1494 1.04944 24.2688 1.16789C24.3881 1.28634 24.5075 1.4048 24.7462 1.4048C24.8655 1.4048 25.1042 1.28634 25.2235 1.16789C25.3429 0.930982 25.3429 0.694073 25.3429 0.575619Z" fill="#04AFBA"/>
<path d="M34.6539 15.0862C34.5345 14.9678 34.5345 14.9678 34.4152 14.9678H16.0357C15.9164 14.9678 15.9164 14.9678 15.797 15.0862L7.92014 22.9042C7.80079 23.0227 7.80078 23.0227 7.80078 23.1411C7.80078 23.2596 7.80079 23.2596 7.92014 23.378L15.797 31.196L15.5583 31.4329C15.439 31.5514 15.439 31.5514 15.439 31.6698C15.439 31.7883 15.439 31.7883 15.5583 31.9067C15.797 32.2621 16.2744 32.7359 16.6325 33.0913C17.1098 33.5651 17.4679 33.802 17.7066 34.0389C17.8259 34.0389 17.8259 34.1574 17.9453 34.0389C18.0646 34.0389 18.0646 34.0389 18.184 33.9205L18.3033 33.6836L24.6287 39.9616L24.7481 40.0801C24.7481 40.1985 24.8674 40.1985 24.9867 40.1985H25.1061C25.2254 40.1985 25.2254 40.1985 25.3448 40.0801L31.7895 33.6836L32.1476 34.0389C32.1476 34.0389 32.2669 34.1574 32.3863 34.1574C32.5056 34.1574 32.5056 34.1574 32.625 34.1574C32.983 33.9205 33.341 33.5651 33.8184 33.0913C34.2958 32.6175 34.6539 32.2621 34.6539 32.0252C34.6539 31.9067 34.6539 31.9067 34.6539 31.7883C34.6539 31.6698 34.6538 31.6698 34.5345 31.6698L34.1765 31.3145L42.0534 23.4965C42.1727 23.378 42.1727 23.378 42.1727 23.2596C42.1727 23.1411 42.1727 23.1411 42.0534 23.0227L34.6539 15.0862ZM25.7028 26.4578C25.7028 26.3394 25.7028 26.3394 25.7028 26.4578L30.5961 31.196L30.238 31.4329L30.1187 31.5514V31.6698C30.1187 31.7883 30.1187 31.7883 30.238 31.7883L30.7154 32.2621L27.0157 35.9342V35.4604C27.0157 35.3419 27.0156 35.3419 26.8963 35.2235C26.777 35.105 26.777 35.105 26.6576 35.105H23.7933C23.6739 35.105 23.6739 35.105 23.5546 35.2235C23.4352 35.3419 23.4352 35.3419 23.4352 35.4604V36.0526L19.7355 32.3806L20.2129 32.0252C20.3322 32.0252 20.3322 31.9067 20.3322 31.7883C20.3322 31.6698 20.3322 31.5514 20.2129 31.5514C20.0935 31.3145 19.9742 31.196 19.8548 31.196C19.8548 31.196 19.8548 31.196 19.7355 31.0776C20.0935 30.7222 20.8096 29.893 22.0031 28.7085C23.1965 27.5239 24.032 26.6947 24.5094 26.3394L24.9867 26.6947C24.9867 26.6947 25.1061 26.8132 25.2255 26.8132C25.3448 26.8132 25.3448 26.8132 25.4641 26.8132C25.3448 26.6947 25.4641 26.5763 25.7028 26.4578ZM27.2543 24.7995C27.3737 24.681 27.3737 24.681 27.3737 24.5626C27.3737 24.4441 27.3737 24.4441 27.2543 24.3257H38.7116L33.1023 29.893C32.8636 29.6561 32.7443 29.5377 32.625 29.5377C32.5056 29.5377 32.5056 29.5377 32.3863 29.5377C32.2669 29.5377 32.2669 29.5377 32.2669 29.6561L31.9089 30.0115L27.135 25.1548L27.2543 24.7995ZM27.9704 22.5488H25.5835L25.2255 22.3119C25.2255 22.3119 25.1061 22.1935 24.9867 22.1935C24.8674 22.1935 24.8674 22.1935 24.7481 22.3119L24.39 22.5488H22.1224L17.5872 16.6261H32.5056L27.9704 22.5488ZM39.7858 22.5488C38.9504 22.5488 37.3988 22.5488 35.2506 22.5488C32.7443 22.5488 30.9541 22.5488 30.1187 22.5488L34.2958 17.1L39.7858 22.5488ZM22.7192 24.3257C22.5998 24.4441 22.5998 24.4441 22.5998 24.5626C22.5998 24.681 22.5998 24.681 22.7192 24.7995L23.0772 25.1548C23.0772 25.1548 23.0772 25.1548 23.0772 25.2733L18.542 29.7746C18.542 29.7746 18.542 29.7746 18.4227 29.893L18.0646 29.5377C17.9453 29.4192 17.9453 29.4192 17.8259 29.4192C17.7066 29.4192 17.7066 29.4192 17.5872 29.5377L17.1099 30.0115L11.5005 24.3257H22.7192ZM15.9164 17.2184L20.0935 22.5488H10.6651L15.9164 17.2184Z" fill="#04AFBA"/>
</svg>
