<svg width="55" height="42" viewBox="0 0 55 42" fill="none" xmlns="http://www.w3.org/2000/svg">
<path d="M25.6167 13.7764L7.42822 17.6222L22.1792 25.2084L25.6167 13.7764Z" fill="url(#paint0_linear_142_40)"/>
<path d="M32.8868 35.9687L22.1792 25.2084L27.5659 41.3027L32.8868 35.9687Z" fill="url(#paint1_linear_142_40)"/>
<path d="M0 13.7764L7.42816 17.6222L25.6166 13.7764H0Z" fill="url(#paint2_linear_142_40)"/>
<path d="M7.42816 17.6222L0 13.7764L27.5659 41.3027L22.1791 25.2084L7.42816 17.6222Z" fill="url(#paint3_linear_142_40)"/>
<path d="M33.5717 13.7764H25.6167L22.1792 25.2084L33.5717 13.7764Z" fill="url(#paint4_linear_142_40)"/>
<path d="M13.7236 0L37.2857 6.875L41.2631 0H13.7236Z" fill="url(#paint5_linear_142_40)"/>
<path d="M32.8867 25.722L38.0364 30.8058L55 13.75L32.8867 25.722Z" fill="url(#paint6_linear_142_40)"/>
<path d="M13.7237 0L6.90137 6.875H37.2857L13.7237 0Z" fill="url(#paint7_linear_142_40)"/>
<path d="M44.5031 14.0661L41.2631 0L37.2856 6.875L44.5031 14.0661Z" fill="url(#paint8_linear_142_40)"/>
<path d="M55 13.75L41.2632 0L44.5031 14.0661L32.8867 25.722L55 13.75Z" fill="url(#paint9_linear_142_40)"/>
<defs>
<linearGradient id="paint0_linear_142_40" x1="20.9181" y1="11.544" x2="11.8502" y2="27.2564" gradientUnits="userSpaceOnUse">
<stop offset="0.105882" stop-color="#FFC63B"/>
<stop offset="0.972549" stop-color="#976503"/>
</linearGradient>
<linearGradient id="paint1_linear_142_40" x1="27.4869" y1="25.159" x2="27.4869" y2="41.1941" gradientUnits="userSpaceOnUse">
<stop offset="0.105882" stop-color="#FFC63B"/>
<stop offset="0.972549" stop-color="#976503"/>
</linearGradient>
<linearGradient id="paint2_linear_142_40" x1="3.40457" y1="17.2929" x2="28.9949" y2="17.2929" gradientUnits="userSpaceOnUse">
<stop offset="0.105882" stop-color="#FFC63B"/>
<stop offset="0.972549" stop-color="#976503"/>
</linearGradient>
<linearGradient id="paint3_linear_142_40" x1="24.5696" y1="7.17795" x2="8.06693" y2="42.3168" gradientUnits="userSpaceOnUse">
<stop offset="0.105882" stop-color="#FFC63B"/>
<stop offset="0.972549" stop-color="#976503"/>
</linearGradient>
<linearGradient id="paint4_linear_142_40" x1="13.3517" y1="20.2036" x2="35.0106" y2="20.2036" gradientUnits="userSpaceOnUse">
<stop offset="0.105882" stop-color="#FFC63B"/>
<stop offset="0.972549" stop-color="#976503"/>
</linearGradient>
<linearGradient id="paint5_linear_142_40" x1="21.0036" y1="-3.07202" x2="33.8119" y2="9.73629" gradientUnits="userSpaceOnUse">
<stop offset="0.105882" stop-color="#FFC63B"/>
<stop offset="0.972549" stop-color="#976503"/>
</linearGradient>
<linearGradient id="paint6_linear_142_40" x1="32.8571" y1="22.2186" x2="54.9374" y2="22.2186" gradientUnits="userSpaceOnUse">
<stop offset="0.105882" stop-color="#FFC63B"/>
<stop offset="0.972549" stop-color="#976503"/>
</linearGradient>
<linearGradient id="paint7_linear_142_40" x1="5.26164" y1="4.79406" x2="28.9554" y2="4.79406" gradientUnits="userSpaceOnUse">
<stop offset="0.105882" stop-color="#FFC63B"/>
<stop offset="0.972549" stop-color="#976503"/>
</linearGradient>
<linearGradient id="paint8_linear_142_40" x1="37.2692" y1="7.00671" x2="44.4669" y2="7.00671" gradientUnits="userSpaceOnUse">
<stop offset="0.105882" stop-color="#FFC63B"/>
<stop offset="0.972549" stop-color="#976503"/>
</linearGradient>
<linearGradient id="paint9_linear_142_40" x1="45.965" y1="4.50431" x2="45.965" y2="23.6015" gradientUnits="userSpaceOnUse">
<stop offset="0.105882" stop-color="#FFC63B"/>
<stop offset="0.972549" stop-color="#976503"/>
</linearGradient>
</defs>
</svg>
