<svg width="36" height="31" viewBox="0 0 36 31" fill="none" xmlns="http://www.w3.org/2000/svg">
<path d="M18.15 0.949951C18.15 0.883285 18.1166 0.816618 18.05 0.749951L17.9 0.699951H17.7C17.6 0.733285 17.5166 0.783285 17.45 0.849951L10.15 13.95V14L0.949967 30.2999V30.3499C0.883301 30.4166 0.866634 30.4999 0.899967 30.5999C0.933301 30.6999 0.983301 30.7666 1.04997 30.7999H1.09997C1.16663 30.8666 1.24997 30.9 1.34997 30.9H35.15L35.2 30.8499L35.35 30.7999V30.75C35.4166 30.7166 35.45 30.6666 35.45 30.5999L35.5 30.5L35.45 30.4C35.45 30.3666 35.4333 30.3333 35.4 30.2999L18.15 0.949951ZM25.55 14.95L19.7 10.65L18.5 2.94995L25.55 14.95ZM19.3 11.25L25.4 15.75L12.05 13.95L19.3 11.25ZM17.6 2.19995L18.9 10.6L11.3 13.4L17.6 2.19995ZM13.5 19.0499L11.15 14.6L24.7 16.45L13.5 19.0499ZM10.45 14.9L12.95 19.65V19.7L2.24997 29.5499L10.45 14.9ZM34.05 29.45L24.85 24L26.9 17.25L34.05 29.45ZM24.35 24.6L33.75 30.15H4.09997L24.35 24.6ZM24.15 23.7L14.5 19.6L26.25 16.85L24.15 23.7ZM13.7 20.1L23.25 24.1L3.39997 29.5499L13.7 20.1Z" fill="white"/>
</svg>
