<svg width="21" height="21" viewBox="0 0 21 21" fill="none" xmlns="http://www.w3.org/2000/svg">
<path d="M12.2929 14.4464C10.8678 15.2327 9.4919 15.6258 7.96855 15.5767C4.08647 15.5275 0.843207 12.53 0.400944 8.69701C-0.0413185 4.81493 2.51398 0.785421 6.98575 0.0974569C11.9981 -0.688788 16.3224 3.38986 15.9293 8.45131C15.831 9.58154 15.5362 10.6135 14.9465 11.5963C14.7991 11.842 14.8482 11.9894 15.0448 12.1368C16.6173 13.6602 18.1897 15.1835 19.7622 16.7069C19.9096 16.8543 20.0079 16.9526 20.1554 17.1C20.8433 17.8371 20.8433 18.9673 20.1554 19.7044C19.4182 20.4416 18.3372 20.4907 17.5509 19.7536C15.9293 18.1811 14.2585 16.6086 12.6369 14.987C12.5386 14.7904 12.3912 14.643 12.2929 14.4464ZM8.21426 3.09502C5.60982 3.09502 3.49678 5.20805 3.49678 7.81249C3.49678 10.3678 5.60982 12.4808 8.16511 12.53C10.7696 12.53 12.8826 10.4169 12.8826 7.81249C12.8826 5.20805 10.7204 3.09502 8.21426 3.09502Z" fill="#6D6D6D"/>
</svg>
