<svg width="37" height="37" viewBox="0 0 37 37" fill="none" xmlns="http://www.w3.org/2000/svg">
<path d="M36.1501 14.55L24.4501 12.35L18.4 0.449951L12.7 12.65L0.0500488 14.3L9.60005 24.2L7.75005 36.2999L18.1 31.15L29.4501 35.5999V35.45L27.35 23.7999L27.4 23.75H27.4501L27.5 23.65L36.1501 14.55ZM18.55 2.59995L20.85 6.94995L16.9 9.94995L18.55 2.59995ZM23.8 13.2L23.9501 17.5499L17.35 14.75L23.8 13.2ZM26.5 22.85L23.4 22.15L24.4501 19.1L26.5 22.85ZM23.4 22.95L26.65 23.65L26.55 23.7V23.95L24.75 28.2999L23.4 22.95ZM27.2001 22.5L24.9 18.35L29.25 17.1L27.2001 22.5ZM23.75 18.9L22.6 22.0499L17.2001 21.9L23.75 18.9ZM24.7001 17.65L24.55 13.45L29 16.35L24.7001 17.65ZM33.75 14.9L29.9501 16.05L26 13.45L33.75 14.9ZM30.2001 16.75L34.1501 15.55L28.3 21.75L30.2001 16.75ZM21.2001 7.69995L23.4 12.15L17.2001 10.7L21.2001 7.69995ZM17.4 4.64995L16.1 10.65L13.9 12L17.4 4.64995ZM13.75 12.95L16 11.55V14.1L13.75 12.95ZM13.5 13.75L15.95 15L14.45 17.75L13.5 13.75ZM16.75 14.1V11.45L22.4 12.7L16.75 14.1ZM14.55 19.1L14.6 19.0499L15.9 16.75L15.2 21.95L11.1 23.2999L14.55 19.1ZM16 21.6L16.8 15.4L23.4 18.2L16 21.6ZM12.7 13.45L13.8 18.2L3.00005 14.85L12.7 13.45ZM13.7 18.95L10 23.5L2.55005 15.45L13.7 18.95ZM18 27.85L18.1 29.5499L15.45 27.2L18 27.85ZM18.2001 27.0499L14.3 26.1L10.9 24.2L15.65 22.7L22.05 22.7999L18.2001 27.0499ZM13.5 26.65L8.80005 34.2999L10.35 24.75L13.5 26.65ZM9.15005 34.65L14.15 27.0499L17.85 30.45L9.15005 34.65ZM25.15 29.4L26.8 25.2999L28.2001 33.7L25.15 29.4ZM18.75 28L23 29.35L18.85 30.0499L18.75 28ZM24.5 29.9L27.4501 33.95L19.4 30.7999L24.5 29.9ZM24.15 28.95L19.05 27.2L22.7001 23.25L24.15 28.95Z" fill="white"/>
</svg>
