<svg width="33" height="33" viewBox="0 0 33 33" fill="none" xmlns="http://www.w3.org/2000/svg">
<path d="M29.7999 0.199975C29.7666 0.133309 29.6999 0.0999756 29.5999 0.0999756H3.2499C3.11657 0.0999756 3.01657 0.133309 2.9499 0.199975L0.249902 2.89998H0.199902L0.149902 3.14998V29.35C0.149902 29.45 0.166569 29.55 0.199902 29.65L2.8499 32.2C2.91657 32.2666 3.01657 32.3 3.1499 32.3H29.3999C29.4999 32.3 29.5832 32.2666 29.6499 32.2L32.2499 29.65C32.3499 29.55 32.3999 29.45 32.3999 29.35V2.89998L32.3499 2.79998C32.3166 2.69998 32.2666 2.63331 32.1999 2.59998L29.7999 0.199975ZM27.8999 6.44998L27.7999 6.39998L26.4499 5.09998L31.6499 3.39998V10.95L28.1999 6.79998V6.74998L27.8999 6.44998ZM29.3999 0.849976L31.3499 2.74998L25.7499 4.54998H25.6999C25.6332 4.58331 25.5666 4.64998 25.4999 4.74998L6.4999 23.6L18.5499 0.849976H29.3999ZM27.9999 7.74998L31.6499 12.15V28.9L10.6499 26H27.5999C27.6999 26 27.7999 25.9666 27.8999 25.9C27.9666 25.8 27.9999 25.7166 27.9999 25.65V7.74998ZM25.7499 5.54998L27.2499 6.84998V25.2L5.9499 25.25L25.7499 5.54998ZM0.949902 3.24998L3.3499 0.849976H17.6999L5.1499 24.5L0.949902 3.24998ZM6.8499 27.9H6.8999L19.5999 31.55H3.2499L1.0499 29.4L4.9499 26.2L6.5499 27.75C6.61657 27.85 6.71657 27.9 6.8499 27.9ZM7.1499 27.2L6.1499 26.2L31.2499 29.6L29.1999 31.55H22.3499L7.1499 27.2ZM4.5999 25.5L0.899902 28.55V6.99998L4.5999 25.5Z" fill="white"/>
</svg>
